<svg width="40" height="40" viewBox="0 0 40 40" fill="none" xmlns="http://www.w3.org/2000/svg">
<path d="M36.5157 24.6071C38.3504 16.5004 35.1249 7.53602 31.2314 5.53329C25.6174 2.63953 20.4092 3.1475 17.4035 4.57148C14.326 6.07457 12.2841 8.93502 11.5485 12.8655C9.04591 26.2726 2.75973 28.7209 2.70055 28.7542C2.59861 28.7917 2.5081 28.8543 2.43762 28.9359C2.36714 29.0176 2.31903 29.1156 2.29785 29.2208C2.27667 29.3259 2.28313 29.4346 2.31662 29.5366C2.3501 29.6386 2.4095 29.7304 2.48917 29.8034C2.82314 30.1032 10.6608 37.1149 15.0193 33.3717C16.3932 32.1892 17.133 30.6611 17.9573 29.0415C18.9296 27.072 19.94 25.0402 22.1847 23.3789C23.985 22.0695 25.4428 20.3568 26.4375 18.3824C26.6245 18.5836 26.8517 18.7445 27.1049 18.8548C27.3581 18.9652 27.6318 19.0227 27.9087 19.0236H27.9636C28.122 19.0232 28.2744 18.9644 28.391 18.8588C28.5076 18.7533 28.5798 18.6086 28.5935 18.4532C28.6113 18.3064 28.5737 18.1582 28.4878 18.0368C28.7 17.9875 28.9067 17.9178 29.105 17.8287C29.2575 17.7585 29.3755 17.6316 29.433 17.4758C29.4904 17.3201 29.4827 17.1482 29.4115 16.998C29.3403 16.8478 29.2115 16.7316 29.0533 16.675C28.8952 16.6184 28.7206 16.626 28.5682 16.6961C28.0059 16.9543 27.4563 16.9085 27.2069 16.5837C27.5874 15.4688 27.7955 14.3038 27.8241 13.1279C28.2461 11.5652 28.3891 9.94219 28.2469 8.33129C28.6247 8.66413 28.9779 9.02312 29.3037 9.40552C29.3291 9.43466 31.8064 12.3617 30.9355 16.0674C30.1915 19.2318 31.2948 21.3844 32.0008 22.3671C31.5673 22.6562 31.1976 23.0288 30.9143 23.4625C30.6309 23.8961 30.4397 24.3818 30.3521 24.8903C30.3498 24.918 30.3498 24.9458 30.3521 24.9735C30.3268 25.5898 30.0478 27.376 29.0839 28.1921C28.8819 28.3617 28.6452 28.4866 28.39 28.5584C28.1347 28.6302 27.8668 28.6473 27.6043 28.6084H27.4563C25.1778 28.3878 24.1336 28.2878 23.3727 28.979C21.6056 30.5487 21.0053 36.3737 20.9461 37.0482C20.9331 37.2102 20.9852 37.3708 21.0912 37.4953C21.1971 37.6199 21.3484 37.6986 21.5126 37.7144H21.5718C21.7295 37.7141 21.8813 37.6559 21.9978 37.5512C22.1143 37.4465 22.1869 37.3028 22.2017 37.1482C22.4215 34.8415 23.1571 30.836 24.1885 29.9034C24.5352 29.5911 25.4568 29.6785 27.2915 29.8534H27.4394C27.8743 29.9107 28.3166 29.8764 28.737 29.753C29.1575 29.6295 29.5466 29.4197 29.8787 29.1372C31.3414 27.8881 31.5485 25.4524 31.5696 25.0735C31.6838 24.4739 31.9924 23.7161 33.2099 23.0749C33.2978 23.0282 33.3732 22.9615 33.4298 22.8804C33.4864 22.7993 33.5226 22.7062 33.5354 22.6086C33.549 22.5129 33.5392 22.4153 33.5068 22.3241C33.4745 22.2329 33.4205 22.1505 33.3494 22.0839C32.4286 21.0366 31.9227 19.6971 31.9247 18.3116C32.1334 18.3721 32.3498 18.4029 32.5673 18.4032C32.9949 18.3991 33.4163 18.3025 33.8017 18.1201C33.9476 18.0466 34.0588 17.9203 34.1122 17.7677C34.1656 17.6151 34.1569 17.4481 34.0881 17.3017C34.0192 17.1553 33.8955 17.0408 33.7428 16.9822C33.5901 16.9237 33.4203 16.9256 33.2691 16.9876C33.0781 17.1024 32.8587 17.1631 32.6349 17.1631C32.4112 17.1631 32.1918 17.1024 32.0008 16.9876C32.0304 16.7877 32.0685 16.5712 32.1192 16.363C33.1507 12.0286 30.3479 8.73516 30.2338 8.61025C28.8049 6.94478 27.6973 6.49094 27.5959 6.44514C27.4881 6.40299 27.3705 6.39118 27.2563 6.41103C27.1421 6.43088 27.0357 6.48161 26.9491 6.55756C26.862 6.63264 26.7975 6.72975 26.7625 6.83838C26.7274 6.947 26.7232 7.06299 26.7504 7.17378C27.1345 9.07138 27.068 11.0308 26.5559 12.8989C26.5392 12.9599 26.5307 13.0229 26.5305 13.0862C26.4433 14.9137 25.9388 16.6983 25.0547 18.3073C24.1705 19.9162 22.9295 21.3082 21.4238 22.3796C18.9296 24.2199 17.8051 26.4891 16.8117 28.4919C16.0677 29.995 15.3617 31.4064 14.1822 32.4307C12.4067 33.9546 9.61661 32.9678 7.58745 31.8686C6.33629 31.1749 5.1507 30.3723 4.04487 29.4703C6.02753 28.2754 10.6946 24.349 12.7956 13.0945C13.4805 9.51794 15.201 7.03222 17.9573 5.70816C21.3858 4.06767 26.3614 4.43408 30.6396 6.64083C33.7594 8.24801 37.078 16.388 35.2898 24.3323C33.9666 30.1615 35.759 33.6465 36.93 35.1912C31.3118 35.82 27.524 35.0455 25.0594 32.7805C24.9333 32.6975 24.7812 32.6618 24.6307 32.6798C24.4801 32.6978 24.3412 32.7683 24.2389 32.8786C24.1366 32.9889 24.0779 33.1316 24.0733 33.2809C24.0687 33.4302 24.1186 33.5761 24.2139 33.6923C27.1731 36.3904 31.6288 37.2106 38.3124 36.278C38.4338 36.2602 38.5474 36.2083 38.6396 36.1285C38.7318 36.0488 38.7987 35.9445 38.8323 35.8283C38.8664 35.7123 38.8653 35.5891 38.8292 35.4737C38.7932 35.3583 38.7237 35.2558 38.6294 35.1787C38.5576 35.1496 34.8459 31.981 36.5157 24.6071Z" fill="black"/>
</svg>
