<svg width="40" height="40" viewBox="0 0 40 40" fill="none" xmlns="http://www.w3.org/2000/svg">
<path d="M18.7262 0.973109C18.5991 0.401053 17.8999 -0.10744 17.2643 0.0196831C16.7558 0.146807 16.3109 0.591739 16.1837 1.16379C15.8024 3.38845 14.4676 5.10462 13.0692 6.94791L13.0056 7.01147C12.1793 8.15558 11.353 9.23613 10.5267 10.3802C8.87413 12.6049 7.0944 14.9567 5.50536 17.2449C3.66207 19.9145 2.83577 22.9019 3.02645 26.1435C2.96289 26.1435 2.96289 26.2707 2.96289 26.3342C2.96289 26.4614 3.02645 26.5885 3.09001 26.7156C3.15358 27.097 3.15358 27.4148 3.21714 27.7962C4.48837 34.9786 10.5267 40 17.8363 40C18.2177 40 18.5991 40 18.9804 39.9364C26.3536 39.4279 32.1377 32.9447 32.2013 25.1901C32.2013 24.9994 32.2013 24.8088 32.2013 24.6181C32.2013 24.1731 31.8199 23.7918 31.375 23.7918C30.93 23.7918 30.5487 24.1731 30.5487 24.6181C30.5487 24.7452 30.5487 24.9359 30.5487 25.063V25.1266C30.6122 31.9912 25.3366 37.966 18.9169 38.411C11.9251 38.9195 6.01385 34.343 4.80618 27.6055C4.80618 27.4783 4.74262 27.3512 4.74262 27.2241H7.34865L9.31906 31.4192L12.1793 26.5885L15.4845 34.5337L19.6796 27.1605H23.684C24.1289 27.1605 24.5103 26.7792 24.5103 26.3342C24.5103 25.8893 24.1289 25.5079 23.684 25.5079H18.7898L15.8024 30.8471L12.4971 23.029L9.50975 27.9868L8.36564 25.5715H4.55193C4.48837 22.8383 5.18755 20.3594 6.71303 18.0712C8.30207 15.7194 10.0182 13.4312 11.7344 11.2065C12.5607 10.0624 13.387 8.98188 14.2769 7.77421C15.5481 6.12161 16.8193 4.40544 17.455 2.3079C17.8363 3.45202 18.3448 4.53256 19.044 5.67668C19.2983 6.05805 19.7432 6.18517 20.1246 5.93092C20.5059 5.67668 20.633 5.23174 20.3788 4.85037C19.6161 3.51558 19.044 2.24434 18.7262 0.973109Z" fill="black"/>
<path d="M32.0103 9.61739L28.3237 12.3505C27.9423 12.6048 27.8788 13.1133 28.133 13.4947C28.2601 13.6853 28.5144 13.8125 28.7686 13.8125C28.9593 13.8125 29.0864 13.7489 29.2136 13.6853L32.9001 10.9522C33.2815 10.6979 33.3451 10.1894 33.0908 9.80808C32.8366 9.42671 32.3281 9.36314 32.0103 9.61739Z" fill="black"/>
<path d="M38.5574 12.9867C38.5574 7.58392 34.1716 3.26172 28.8324 3.26172C23.4933 3.26172 19.0439 7.64748 19.0439 12.9867C19.0439 18.3258 23.4297 22.7116 28.7689 22.7116C34.1081 22.7116 38.5574 18.3894 38.5574 12.9867ZM28.8324 21.1861C24.3196 21.1861 20.6965 17.4995 20.6965 13.0502C20.6965 8.6009 24.3196 4.85076 28.8324 4.85076C33.3453 4.85076 36.9683 8.53734 36.9683 12.9867C36.9683 17.436 33.3453 21.1861 28.8324 21.1861Z" fill="black"/>
</svg>
