<svg width="25" height="20" viewBox="0 0 25 20" fill="none" xmlns="http://www.w3.org/2000/svg">
<path d="M22.1266 0.517518C22.2816 0.353672 22.4668 0.223498 22.6711 0.134644C22.8755 0.0457678 23.0948 0 23.3164 0C23.538 0 23.7573 0.0457678 23.9616 0.134644C24.1659 0.223498 24.3512 0.353672 24.5062 0.517518C25.1562 1.19756 25.1653 2.29646 24.5289 2.98827L11.09 19.4364C10.9374 19.61 10.7522 19.7493 10.5458 19.8463C10.3394 19.943 10.1161 19.9952 9.88952 19.9997C9.66293 20.004 9.43788 19.9607 9.2281 19.8717C9.01832 19.783 8.82823 19.651 8.66947 19.4834L0.492032 10.904C0.176662 10.5711 0 10.1233 0 9.65697C0 9.1906 0.176662 8.74283 0.492032 8.40982C0.647149 8.24597 0.832267 8.1158 1.03657 8.02695C1.24087 7.93807 1.46023 7.8923 1.68183 7.8923C1.90343 7.8923 2.12279 7.93807 2.32709 8.02695C2.53139 8.1158 2.71651 8.24597 2.87163 8.40982L9.80813 15.6879L22.0811 0.569286C22.0952 0.55112 22.1104 0.533825 22.1266 0.517518Z" fill="#231F20"/>
</svg>
