<svg width="40" height="40" viewBox="0 0 40 40" fill="none" xmlns="http://www.w3.org/2000/svg">
<path d="M8.57122 11.4286C9.51799 11.4286 10.2855 10.6611 10.2855 9.71429C10.2855 8.76751 9.51799 8 8.57122 8C7.62444 8 6.85693 8.76751 6.85693 9.71429C6.85693 10.6611 7.62444 11.4286 8.57122 11.4286Z" fill="black"/>
<path d="M31.4286 11.4286C32.3754 11.4286 33.1429 10.6611 33.1429 9.71429C33.1429 8.76751 32.3754 8 31.4286 8C30.4819 8 29.7144 8.76751 29.7144 9.71429C29.7144 10.6611 30.4819 11.4286 31.4286 11.4286Z" fill="black"/>
<path d="M19.6506 27.4221C18.9257 27.4212 18.2104 27.275 17.5585 26.9945C16.9065 26.714 16.3348 26.3064 15.8863 25.8025C15.4377 25.2985 15.124 24.7111 14.9686 24.0845C14.8131 23.4579 14.8201 22.8082 14.9889 22.1843L18.6423 8.65011C18.6663 8.54353 18.7144 8.44233 18.7836 8.35256C18.8529 8.2628 18.9418 8.18632 19.0452 8.12769C19.1487 8.06906 19.2644 8.02949 19.3855 8.01134C19.5065 7.9932 19.6305 7.99685 19.75 8.02209C19.8694 8.04732 19.9819 8.09361 20.0807 8.1582C20.1794 8.22278 20.2625 8.30434 20.3248 8.39798C20.3872 8.49162 20.4275 8.59543 20.4435 8.70319C20.4595 8.81095 20.4507 8.92046 20.4178 9.02516L16.7717 22.5788C16.668 22.9645 16.6644 23.366 16.761 23.7531C16.8577 24.1402 17.0522 24.503 17.3299 24.8141C17.6076 25.1252 17.9613 25.3766 18.3645 25.5494C18.7677 25.7222 19.2099 25.812 19.6579 25.812C19.9001 25.812 20.1324 25.8971 20.3037 26.0487C20.475 26.2003 20.5712 26.4059 20.5712 26.6203C20.5712 26.8346 20.475 27.0402 20.3037 27.1918C20.1324 27.3434 19.9001 27.4286 19.6579 27.4286L19.6506 27.4221Z" fill="black"/>
<path d="M4.28547 5.7145C4.08483 5.7145 3.89055 5.64964 3.7365 5.53123C3.58246 5.41283 3.47842 5.24839 3.44253 5.06658C3.40664 4.88476 3.44117 4.69712 3.5401 4.53635C3.63903 4.37559 3.79609 4.2519 3.98389 4.18685L12.5515 1.19468C12.6568 1.15779 12.7689 1.14037 12.8816 1.1434C12.9942 1.14644 13.105 1.16988 13.2078 1.21237C13.3106 1.25487 13.4033 1.3156 13.4806 1.39109C13.5579 1.46658 13.6183 1.55535 13.6584 1.65235C13.6984 1.74934 13.7174 1.85264 13.7141 1.95637C13.7108 2.06009 13.6853 2.1622 13.6392 2.25687C13.593 2.35154 13.5271 2.43691 13.4451 2.50811C13.3632 2.57931 13.2668 2.63494 13.1615 2.67183L4.5939 5.65768C4.49602 5.69472 4.39129 5.71401 4.28547 5.7145V5.7145Z" fill="black"/>
<path d="M34.5759 5.7145C34.4774 5.71353 34.3798 5.69539 34.2873 5.66087L26.8169 2.76519C26.7161 2.72646 26.6238 2.66782 26.5452 2.59262C26.4666 2.51743 26.4033 2.42715 26.3588 2.32694C26.3144 2.22673 26.2896 2.11855 26.2861 2.00858C26.2825 1.89861 26.3002 1.789 26.3381 1.68601C26.376 1.58302 26.4334 1.48867 26.507 1.40834C26.5805 1.32801 26.6689 1.26328 26.7669 1.21784C26.865 1.17241 26.9708 1.14715 27.0784 1.14352C27.186 1.13989 27.2933 1.15796 27.3941 1.19669L34.8972 4.09238C35.077 4.16144 35.2272 4.29278 35.3219 4.46349C35.4166 4.6342 35.4496 4.83345 35.4153 5.02651C35.3809 5.21956 35.2814 5.39417 35.134 5.5199C34.9866 5.64563 34.8007 5.7145 34.6087 5.7145H34.5759Z" fill="black"/>
<path d="M22.9116 38.8571C22.6049 38.8547 22.301 38.7963 22.0139 38.6847C21.1478 38.3521 20.4351 37.692 20.0191 36.837C19.5023 35.8596 19.3173 34.7305 19.4938 33.631C19.8196 31.9142 21.2625 30.7146 22.3198 29.8459L22.6123 29.6045C23.9258 28.4919 25.4031 27.605 26.9876 26.9777C28.452 26.3193 30.0715 26.125 31.6422 26.4193C32.5755 26.6335 33.4539 27.0518 34.2187 27.6463C34.9836 28.2408 35.6172 28.9978 36.0773 29.8665C36.3198 30.2746 36.4776 30.7306 36.5406 31.2055C36.6035 31.6803 36.5703 32.1636 36.443 32.6244C36.3047 32.9485 36.0883 33.2304 35.8147 33.4428C35.541 33.6553 35.2193 33.7913 34.8804 33.8378C34.5975 33.8678 34.3123 33.8678 34.0293 33.8378C33.8526 33.8159 33.674 33.8159 33.4974 33.8378C33.1516 33.9068 32.7925 33.955 32.4335 34.0033L31.7685 34.0929C30.6919 34.2818 29.6314 34.5584 28.5968 34.9203C27.33 35.3061 26.1923 36.0511 25.312 37.0714C25.2122 37.1886 25.1125 37.3196 25.0194 37.4437C24.803 37.8371 24.4985 38.1709 24.1317 38.4169C23.7649 38.6629 23.3464 38.8138 22.9116 38.8571V38.8571ZM30.2857 28.0257C29.3716 28.0531 28.4701 28.2541 27.626 28.6186C26.2077 29.1773 24.8853 29.9687 23.7095 30.9628L23.4036 31.2179C22.5059 31.9625 21.4088 32.8933 21.1694 33.9757C21.0662 34.6874 21.1924 35.4144 21.5285 36.0441V36.0441C21.7416 36.517 22.1192 36.8889 22.5857 37.0852C23.0445 37.2575 23.1576 37.1817 23.7294 36.3957C23.8358 36.2509 23.9489 36.0992 24.0685 35.9545C25.1479 34.6925 26.5459 33.7684 28.1047 33.2863C29.231 32.9087 30.3852 32.6274 31.5557 32.4451L32.2207 32.3486C32.5332 32.3072 32.8856 32.2659 33.1582 32.2038C33.4613 32.1505 33.7695 32.1366 34.0758 32.1624C34.2485 32.1767 34.4219 32.1767 34.5945 32.1624C34.6541 32.1526 34.7109 32.1289 34.7604 32.0931C34.8099 32.0573 34.851 32.0103 34.8804 31.9556C34.9412 31.503 34.8369 31.0433 34.5878 30.6663C34.1631 29.8683 33.5402 29.2025 32.7838 28.7382C32.0273 28.2739 31.1648 28.0279 30.2857 28.0257Z" fill="black"/>
</svg>
