<svg width="40" height="40" viewBox="0 0 40 40" fill="none" xmlns="http://www.w3.org/2000/svg">
<path d="M19.9997 15.1997C17.3597 15.1997 15.1997 17.3597 15.1997 19.9997C15.1997 22.6397 17.3597 24.7997 19.9997 24.7997C22.6397 24.7997 24.7997 22.6397 24.7997 19.9997C24.7997 17.3597 22.6397 15.1997 19.9997 15.1997ZM19.9997 23.1997C18.2397 23.1997 16.7997 21.7597 16.7997 19.9997C16.7997 18.2397 18.2397 16.7997 19.9997 16.7997C21.7597 16.7997 23.1997 18.2397 23.1997 19.9997C23.1997 21.7597 21.7597 23.1997 19.9997 23.1997Z" fill="black"/>
<path d="M39.2 19.2H34.64C34.24 11.76 28.24 5.76 20.8 5.36V0.8C20.8 0.32 20.48 0 20 0C19.52 0 19.2 0.32 19.2 0.8V5.36C11.76 5.76 5.76 11.76 5.36 19.2H0.8C0.32 19.2 0 19.52 0 20C0 20.48 0.32 20.8 0.8 20.8H5.36C5.76 28.24 11.76 34.24 19.2 34.64V39.2C19.2 39.68 19.52 40 20 40C20.48 40 20.8 39.68 20.8 39.2V34.64C28.24 34.24 34.24 28.24 34.64 20.8H39.2C39.68 20.8 40 20.48 40 20C40 19.52 39.68 19.2 39.2 19.2ZM20.8 33.04V28.8C20.8 28.32 20.48 28 20 28C19.52 28 19.2 28.32 19.2 28.8V33.12C12.64 32.72 7.36 27.44 6.96 20.88H11.2C11.68 20.88 12 20.56 12 20.08C12 19.6 11.68 19.28 11.2 19.28H6.88C7.28 12.72 12.56 7.44 19.12 7.04V11.2C19.12 11.68 19.44 12 19.92 12C20.4 12 20.72 11.68 20.72 11.2V6.88C27.28 7.28 32.56 12.56 32.96 19.12H28.8C28.32 19.12 28 19.44 28 19.92C28 20.4 28.32 20.72 28.8 20.72H33.12C32.64 27.36 27.36 32.64 20.8 33.04Z" fill="black"/>
</svg>
