<svg width="64" height="67" viewBox="0 0 64 67" fill="none" xmlns="http://www.w3.org/2000/svg">
<path d="M31.679 8.23682C36.6658 8.23741 41.5413 9.71183 45.6928 12.4748C49.8442 15.2378 53.0865 19.1661 55.0122 23.7661C56.938 28.3662 57.4612 33.4327 56.5162 38.3292C55.5713 43.2257 53.2003 47.7338 49.7011 51.2869C46.202 54.84 41.7308 57.2797 36.8493 58.2994C31.9678 59.3192 26.8938 58.8735 22.2649 57.0184C17.6359 55.1633 13.6585 51.9815 10.8323 47.8728C8.00611 43.7641 6.45727 38.9118 6.38038 33.9255C6.35089 30.5871 6.98391 27.2761 8.24276 24.1841C9.50162 21.092 11.3613 18.2804 13.7142 15.912C16.0671 13.5436 18.8664 11.6654 21.9501 10.3862C25.0337 9.10701 28.3405 8.45221 31.679 8.45971V8.23682ZM31.679 57.9982C36.4818 57.9872 41.1736 56.5529 45.1617 53.8766C49.1497 51.2002 52.2551 47.402 54.0854 42.9616C55.9157 38.5212 56.3889 33.6379 55.4452 28.9287C54.5015 24.2195 52.1831 19.8956 48.7831 16.5034C45.3831 13.1112 41.054 10.8028 36.3426 9.86985C31.6313 8.93691 26.7491 9.42129 22.3129 11.2618C17.8767 13.1023 14.0856 16.2163 11.4184 20.2105C8.75122 24.2047 7.3277 28.8998 7.32768 33.7026C7.3203 36.8999 7.94554 40.0671 9.16738 43.0217C10.3892 45.9764 12.1835 48.6601 14.447 50.9184C16.7104 53.1766 19.3982 54.9648 22.3557 56.1798C25.3131 57.3949 28.4817 58.0129 31.679 57.9982Z" fill="#231F20"/>
<path d="M0.0262022 34.9826C-0.233407 28.5885 1.44103 22.2647 4.83089 16.837C8.22074 11.4092 13.1685 7.12977 19.028 4.55737C19.3624 4.55737 19.6967 4.05585 19.9753 4.55737C20.2539 5.05888 19.6967 5.17033 19.4181 5.3375C15.1055 7.19936 11.2877 10.0432 8.26918 13.6423C5.25063 17.2413 3.11488 21.4959 2.03226 26.0668C0.371272 32.7822 1.03107 39.8621 3.90435 46.155C6.77764 52.4479 11.6954 57.5836 17.8578 60.727C18.1348 60.8082 18.3849 60.9621 18.5822 61.1728C18.5822 61.1728 18.5822 61.6186 18.5822 61.8414C18.5822 62.0643 18.1364 61.8414 17.9135 61.8414C12.3234 59.0314 7.68961 54.6302 4.59555 49.1921C2.0203 44.8662 0.582512 39.9585 0.416267 34.9268" fill="#231F20"/>
<path d="M63.6054 33.5355C63.5507 39.3944 61.8906 45.1261 58.8056 50.1072C55.7207 55.0884 51.3289 59.1283 46.1081 61.7875C46.1081 61.7875 45.5509 62.289 45.2165 61.7875C44.8822 61.286 44.8822 61.1188 45.2165 60.8402C48.1517 59.446 50.8276 57.5615 53.1293 55.2678C56.2652 52.2163 58.6938 48.5142 60.2439 44.4224C61.794 40.3306 62.4279 35.9486 62.1008 31.5852C61.8382 26.0126 60.0316 20.6227 56.8827 16.0175C53.7339 11.4123 49.3668 7.77313 44.2692 5.50646C43.9906 5.50646 43.4891 5.50647 43.5448 4.8935C43.6005 4.28054 43.8792 4.22482 44.4364 4.50344C48.4583 6.23333 52.067 8.79744 55.0239 12.0262C59.5523 16.9008 62.4199 23.0848 63.2153 29.6906C63.3003 30.9708 63.3003 32.2553 63.2153 33.5355" fill="#231F20"/>
<path d="M31.2887 18.4317C32.481 16.6159 33.9912 15.0303 35.7466 13.7509C36.0253 13.7509 36.2482 13.3051 36.4711 13.7509C38.3222 18.0539 38.7707 22.8308 37.7527 27.4032C37.27 29.3477 36.1762 31.086 34.6322 32.3626L34.0749 32.7527C32.9605 33.3099 32.849 33.1985 32.849 32.084C32.908 28.3517 33.2246 24.6279 33.7963 20.9392C32.5183 24.8143 31.6407 28.8101 31.1773 32.8641C30.5099 32.3995 29.9437 31.8044 29.5127 31.1148C29.0817 30.4253 28.7949 29.6555 28.6697 28.852C28.3577 27.0322 28.4243 25.1676 28.8653 23.3747C29.3064 21.5818 30.1124 19.8991 31.233 18.4317" fill="#231F20"/>
<path d="M23.9291 42.45C21.4971 41.7074 19.368 40.2033 17.8552 38.1593C15.5575 35.2107 14.1292 31.6788 13.7317 27.9618C13.6487 26.8303 13.6487 25.6942 13.7317 24.5627C13.7317 24.1169 13.7317 23.894 14.3446 24.0055C19.6744 25.0326 24.5141 27.7953 28.1084 31.8625C28.5091 32.2078 28.8306 32.6354 29.051 33.1162C29.2714 33.5971 29.3855 34.1198 29.3855 34.6487C29.3855 35.1776 29.2714 35.7003 29.051 36.1812C28.8306 36.662 28.5091 37.0896 28.1084 37.4349C27.6626 37.9364 27.4955 37.825 27.1054 37.4349C24.9322 34.983 22.5918 32.6984 20.1956 30.4137L19.8613 30.0793L19.0254 29.2992L17.4652 28.3519L18.0781 29.0206L19.3598 30.4137L21.0315 32.364L26.0466 38.4379C26.4367 38.9394 26.4367 39.2738 26.0466 39.8867C25.5426 40.4853 25.1806 41.1901 24.9879 41.9485C24.9879 42.6729 24.6535 42.7287 24.2078 42.5615" fill="#231F20"/>
<path d="M49.8436 31.1949C49.7624 35.0121 49.0078 38.7849 47.6146 42.3397C46.6455 44.5642 45.1674 46.53 43.2993 48.0787C41.4313 49.6273 39.2256 50.7155 36.8599 51.2555C34.018 52.0356 31.2875 52.5371 28.3342 53.5959C31.9306 46.5365 36.7836 40.1917 42.6552 34.8727C36.6132 39.026 31.5072 44.3977 27.6655 50.6425C26.6422 49.6443 25.9294 48.3715 25.613 46.9774C25.2966 45.5834 25.3902 44.1276 25.8823 42.7854C27.0545 39.6039 29.2243 36.8868 32.0677 35.0398C35.8499 32.4384 40.2517 30.8814 44.8284 30.5262C46.2911 30.3591 47.768 30.3591 49.2306 30.5262C49.6207 30.5262 49.8993 30.5262 49.8436 31.1392" fill="#231F20"/>
<path d="M19.6392 65.1851L21.1994 60.5601L24.5986 61.6745L24.32 62.5104L21.8681 61.7303L21.5338 62.6776L23.4284 63.2905L23.1498 64.1264L21.2551 63.5134L20.5865 65.5195L19.6392 65.1851Z" fill="#231F20"/>
<path d="M26.3267 66.8011V61.9531H28.5556C29.0113 61.9674 29.4465 62.1454 29.7815 62.4546C29.9168 62.5942 30.0214 62.7604 30.0885 62.9428C30.1557 63.1251 30.184 63.3195 30.1716 63.5134C30.1531 63.82 30.0338 64.1119 29.8323 64.3437C29.6307 64.5755 29.3582 64.7342 29.0571 64.795L30.4502 66.9683H29.28L27.9984 64.9622H27.1625V66.9125L26.3267 66.8011ZM27.4969 64.0706H28.667C28.7556 64.0959 28.8488 64.1008 28.9396 64.0851C29.0303 64.0694 29.1164 64.0335 29.1914 63.9799C29.2663 63.9264 29.3282 63.8566 29.3725 63.7759C29.4168 63.6951 29.4423 63.6054 29.4472 63.5134C29.4472 63.1791 29.4472 62.9004 28.7228 62.9004H27.5526L27.4969 64.0706Z" fill="#231F20"/>
<path d="M33.6306 66.913L32.9619 62.0093L36.5282 61.5635L36.6397 62.4551L34.0764 62.7894L34.1878 63.7367L36.2496 63.4581L36.3611 64.3497L34.2993 64.6283L34.4665 65.8542L37.1412 65.5199L37.2526 66.4114L33.6306 66.913Z" fill="#231F20"/>
<path d="M40.0332 65.743L38.6401 61.0622L42.095 60.0034L42.3736 60.8393L39.8661 61.6194L40.1447 62.511L42.1507 61.898L42.4294 62.7896L40.4233 63.3468L40.7576 64.5728L43.3209 63.7926L43.5996 64.6842L40.0332 65.743Z" fill="#231F20"/>
<path d="M22.7052 5.56132C22.4028 5.40192 22.1435 5.17168 21.9494 4.89027C21.7554 4.60886 21.6323 4.28464 21.5908 3.94533C21.5123 3.61126 21.5066 3.26426 21.5739 2.92778C21.6412 2.5913 21.78 2.27319 21.9808 1.99499C22.1706 1.71205 22.4173 1.47177 22.7051 1.28948C22.993 1.10719 23.3156 0.986884 23.6525 0.936241C24.1442 0.795342 24.6655 0.795342 25.1571 0.936241V1.88355C24.6838 1.74731 24.1816 1.74731 23.7083 1.88355C23.2639 1.95286 22.8641 2.19275 22.5938 2.55223C22.511 2.74599 22.4683 2.9545 22.4683 3.16519C22.4683 3.37589 22.511 3.5844 22.5938 3.77815C22.6292 3.99024 22.7066 4.19313 22.8214 4.37493C22.9362 4.55674 23.0862 4.71379 23.2625 4.83691C23.6414 4.96854 24.0537 4.96854 24.4327 4.83691C24.7793 4.779 25.0948 4.60157 25.3243 4.33539L25.0457 2.66368H25.9929L26.4388 4.78118C26.2568 5.07562 26.0088 5.32364 25.7143 5.50559C25.4016 5.79101 25.0158 5.98393 24.5999 6.06283C24.2701 6.15293 23.9246 6.16968 23.5876 6.11192C23.2507 6.05416 22.9305 5.92328 22.6495 5.72849" fill="#231F20"/>
<path d="M28.5552 5.50538L28.4995 0.545958H29.5025L30.9514 2.55202L32.3444 0.490234H33.3475L33.4589 5.44965H32.4559L32.4002 2.0505L31.2857 3.66649H30.7285L29.5025 2.10622L29.5583 5.50538H28.5552Z" fill="#231F20"/>
<path d="M36.969 1.15796C37.2515 0.966559 37.5716 0.837717 37.908 0.780056C38.2443 0.722396 38.5891 0.737247 38.9193 0.823616C39.2586 0.865144 39.5828 0.988204 39.8642 1.18228C40.1456 1.37636 40.3759 1.63568 40.5353 1.93809C40.729 2.20888 40.8595 2.51961 40.9174 2.84747C40.9752 3.17533 40.9589 3.51198 40.8696 3.8327C40.7991 4.16208 40.6644 4.47433 40.4732 4.75161C40.282 5.02889 40.038 5.26577 39.7552 5.44869C39.4827 5.63884 39.172 5.76727 38.8448 5.82501C38.5175 5.88276 38.1817 5.86843 37.8606 5.78304C37.5253 5.72904 37.2063 5.60099 36.9268 5.4082C36.6472 5.21542 36.4142 4.96274 36.2446 4.66856C36.029 4.40778 35.8725 4.10336 35.7859 3.77628C35.6994 3.4492 35.6847 3.10723 35.743 2.77395C35.7977 2.44586 35.92 2.13274 36.1023 1.85452C36.2846 1.5763 36.5228 1.33908 36.8018 1.15796H36.969ZM37.8606 4.83573C38.0439 4.9206 38.2436 4.96456 38.4456 4.96456C38.6477 4.96456 38.8474 4.9206 39.0307 4.83573C39.364 4.56591 39.599 4.1938 39.6994 3.77698C39.7822 3.58322 39.8249 3.37471 39.8249 3.16402C39.8249 2.95332 39.7822 2.74481 39.6994 2.55105C39.4735 2.22228 39.1376 1.98511 38.7521 1.88237C38.5687 1.7975 38.3691 1.75354 38.167 1.75354C37.965 1.75354 37.7653 1.7975 37.5819 1.88237C37.4056 2.00548 37.2557 2.16254 37.1409 2.34434C37.026 2.52614 36.9486 2.72903 36.9132 2.94112C36.8284 3.1245 36.7844 3.32415 36.7844 3.52622C36.7844 3.72829 36.8284 3.92794 36.9132 4.11132C37.0075 4.28939 37.1424 4.44274 37.307 4.55892C37.4715 4.6751 37.6612 4.75085 37.8606 4.78001" fill="#231F20"/>
</svg>
