<svg width="40" height="40" viewBox="0 0 40 40" fill="none" xmlns="http://www.w3.org/2000/svg">
<path d="M38.1236 26.6392C38.1236 25.7472 37.8406 24.9014 37.3066 24.1912C36.8976 23.6487 36.3516 23.2158 35.7376 22.9376C35.7556 22.7889 35.7656 22.6362 35.7656 22.4825C35.7656 21.5543 35.4256 20.6623 34.8096 19.9722L33.9406 20.7547C34.3646 21.2298 34.5976 21.8436 34.5976 22.4825C34.5976 23.9099 33.4426 25.0711 32.0216 25.0711V26.2435C33.5176 26.2435 34.8106 25.3565 35.4096 24.0807C36.3426 24.5699 36.9576 25.5574 36.9576 26.6392C36.9576 28.2294 35.6696 29.5222 34.0866 29.5222C33.3376 29.5222 32.6296 29.2349 32.0916 28.7116L31.2796 29.5544C32.0366 30.2897 33.0336 30.6945 34.0866 30.6945C34.6886 30.6945 35.2586 30.5609 35.7716 30.3238C35.7736 30.3781 35.7756 30.4313 35.7756 30.4856C35.7756 32.5649 34.0916 34.2566 32.0226 34.2566C29.9535 34.2566 28.2686 32.5649 28.2686 30.4856H27.1016C27.1016 33.2118 29.3085 35.4289 32.0226 35.4289C34.7356 35.4289 36.9427 33.2118 36.9427 30.4856C36.9427 30.1812 36.9146 29.8788 36.8596 29.5835C37.6367 28.8431 38.1236 27.7975 38.1236 26.6392Z" fill="black"/>
<path d="M7.97805 34.2566C5.90903 34.2566 4.22503 32.5649 4.22503 30.4856C4.22503 30.4313 4.22602 30.3781 4.22802 30.3238C4.74102 30.5609 5.31203 30.6945 5.91303 30.6945C6.96604 30.6945 7.96306 30.2907 8.72006 29.5544L7.90804 28.7116C7.37004 29.2349 6.66104 29.5222 5.91303 29.5222C4.33002 29.5222 3.042 28.2294 3.042 26.6392C3.042 25.5574 3.65701 24.5699 4.58901 24.0807C5.18802 25.3575 6.48103 26.2435 7.97704 26.2435V25.0711C6.55603 25.0711 5.40003 23.9099 5.40003 22.4825C5.40003 21.8436 5.63302 21.2298 6.05802 20.7547L5.18902 19.9722C4.57302 20.6633 4.23302 21.5543 4.23302 22.4825C4.23302 22.6362 4.24401 22.7889 4.26201 22.9376C3.64701 23.2158 3.101 23.6487 2.69199 24.1912C2.15699 24.9004 1.875 25.7472 1.875 26.6392C1.875 27.7965 2.36199 28.8421 3.14 29.5835C3.08599 29.8798 3.05702 30.1822 3.05702 30.4866C3.05702 33.2119 5.26502 35.4289 7.97704 35.4289C10.6891 35.4289 12.8971 33.2119 12.8971 30.4866H11.7301C11.7311 32.565 10.0481 34.2566 7.97805 34.2566Z" fill="black"/>
<path d="M22.7717 32.1236C22.0307 32.1236 21.2957 32.0332 20.5836 31.8544V29.538L23.4916 26.6168L22.6667 25.7881L19.9996 28.4661L17.3326 25.7881L16.5076 26.6168L19.4156 29.538V31.8544C18.7026 32.0332 17.9676 32.1236 17.2266 32.1236C16.1206 32.1236 15.0406 31.9257 14.0166 31.534L13.6016 32.6299C14.7586 33.0719 15.9776 33.2959 17.2266 33.2959C18.1676 33.2959 19.0996 33.1673 19.9986 32.9122C20.8976 33.1673 21.8297 33.2959 22.7707 33.2959C24.0187 33.2959 25.2387 33.0719 26.3957 32.6299L25.9807 31.534C24.9577 31.9257 23.8777 32.1236 22.7717 32.1236Z" fill="black"/>
<path d="M39.8761 17.9531C37.6151 15.048 35.5351 13.3262 33.518 12.6894C31.745 12.1299 30.404 12.5267 29.424 12.817C29.121 12.9064 28.861 12.9837 28.645 13.0148L28.812 14.1751C29.11 14.1319 29.423 14.0395 29.754 13.941C31.4781 13.4307 34.0531 12.6683 38.4721 18.0677C33.6711 19.8648 30.8381 17.473 30.3291 16.3288L29.264 16.8069C29.631 17.6337 30.715 18.8261 32.56 19.4679C33.227 19.7 34.0951 19.8898 35.1511 19.8898C36.3981 19.8898 37.9071 19.6236 39.6521 18.8491C39.8171 18.7758 39.9391 18.6312 39.9831 18.4554C40.0261 18.2816 39.9871 18.0958 39.8761 17.9531Z" fill="black"/>
<path d="M7.43977 19.4694C9.28479 18.8275 10.3688 17.6352 10.7358 16.8084L9.67078 16.3303C9.16277 17.4735 6.32874 19.8663 1.5277 18.0682C5.94574 12.6688 8.52178 13.4312 10.2458 13.9415C10.5778 14.04 10.8908 14.1314 11.1878 14.1746L11.3548 13.0143C11.1398 12.9832 10.8778 12.9059 10.5758 12.8165C9.59678 12.5261 8.25477 12.1294 6.48175 12.6889C4.46374 13.3258 2.38372 15.0475 0.123695 17.9526C0.0126943 18.0952 -0.0262936 18.2811 0.0177068 18.4559C0.0617072 18.6307 0.183695 18.7763 0.347696 18.8496C2.09371 19.6241 3.60174 19.8893 4.84975 19.8893C5.90376 19.8914 6.77176 19.7015 7.43977 19.4694Z" fill="black"/>
<path d="M14.4474 16.7963C13.6253 16.3272 12.7743 16.2729 12.2063 16.2729C11.9313 16.2729 11.6943 16.4658 11.6363 16.736C11.4233 17.7295 11.5373 18.6466 11.9773 19.4613C12.1193 19.7245 12.4343 19.838 12.7093 19.7255C13.0173 19.5999 13.3254 19.5397 13.6524 19.5397C14.2424 19.5397 14.8904 19.7476 15.5794 20.1564C15.6714 20.2117 15.7744 20.2378 15.8764 20.2378C16.0064 20.2378 16.1364 20.1946 16.2424 20.1083C16.4314 19.9546 16.5064 19.6984 16.4304 19.4663C16.0144 18.2077 15.3474 17.3096 14.4474 16.7963ZM13.6524 18.3664C13.3694 18.3664 13.0904 18.3985 12.8164 18.4638C12.7164 18.1514 12.6803 17.8209 12.7063 17.4663C13.0753 17.5025 13.4824 17.5929 13.8714 17.8149C14.1634 17.9817 14.4194 18.2067 14.6434 18.4929C14.3064 18.4096 13.9764 18.3664 13.6524 18.3664Z" fill="black"/>
<path d="M27.793 16.2725C27.225 16.2725 26.3739 16.3267 25.5519 16.7958C24.6529 17.3091 23.9859 18.2072 23.5699 19.4659C23.4929 19.6979 23.568 19.9531 23.758 20.1068C23.863 20.1931 23.9929 20.2363 24.1239 20.2363C24.2269 20.2363 24.3289 20.2092 24.4209 20.1549C25.1089 19.7451 25.758 19.5382 26.348 19.5382C26.675 19.5382 26.984 19.5994 27.291 19.724C27.566 19.8365 27.882 19.723 28.023 19.4598C28.462 18.6441 28.578 17.727 28.364 16.7336C28.306 16.4643 28.069 16.2725 27.793 16.2725ZM27.183 18.4634C26.597 18.3247 25.989 18.3348 25.357 18.4935C25.581 18.2062 25.837 17.9812 26.129 17.8154C26.517 17.5934 26.925 17.502 27.293 17.4658C27.32 17.8204 27.283 18.151 27.183 18.4634Z" fill="black"/>
<path d="M18.4576 4.57129C17.1656 4.57129 15.9306 5.02233 14.9446 5.84605C14.7276 5.80486 14.5046 5.78277 14.2756 5.78277C13.2736 5.78277 12.3666 6.19865 11.7146 6.86566C11.1596 6.6527 10.5756 6.5442 9.97056 6.5442C7.27554 6.5442 5.08252 8.74713 5.08252 11.4543C5.08252 11.6412 5.09253 11.827 5.11353 12.0068L6.27253 11.8742C6.25753 11.7376 6.24952 11.597 6.24952 11.4543C6.24952 9.39304 7.91855 7.71648 9.97056 7.71648C10.3326 7.71648 10.6846 7.7667 11.0236 7.86715C10.8086 8.32923 10.6886 8.84354 10.6886 9.38599H11.8556C11.8556 8.04595 12.9406 6.95505 14.2756 6.95505C15.6106 6.95505 16.6956 8.04494 16.6956 9.38599C16.6956 10.727 15.6106 11.817 14.2756 11.817V12.9892C16.2536 12.9892 17.8626 11.3729 17.8626 9.38599C17.8626 8.12229 17.2116 7.00929 16.2286 6.36539C16.8966 5.96157 17.6636 5.74359 18.4576 5.74359C19.9597 5.74359 21.3337 6.51605 22.1247 7.77975C21.6997 8.44876 21.4536 9.24234 21.4536 10.0922C21.4536 12.4689 23.3777 14.4016 25.7437 14.4016V13.2293C24.0207 13.2293 22.6207 11.822 22.6207 10.0922C22.6207 8.36238 24.0207 6.95505 25.7437 6.95505C27.4657 6.95505 28.8658 8.36238 28.8658 10.0922H30.0337C30.0337 9.6321 29.9617 9.19013 29.8277 8.77425C31.3457 8.8074 32.5698 10.057 32.5698 11.5889H33.7368C33.7368 9.39003 31.9558 7.60096 29.7668 7.60096C29.5978 7.60096 29.4297 7.612 29.2637 7.63309C28.4877 6.51505 27.1997 5.78277 25.7427 5.78277C24.6587 5.78277 23.6677 6.18858 22.9117 6.85759C21.8866 5.43016 20.2427 4.57129 18.4576 4.57129Z" fill="black"/>
</svg>
