<svg width="65" height="66" viewBox="0 0 65 66" fill="none" xmlns="http://www.w3.org/2000/svg">
<path d="M32.4316 11.6146C28.1124 11.6146 23.8902 12.8954 20.2989 15.2951C16.7076 17.6947 13.9085 21.1054 12.2556 25.0958C10.6027 29.0862 10.1703 33.4772 11.0129 37.7134C11.8555 41.9496 13.9354 45.8409 16.9896 48.895C20.0437 51.9492 23.9349 54.0291 28.1712 54.8717C32.4074 55.7143 36.7984 55.2819 40.7888 53.629C44.7792 51.9761 48.1899 49.177 50.5895 45.5857C52.9892 41.9944 54.27 37.7722 54.27 33.453C54.27 27.6611 51.9692 22.1064 47.8737 18.0109C43.7782 13.9154 38.2235 11.6146 32.4316 11.6146ZM32.4316 56.1648C27.898 56.1755 23.4634 54.8389 19.6909 52.3245C15.9183 49.8102 12.978 46.2316 11.2431 42.043C9.50822 37.8544 9.05708 33.2448 9.94693 28.7993C10.8368 24.3539 13.0275 20.273 16.2409 17.075C19.4544 13.8769 23.5456 11.7058 27.9953 10.8373C32.445 9.96875 37.0524 10.442 41.2326 12.197C45.4128 13.9519 48.9773 16.9094 51.4735 20.6939C53.9697 24.4785 55.2851 28.9194 55.2527 33.453C55.2383 39.5061 52.8311 45.308 48.556 49.5934C44.2809 53.8787 38.4847 56.2998 32.4316 56.3286" fill="#231F20"/>
<path d="M32.4295 2.1692C26.2662 2.15845 20.238 3.97488 15.1066 7.38898C9.97526 10.8031 5.97108 15.6616 3.60003 21.3506C1.22899 27.0396 0.597494 33.3038 1.78536 39.3516C2.97323 45.3994 5.92714 50.9594 10.2738 55.3289C14.6205 59.6985 20.1649 62.6816 26.2064 63.9012C32.2479 65.1208 38.5153 64.5222 44.2167 62.181C49.9181 59.8399 54.7976 55.8612 58.2385 50.7479C61.6795 45.6345 63.5276 39.6159 63.5492 33.4526C63.5635 29.3542 62.7696 25.2931 61.2128 21.5018C59.656 17.7106 57.3669 14.2635 54.4764 11.3578C51.586 8.45215 48.1509 6.14497 44.3679 4.56829C40.5848 2.9916 36.528 2.17635 32.4295 2.1692ZM32.4295 65.6096C26.0255 65.6311 19.7595 63.7497 14.4265 60.2042C9.09353 56.6586 4.93404 51.6087 2.47587 45.6952C0.0177066 39.7817 -0.628319 33.2713 0.619757 26.9901C1.86783 20.7088 4.95376 14.9399 9.48594 10.4154C14.0181 5.89093 19.7922 2.8148 26.0756 1.57738C32.3589 0.339958 38.8683 0.997035 44.7775 3.46523C50.6868 5.93342 55.7297 10.1015 59.2662 15.4404C62.8027 20.7794 64.6735 27.0487 64.6411 33.4526C64.6411 42.0246 61.2359 50.2455 55.1746 56.3068C49.1133 62.3681 40.8923 65.7734 32.3204 65.7734" fill="#231F20"/>
<path d="M8.73617 20.0778L9.00916 19.5864C9.0475 19.52 9.06767 19.4447 9.06767 19.368C9.06767 19.2914 9.0475 19.216 9.00916 19.1497C8.95033 18.9865 8.8338 18.8506 8.68158 18.7675C8.24481 18.7675 7.97185 18.7675 7.75346 18.7675L7.48047 19.2588L8.73617 20.0778ZM9.66431 20.0778V20.46L11.1384 21.3335L10.647 22.1524L6.60693 19.8048L7.37127 18.4945C7.45757 18.3146 7.57951 18.1541 7.72966 18.0227C7.87981 17.8913 8.05505 17.7918 8.2448 17.7302C8.41701 17.655 8.60289 17.6162 8.79078 17.6162C8.97866 17.6162 9.16452 17.655 9.33673 17.7302C9.57509 17.839 9.77533 18.0169 9.91158 18.2407C10.0478 18.4646 10.1138 18.7241 10.1011 18.9859L12.1757 19.2588L11.6843 20.1324L9.66431 20.0778Z" fill="#231F20"/>
<path d="M10.0444 15.6534L12.4466 17.6188C12.4917 17.5155 12.515 17.404 12.515 17.2912C12.515 17.1785 12.4917 17.067 12.4466 16.9637C12.3426 16.6762 12.1518 16.4282 11.9006 16.2539L11.3001 15.7626C11.0547 15.5393 10.7524 15.3882 10.4265 15.3258C10.2928 15.3342 10.1624 15.3714 10.0444 15.435V15.6534ZM12.5012 18.8745L8.84326 15.9263L9.66221 14.9436C9.79776 14.7486 9.97689 14.5879 10.1854 14.4742C10.3939 14.3604 10.626 14.2969 10.8633 14.2885C11.1209 14.2702 11.3794 14.3044 11.6234 14.3888C11.8673 14.4733 12.0917 14.6063 12.2828 14.7798L12.8834 15.2712C13.2902 15.6085 13.5773 16.068 13.7023 16.5815C13.7337 17.0752 13.5777 17.5626 13.2655 17.9464L12.5012 18.8745Z" fill="#231F20"/>
<path d="M15.5052 12.3227L16.0512 11.9406C16.1011 11.7993 16.1011 11.6451 16.0512 11.5038C16.1052 11.3445 16.1052 11.1718 16.0512 11.0124C15.9038 10.8539 15.7145 10.7403 15.5052 10.6849C15.3459 10.6308 15.1732 10.6308 15.0138 10.6849L14.5225 11.1216L15.5052 12.3227ZM15.9966 12.9233L17.0339 14.2336L16.2695 14.8341L13.376 11.1216L14.6317 10.1389C14.7917 10.0048 14.9783 9.90616 15.1793 9.84958C15.3802 9.79301 15.5909 9.77977 15.7974 9.81074C16.0039 9.84171 16.2014 9.91618 16.3769 10.0292C16.5524 10.1423 16.7019 10.2913 16.8155 10.4665C16.9456 10.6141 17.0422 10.7881 17.0988 10.9766C17.1553 11.1651 17.1704 11.3635 17.1431 11.5584C17.1075 11.7585 17.031 11.9491 16.9182 12.1182C16.8055 12.2874 16.659 12.4313 16.4879 12.5411L15.9966 12.9233Z" fill="#231F20"/>
<path d="M18.8389 10.6847L19.6033 10.2479L18.4022 9.04681L18.8389 10.6847ZM20.2038 10.6847L19.0573 11.6128L19.3303 12.5409L18.4568 13.0323L17.4194 8.28247L18.1838 7.8457L21.7325 11.176L20.9682 11.6128L20.2038 10.6847Z" fill="#231F20"/>
<path d="M22.3297 8.12056H22.8757C22.953 8.09711 23.0234 8.05494 23.0805 7.9978C23.1377 7.94066 23.1798 7.87031 23.2033 7.79299C23.2273 7.6118 23.2273 7.42822 23.2033 7.24703C23.2033 6.81026 22.7665 6.70107 22.4389 6.81026H21.893L22.3297 8.12056ZM23.0941 8.72112H22.6027L23.2579 10.3044L22.3843 10.632L20.9648 6.42809L22.3843 5.88213C22.5649 5.80241 22.7602 5.76123 22.9576 5.76123C23.155 5.76123 23.3503 5.80241 23.5309 5.88213C23.7102 5.94506 23.87 6.05371 23.9945 6.19734C24.119 6.34097 24.2038 6.5146 24.2406 6.70107C24.3756 6.92322 24.4469 7.17817 24.4469 7.43811C24.4469 7.69805 24.3756 7.953 24.2406 8.17516L25.7147 9.64925L24.7866 9.97682L23.0941 8.72112Z" fill="#231F20"/>
<path d="M27.8982 5.11835L26.8063 5.39132L27.6252 9.15844L26.6971 9.37682L25.8782 5.55511L24.7863 5.82809L24.5679 5.06375L27.7344 4.354L27.8982 5.11835Z" fill="#231F20"/>
<path d="M30.7962 6.15405L31.3968 4.02481L32.3795 3.97021L31.3422 7.02758L31.3968 8.72005L30.4686 8.77465L30.3594 7.08218L28.9399 4.1886L29.9773 4.134L30.7962 6.15405Z" fill="#231F20"/>
<path d="M38.274 7.73699C38.2472 7.96225 38.1755 8.17982 38.0629 8.37678C37.9504 8.57373 37.7994 8.74606 37.6189 8.8835C37.232 9.03035 36.8047 9.03035 36.4178 8.8835C36.1862 8.85689 35.9634 8.77947 35.7652 8.65678C35.567 8.5341 35.3984 8.36916 35.2713 8.17376C35.0964 7.67919 35.0964 7.13963 35.2713 6.64507V5.82613C35.3242 5.29702 35.5783 4.80843 35.981 4.46124C36.1872 4.34563 36.4159 4.27602 36.6515 4.25717C36.8871 4.23832 37.124 4.27069 37.3459 4.35205C37.7748 4.40054 38.1672 4.61636 38.4378 4.9526C38.5877 5.37651 38.5877 5.83899 38.4378 6.2629L37.3459 6.15371C37.4343 5.92539 37.4343 5.67229 37.3459 5.44396C37.2046 5.39401 37.0505 5.39401 36.9091 5.44396C36.8151 5.40006 36.7127 5.37731 36.6089 5.37731C36.5051 5.37731 36.4026 5.40006 36.3086 5.44396C36.152 5.71042 36.0586 6.00927 36.0356 6.3175V7.19103C35.978 7.49772 35.978 7.81247 36.0356 8.11916C36.0356 8.11916 36.0356 8.44673 36.527 8.50133C36.7036 8.56378 36.8963 8.56378 37.0729 8.50133C37.1021 8.30221 37.1021 8.0999 37.0729 7.90078L38.274 7.73699Z" fill="#231F20"/>
<path d="M41.6011 8.28365L40.1816 7.84689L39.7994 9.048L41.4919 9.53936L41.2735 10.3037L38.7075 9.48476L40.127 5.0625L42.6384 5.82684L42.42 6.59118L40.7822 6.04523L40.4546 7.13714L41.8195 7.57391L41.6011 8.28365Z" fill="#231F20"/>
<path d="M43.8971 8.77685H44.3338C44.4932 8.83093 44.6659 8.83093 44.8252 8.77685C44.9744 8.6901 45.0899 8.5554 45.1528 8.39468C45.1528 7.95791 45.1528 7.68493 45.1528 7.52115H44.6614L43.8971 8.77685ZM43.8971 9.65038H43.4603L42.8052 10.9607L41.9316 10.5785L44.0063 6.15625L45.3166 6.8114C45.5013 6.88554 45.6691 6.99633 45.8099 7.13707C45.9506 7.27782 46.0614 7.44561 46.1355 7.63034C46.2263 7.79799 46.2739 7.98564 46.2739 8.1763C46.2739 8.36695 46.2263 8.5546 46.1355 8.72225C46.0572 8.96797 45.9052 9.18362 45.7001 9.3399C45.495 9.49619 45.2467 9.58553 44.989 9.59579V11.6704L43.8425 11.6158L43.8971 9.65038Z" fill="#231F20"/>
<path d="M49.9001 10.7395L48.9174 10.0844L46.7336 13.3055L45.9692 12.7596L48.1531 9.53842L47.2249 8.93787L47.6617 8.28271L50.3369 10.0844L49.9001 10.7395Z" fill="#231F20"/>
<path d="M48.9192 15.0531L48.2095 14.3979L51.2668 10.9038L51.9766 11.5044L48.9192 15.0531Z" fill="#231F20"/>
<path d="M52.6278 16.1457L51.6451 15.0538L50.2256 16.3641L49.625 15.6544L53.01 12.4878L54.757 14.3441L54.211 14.89L53.0645 13.6889L52.191 14.5078L53.2283 15.5998L52.6278 16.1457Z" fill="#231F20"/>
<path d="M55.4932 15.3492L51.7739 18.1245L52.329 18.8684L56.0483 16.0931L55.4932 15.3492Z" fill="#231F20"/>
<path d="M55.853 20.6227L55.0886 19.367L54.0513 20.0222L54.9248 21.4963L54.2697 21.933L52.9048 19.5854L56.8903 17.2378L58.2552 19.5308L57.6 19.913L56.7265 18.4389L55.7438 18.9849L56.5081 20.2406L55.853 20.6227Z" fill="#231F20"/>
<path d="M58.5251 21.9317L55.6861 23.1328C55.7105 23.2599 55.7691 23.378 55.8557 23.4743C55.9423 23.5705 56.0536 23.6412 56.1775 23.6787C56.4428 23.7703 56.7311 23.7703 56.9964 23.6787H57.7608C58.0593 23.5675 58.3231 23.3791 58.5251 23.1328C58.6101 22.9227 58.6101 22.6877 58.5251 22.4776V21.9317ZM54.5942 22.5322L59.1803 20.7852L59.617 21.8771C59.8051 22.3316 59.8051 22.8421 59.617 23.2966C59.3719 23.7565 58.9626 24.1074 58.4705 24.2793L57.7608 24.6069C57.2869 24.7925 56.7605 24.7925 56.2867 24.6069C56.0489 24.5195 55.833 24.3815 55.6539 24.2024C55.4747 24.0232 55.3367 23.8073 55.2494 23.5695L54.5942 22.5322Z" fill="#231F20"/>
<path d="M57.6533 41.587L58.0355 40.1675L56.1792 39.6762L56.4522 38.748L60.9291 40.0038L60.2193 42.4606L59.5095 42.2968L59.9463 40.7135L58.7998 40.3859L58.363 41.8054L57.6533 41.587Z" fill="#231F20"/>
<path d="M56.997 45.1352C57.3017 45.2115 57.6205 45.2115 57.9251 45.1352C58.09 45.0961 58.2333 44.9946 58.3249 44.8521C58.4165 44.7096 58.4493 44.5371 58.4165 44.3709C58.2164 44.1225 57.952 43.9337 57.6522 43.8249L56.8878 43.4974C56.6002 43.4337 56.302 43.4337 56.0143 43.4974C55.9012 43.5204 55.7962 43.573 55.7099 43.6497C55.6236 43.7264 55.5591 43.8245 55.523 43.9341C55.4565 44.0201 55.4205 44.1257 55.4205 44.2344C55.4205 44.3431 55.4565 44.4487 55.523 44.5347C55.7095 44.761 55.9552 44.9312 56.2327 45.026L56.997 45.1352ZM55.9051 45.6812C55.4131 45.5093 55.0038 45.1584 54.7586 44.6985C54.6651 44.4927 54.6167 44.2693 54.6167 44.0433C54.6167 43.8173 54.6651 43.5939 54.7586 43.3882C54.8365 43.1663 54.9664 42.9663 55.1373 42.8048C55.3083 42.6434 55.5154 42.5251 55.7413 42.46C56.2161 42.2796 56.7406 42.2796 57.2154 42.46L57.9251 42.7876C58.4362 42.9794 58.8621 43.3472 59.1263 43.8249C59.2362 44.0258 59.2938 44.2511 59.2938 44.4801C59.2938 44.7091 59.2362 44.9344 59.1263 45.1352C59.0484 45.3571 58.9185 45.5571 58.7475 45.7186C58.5766 45.88 58.3695 45.9983 58.1435 46.0634C57.6498 46.2428 57.1086 46.2428 56.6149 46.0634L55.9051 45.6812Z" fill="#231F20"/>
<path d="M55.307 47.866L54.9794 48.3027C54.9411 48.3691 54.9209 48.4444 54.9209 48.5211C54.9209 48.5978 54.9411 48.6731 54.9794 48.7395C55.0383 48.9026 55.1548 49.0386 55.307 49.1217C55.6892 49.3946 56.0167 49.3946 56.1805 49.1217L56.5081 48.6849L55.307 47.866ZM54.3789 47.866V47.4838L52.9594 46.5557L53.7237 45.6821L57.6 48.2481L56.7811 49.5038C56.6943 49.6774 56.5715 49.8306 56.4209 49.9529C56.2703 50.0753 56.0952 50.1642 55.9075 50.2136C55.7353 50.2887 55.5495 50.3275 55.3616 50.3275C55.1737 50.3275 54.9878 50.2887 54.8156 50.2136C54.5782 50.0931 54.3831 49.9032 54.2563 49.6692C54.1295 49.4351 54.0771 49.1679 54.1059 48.9033L52.0312 48.5211L52.5772 47.7022L54.3789 47.866Z" fill="#231F20"/>
<path d="M51.5391 52.4541L51.0478 52.8909C51.0019 53.0328 51.0019 53.1857 51.0478 53.3276C50.984 53.4852 50.984 53.6614 51.0478 53.819C51.2095 53.8563 51.3775 53.8563 51.5391 53.819C51.6055 53.8573 51.6809 53.8775 51.7575 53.8775C51.8342 53.8775 51.9095 53.8573 51.9759 53.819L52.4673 53.3276L51.5391 52.4541ZM50.9932 51.9081L49.8467 50.707L50.5018 49.8335L53.723 53.2184L52.5765 54.3104C52.4439 54.4668 52.2751 54.5883 52.0848 54.6645C51.8945 54.7406 51.6884 54.769 51.4845 54.7471C51.2869 54.7419 51.0926 54.6956 50.914 54.611C50.7354 54.5264 50.5764 54.4054 50.4472 54.2558C50.2961 54.1162 50.1746 53.9475 50.0902 53.7599C50.0058 53.5723 49.9601 53.3695 49.9559 53.1638C50.0129 52.7655 50.2058 52.3991 50.5018 52.1265L50.9932 51.9081Z" fill="#231F20"/>
<path d="M47.8277 58.238L45.9714 55.6174C45.7268 55.2876 45.6103 54.8801 45.6438 54.4709C45.7593 54.0555 46.034 53.7023 46.4082 53.4881C46.733 53.2337 47.1444 53.1162 47.5547 53.1606C47.7594 53.2024 47.9529 53.2874 48.1224 53.4097C48.2918 53.5321 48.4333 53.6891 48.5374 53.8703L50.3391 56.4909L49.5747 57.0369L47.7185 54.4163C47.7185 54.4163 47.7185 54.0341 47.2817 54.0341C47.2138 54.0004 47.1391 53.9829 47.0633 53.9829C46.9875 53.9829 46.9128 54.0004 46.8449 54.0341C46.6927 54.1172 46.5762 54.2531 46.5174 54.4163C46.482 54.5965 46.482 54.7819 46.5174 54.9622L48.3736 57.6374L47.8277 58.238Z" fill="#231F20"/>
<path d="M44.6077 57.5302H44.1163C43.9641 57.6133 43.8476 57.7492 43.7887 57.9123C43.7384 58.0723 43.7384 58.2438 43.7887 58.4037C43.7887 58.8405 44.2255 58.9497 44.5531 58.7859H45.099L44.6077 57.5302ZM43.8433 57.0388H44.2255L43.5157 55.2917L44.3347 54.855L46.3547 59.0589L44.9898 59.714C44.8092 59.7937 44.614 59.8349 44.4166 59.8349C44.2191 59.8349 44.0239 59.7937 43.8433 59.714C43.642 59.6221 43.4623 59.489 43.3156 59.3234C43.1689 59.1578 43.0586 58.9632 42.9917 58.7523C42.9248 58.5414 42.9029 58.3188 42.9273 58.0989C42.9518 57.879 43.022 57.6667 43.1336 57.4756L41.5503 56.1107L42.4784 55.6739L43.8433 57.0388Z" fill="#231F20"/>
<path d="M39.9658 56.7656L40.894 56.438L42.368 60.8603L41.4945 61.1332L39.9658 56.7656Z" fill="#231F20"/>
<path d="M37.1294 61.4582L38.2213 61.1852L37.4024 57.4181L38.3305 57.1997L39.1495 60.9668L40.296 60.7484L40.4597 61.5128L37.2932 62.2225L37.1294 61.4582Z" fill="#231F20"/>
<path d="M34.2347 60.4229L33.6887 62.5522L32.6514 62.6614L33.6887 59.604L33.5795 57.9115L34.5622 57.8569L34.6714 59.5494L36.0909 62.3884L35.0536 62.4976L34.2347 60.4229Z" fill="#231F20"/>
<path d="M28.8293 58.3488C28.652 58.2904 28.4607 58.2904 28.2834 58.3488L28.8839 59.4953C28.9309 59.3349 28.9309 59.1643 28.8839 59.0039C28.9136 58.8415 28.9136 58.675 28.8839 58.5125C28.796 58.4789 28.6988 58.4789 28.6109 58.5125L28.8293 58.3488ZM28.6109 61.3515C28.6819 61.1576 28.6819 60.9449 28.6109 60.751C28.5818 60.8396 28.5818 60.9353 28.6109 61.024C28.5854 61.1316 28.5854 61.2438 28.6109 61.3515C28.6346 61.2436 28.6346 61.1319 28.6109 61.024V61.3515ZM30.085 58.9493C30.1384 59.1459 30.1384 59.3532 30.085 59.5499C29.9101 59.7648 29.6852 59.9335 29.4299 60.0412C29.4431 60.223 29.4431 60.4054 29.4299 60.5872V61.1331C29.3891 61.4503 29.2337 61.7415 28.9931 61.9521C28.8587 62.0238 28.7087 62.0613 28.5563 62.0613C28.404 62.0613 28.254 62.0238 28.1196 61.9521C27.8545 61.893 27.6209 61.7373 27.4644 61.5153C27.4088 61.386 27.3802 61.2466 27.3802 61.1058C27.3802 60.9651 27.4088 60.8257 27.4644 60.6964C27.493 60.5011 27.5672 60.3152 27.681 60.154C27.7949 59.9927 27.9451 59.8606 28.1196 59.7682L27.6282 58.8947C27.5894 59.1114 27.5894 59.3332 27.6282 59.5499H26.9185C26.9533 59.049 27.1443 58.5717 27.4644 58.185L27.0277 57.2568H28.0104V57.5298C28.3476 57.4212 28.7104 57.4212 29.0477 57.5298C29.3925 57.5714 29.7067 57.7481 29.9212 58.0212C30.0336 58.3391 30.0336 58.686 29.9212 59.0039" fill="#231F20"/>
<path d="M22.8802 58.6212H22.2797C22.2197 58.5675 22.1419 58.5378 22.0613 58.5378C21.9807 58.5378 21.903 58.5675 21.8429 58.6212C21.7639 58.6574 21.6937 58.7104 21.6372 58.7764C21.5806 58.8423 21.5391 58.9198 21.5154 59.0034C21.4748 59.0983 21.4539 59.2005 21.4539 59.3037C21.4539 59.4069 21.4748 59.5091 21.5154 59.604C21.5154 59.604 21.5154 59.8769 21.5154 59.9315H22.1159L22.8802 58.6212ZM23.2078 57.9115L23.8084 56.3828L24.6819 56.7104L22.9349 61.0235L21.4608 60.4775C21.2643 60.4129 21.0843 60.3061 20.9334 60.1646C20.7825 60.0232 20.6644 59.8505 20.5872 59.6586C20.471 59.271 20.4885 58.8556 20.6371 58.4793C20.7856 58.1029 21.0565 57.7875 21.4062 57.5839C21.7955 57.4508 22.218 57.4508 22.6073 57.5839L23.2078 57.9115Z" fill="#231F20"/>
<path d="M17.6356 56.2741C17.4536 56.5527 17.3412 56.8711 17.3081 57.2023C17.306 57.3148 17.3356 57.4257 17.3935 57.5222C17.4515 57.6187 17.5353 57.6971 17.6356 57.7482C17.8468 57.8278 18.0796 57.8278 18.2908 57.7482C18.5286 57.5462 18.7315 57.3064 18.8913 57.0385L19.3281 56.3287C19.5226 56.077 19.6367 55.7726 19.6557 55.4552C19.6557 55.4552 19.6557 55.073 19.2735 54.9092C19.1822 54.8565 19.0786 54.8288 18.9732 54.8288C18.8678 54.8288 18.7643 54.8565 18.673 54.9092C18.4212 55.074 18.2147 55.2993 18.0724 55.5644L17.6356 56.2741ZM17.2535 55.2914C17.3703 55.0601 17.5318 54.8542 17.7286 54.6855C17.9253 54.5169 18.1535 54.3888 18.4 54.3087C18.6023 54.2034 18.827 54.1484 19.0551 54.1484C19.2832 54.1484 19.5079 54.2034 19.7103 54.3087C19.9119 54.4212 20.0853 54.5778 20.2177 54.7669C20.3501 54.956 20.4379 55.1727 20.4746 55.4006C20.5199 55.6558 20.5143 55.9174 20.458 56.1703C20.4018 56.4233 20.2961 56.6627 20.147 56.8747L19.7103 57.5298C19.4625 58.0129 19.0584 58.3978 18.5638 58.6217C18.3614 58.727 18.1367 58.782 17.9086 58.782C17.6805 58.782 17.4558 58.727 17.2535 58.6217C17.0465 58.5093 16.8662 58.3536 16.7248 58.1652C16.5835 57.9767 16.4845 57.76 16.4345 57.5298C16.3903 57.0093 16.5251 56.4892 16.8167 56.0557L17.2535 55.2914Z" fill="#231F20"/>
<path d="M12.9416 54.1979L13.8697 54.9076L16.3265 51.9595L17.0362 52.56L14.5795 55.5082L15.453 56.2725L14.9616 56.8731L12.4502 54.7985L12.9416 54.1979Z" fill="#231F20"/>
<path d="M11.85 50.2679L12.8327 51.3599L13.7608 50.5409L12.5597 49.2306L13.1602 48.7393L14.9619 50.7047L11.4678 53.8167L9.7207 51.8512L10.2667 51.3053L11.4132 52.6156L12.2321 51.8512L11.2494 50.7593L11.85 50.2679Z" fill="#231F20"/>
<path d="M10.9221 45.4097L11.4135 46.2286L9.61181 49.013L12.1778 47.3751L12.7238 48.1395L8.79288 50.7055L8.30152 49.8865L10.1032 47.0475L7.53718 48.74L6.99121 47.9757L10.9221 45.4097Z" fill="#231F20"/>
<path d="M7.81105 42.2977C8.00259 42.1992 8.21277 42.1423 8.42785 42.1306C8.64293 42.119 8.85805 42.153 9.05909 42.2303C9.26013 42.3076 9.44256 42.4266 9.59442 42.5793C9.74628 42.7321 9.86414 42.9152 9.94029 43.1167C10.0467 43.3062 10.1115 43.5162 10.1303 43.7327C10.1492 43.9493 10.1216 44.1673 10.0495 44.3724C9.7629 44.8185 9.34244 45.1625 8.84836 45.3551L8.13863 45.6281C7.64407 45.8029 7.1045 45.8029 6.60994 45.6281C6.39146 45.5648 6.18986 45.4535 6.01985 45.3024C5.84984 45.1512 5.7157 44.9641 5.62721 44.7545C5.53475 44.5581 5.48682 44.3438 5.48682 44.1267C5.48682 43.9096 5.53475 43.6952 5.62721 43.4988C5.81729 43.0896 6.14609 42.7608 6.55535 42.5707L6.93752 43.4442C6.93752 43.4442 6.44616 43.7172 6.39157 43.881C6.33758 43.9618 6.30876 44.0568 6.30876 44.154C6.30876 44.2512 6.33758 44.3462 6.39157 44.427C6.43905 44.5238 6.50797 44.6086 6.59311 44.6748C6.67825 44.741 6.77735 44.787 6.88291 44.8091C7.15303 44.8651 7.43174 44.8651 7.70186 44.8091L8.357 44.3724C8.66628 44.2518 8.9457 44.0655 9.17595 43.8264C9.24297 43.6499 9.24697 43.4558 9.18728 43.2767C9.12759 43.0976 9.00786 42.9446 8.84836 42.8437C8.61671 42.7754 8.37029 42.7754 8.13863 42.8437L7.81105 42.2977Z" fill="#231F20"/>
<path d="M6.11549 40.2222L3.93167 40.0584L3.65869 39.0757L6.82524 39.5124L8.46311 39.0757L8.73609 40.0038L7.09821 40.4406L4.53222 42.406L4.25923 41.4233L6.11549 40.2222Z" fill="#231F20"/>
<path d="M7.91777 31.0519C7.90703 31.4813 7.76988 31.8981 7.52348 32.2499C7.27708 32.6018 6.93237 32.8732 6.5325 33.0302C6.13264 33.1871 5.69537 33.2226 5.27541 33.1323C4.85544 33.042 4.47145 32.8298 4.17147 32.5223C3.87149 32.2149 3.66886 31.8257 3.58893 31.4037C3.50899 30.9816 3.5553 30.5453 3.72207 30.1495C3.88884 29.7536 4.16867 29.4157 4.52652 29.1781C4.88437 28.9404 5.30436 28.8136 5.73393 28.8135C6.02536 28.8134 6.31387 28.8716 6.58245 28.9848C6.85102 29.0979 7.09424 29.2637 7.29776 29.4723C7.50128 29.6809 7.66098 29.9281 7.76746 30.1994C7.87394 30.4707 7.92506 30.7606 7.91777 31.0519Z" fill="#231F20"/>
<path d="M61.5335 31.0519C61.5228 31.4813 61.3856 31.8981 61.1392 32.2499C60.8928 32.6018 60.5481 32.8732 60.1482 33.0302C59.7484 33.1871 59.3111 33.2226 58.8911 33.1323C58.4712 33.042 58.0872 32.8298 57.7872 32.5223C57.4872 32.2149 57.2846 31.8257 57.2046 31.4037C57.1247 30.9816 57.171 30.5453 57.3378 30.1495C57.5046 29.7536 57.7844 29.4157 58.1423 29.1781C58.5001 28.9404 58.9201 28.8136 59.3497 28.8135C59.6411 28.8134 59.9296 28.8716 60.1982 28.9848C60.4668 29.0979 60.71 29.2637 60.9135 29.4723C61.117 29.6809 61.2767 29.9281 61.3832 30.1994C61.4897 30.4707 61.5408 30.7606 61.5335 31.0519Z" fill="#231F20"/>
<path d="M46.1336 43.6619C46.5821 43.0862 46.8139 42.3712 46.7887 41.6419V40.7138C46.7617 40.06 46.5329 39.4305 46.1336 38.9121C45.9143 38.6668 45.6447 38.4716 45.3433 38.3397C45.0418 38.2078 44.7155 38.1424 44.3865 38.1478H42.8032V44.3717H44.6049C44.9355 44.3889 45.2655 44.3287 45.5688 44.196C45.872 44.0634 46.1402 43.8618 46.352 43.6074L46.1336 43.6619ZM43.7313 43.6074V38.1478H44.6049C44.8225 38.1494 45.0362 38.2051 45.2268 38.3099C45.4174 38.4148 45.579 38.5654 45.6968 38.7483C45.9687 39.2105 46.1014 39.7413 46.079 40.277V41.6419C46.1079 42.1783 45.9748 42.711 45.6968 43.1706C45.579 43.3535 45.4174 43.5041 45.2268 43.609C45.0362 43.7138 44.8225 43.7696 44.6049 43.7711L43.7313 43.6074Z" fill="#231F20"/>
<path d="M41.7666 44.4255H37.9995V37.874H41.712V38.5838H38.9277V40.713H41.3299V41.3682H38.9277V43.7704H41.7666V44.4255Z" fill="#231F20"/>
<path d="M37.2364 38.5838H35.4894V44.4255H34.6158V38.5838H32.9233V37.874H37.2364V38.5838Z" fill="#231F20"/>
<path d="M31.8857 44.3722C31.4781 44.6791 30.9759 44.8337 30.4662 44.809C29.8992 44.8208 29.3436 44.6484 28.8829 44.3176C28.6696 44.14 28.5033 43.9126 28.3985 43.6556C28.2938 43.3985 28.2539 43.1196 28.2824 42.8435H29.1559C29.1314 43.0263 29.1537 43.2122 29.2205 43.3841C29.2873 43.5559 29.3966 43.708 29.5381 43.8262C29.7931 44.0519 30.126 44.1694 30.4662 44.1538C30.6062 44.1736 30.7488 44.159 30.882 44.1115C31.0151 44.0639 31.1347 43.9848 31.2305 43.8808C31.3408 43.7877 31.4278 43.6701 31.4847 43.5374C31.5416 43.4047 31.5667 43.2606 31.5581 43.1165C31.6413 42.8685 31.6413 42.6001 31.5581 42.3521C31.3022 42.0916 30.982 41.9033 30.63 41.8062C30.1124 41.6715 29.6288 41.4297 29.2105 41.0964C29.0269 40.9427 28.8793 40.7506 28.778 40.5337C28.6767 40.3167 28.6242 40.0802 28.6242 39.8407C28.6242 39.6013 28.6767 39.3648 28.778 39.1478C28.8793 38.9309 29.0269 38.7388 29.2105 38.585C29.5999 38.2398 30.1104 38.0631 30.63 38.0937C31.0671 38.0456 31.508 38.1414 31.8857 38.3667C32.0675 38.543 32.2101 38.7557 32.3042 38.9909C32.3983 39.2261 32.4417 39.4784 32.4316 39.7315H31.5581C31.5196 39.4253 31.3859 39.1388 31.1759 38.9126C31.0697 38.8041 30.942 38.7189 30.801 38.6625C30.66 38.6061 30.5088 38.5797 30.357 38.585C30.0905 38.5012 29.8046 38.5012 29.5381 38.585C29.4621 38.8342 29.4621 39.1003 29.5381 39.3494C29.5292 39.4856 29.5545 39.6219 29.6117 39.7459C29.6689 39.8698 29.7562 39.9775 29.8656 40.0591C30.135 40.3304 30.4757 40.5197 30.8484 40.6051C31.3629 40.7348 31.8338 40.9985 32.2133 41.3694C32.4456 41.5593 32.6268 41.8043 32.7404 42.082C32.854 42.3597 32.8965 42.6614 32.8639 42.9597C32.8314 43.258 32.7249 43.5434 32.554 43.7901C32.3832 44.0367 32.1535 44.2368 31.8857 44.3722Z" fill="#231F20"/>
<path d="M27.6275 44.4255H23.8604V37.874H27.5729V38.5838H24.7885V40.713H27.2453V41.3682H24.7885V43.7704H27.6275V44.4255Z" fill="#231F20"/>
<path d="M23.0958 38.5838H21.4033V44.4255H20.4752V38.5838H18.7827V37.874H23.0958V38.5838Z" fill="#231F20"/>
<path d="M20.3134 33.8902V22.3159H18.5117V35.2551H25.3908V33.8902H20.3134Z" fill="#231F20"/>
<path d="M44.1653 34.3252C44.531 33.9765 44.814 33.5503 44.9935 33.0779C45.173 32.6055 45.2444 32.099 45.2026 31.5954C45.2116 30.8768 45.0022 30.1724 44.6021 29.5754C44.4459 29.2791 44.2203 29.025 43.9446 28.8348C43.6689 28.6447 43.3512 28.5241 43.0188 28.4834C43.5457 28.2438 43.9984 27.8666 44.3291 27.3915C44.619 26.9146 44.7702 26.3663 44.7659 25.8082C44.8114 25.3206 44.7411 24.8291 44.5609 24.3738C44.3806 23.9184 44.0954 23.512 43.7285 23.1876C42.8945 22.6286 41.8842 22.3954 40.8896 22.5325H37.3408V35.2533H41.4355C42.4479 35.3094 43.4436 34.9775 44.2199 34.3252H44.1653ZM39.0879 27.9921V23.679H40.8896C41.1685 23.6559 41.4492 23.6926 41.7129 23.7868C41.9765 23.8809 42.217 24.0303 42.4182 24.225C42.6172 24.4345 42.7688 24.6842 42.863 24.9574C42.9572 25.2305 42.9917 25.5206 42.9642 25.8082C42.9935 26.3776 42.8193 26.9388 42.4728 27.3915C42.2843 27.5723 42.0618 27.7136 41.818 27.8074C41.5743 27.9011 41.3144 27.9453 41.0533 27.9375L39.0879 27.9921ZM39.0879 33.943V29.1932H41.5993C41.8634 29.1797 42.1267 29.2326 42.3651 29.347C42.6035 29.4615 42.8095 29.6338 42.9642 29.8483C43.2674 30.3795 43.4186 30.984 43.401 31.5954C43.4474 31.9301 43.4176 32.2709 43.3136 32.5924C43.2095 32.9139 43.0341 33.2076 42.8004 33.4517C42.6146 33.6548 42.3859 33.8141 42.131 33.918C41.876 34.0218 41.6012 34.0677 41.3263 34.0522L39.0879 33.943Z" fill="#231F20"/>
<path d="M30.1359 22.5342L26.4233 35.255H28.225L29.2077 31.9793H33.3024L34.2305 35.255H36.0868L31.8829 22.5342H30.1359ZM31.0094 25.1002L32.6473 30.5598H29.3169L30.9548 25.1002H31.0094Z" fill="#231F20"/>
</svg>
