<svg width="136" height="23" viewBox="0 0 136 23" fill="none" xmlns="http://www.w3.org/2000/svg">
<g clip-path="url(#clip0_29_40)">
<path d="M13.5078 7.60354C14.2968 7.61599 15.0859 7.58418 15.8709 7.5083V8.0956C15.4206 8.23123 15.0198 8.48429 14.7145 8.82576C14.2851 9.35873 13.9614 9.96108 13.7592 10.6035L9.25102 22.6512C8.91606 22.6346 8.58042 22.6346 8.24547 22.6512H7.25668L1.77646 9.76227C1.30721 8.66703 0.720641 8.17497 0 8.17497V7.5083C1.42452 7.60354 2.88256 7.65116 4.35736 7.65116C5.83216 7.65116 7.0053 7.65116 8.37954 7.5083V8.12735C7.95014 8.09349 7.5185 8.09349 7.08909 8.12735C6.96241 8.14342 6.84212 8.18973 6.73951 8.26192C6.63691 8.33411 6.55536 8.42982 6.50253 8.54005C6.39199 8.90294 6.4217 9.29128 6.58632 9.63529L10.0555 18.5559L12.3012 12.6988C12.6067 11.948 12.7766 11.1538 12.8039 10.3496C12.8327 10.0576 12.7954 9.76315 12.6946 9.48588C12.5938 9.20861 12.4317 8.95488 12.2192 8.7416C12.0067 8.52832 11.7487 8.36039 11.4623 8.249C11.1758 8.1376 10.8677 8.08531 10.5582 8.0956V7.5083C11.5135 7.57179 12.5023 7.60354 13.5078 7.60354Z" fill="#4D4C4C"/>
<path d="M21.9878 21.1586C22.1003 21.4381 22.3225 21.6656 22.6079 21.7935C22.9744 21.9351 23.3689 22.0001 23.7643 21.984V22.5872C21.7197 22.5078 20.4125 22.4761 19.6751 22.4761C18.9377 22.4761 17.597 22.4761 15.3848 22.5872V21.984C15.7857 22.0014 16.1859 21.9364 16.5579 21.7935C16.8434 21.6656 17.0656 21.4381 17.178 21.1586C17.3135 20.748 17.3758 20.3188 17.3623 19.8888V10.6824C17.4113 10.0059 17.2605 9.32987 16.9266 8.73003C16.7423 8.51653 16.505 8.34967 16.2359 8.2444C15.9669 8.13913 15.6744 8.09874 15.3848 8.12685V7.50781C16.0195 7.57037 16.6572 7.60216 17.2953 7.60304C18.8036 7.63458 20.3106 7.50142 21.7867 7.20622V19.9046C21.7712 20.3308 21.8394 20.756 21.9878 21.1586ZM21.418 0.603044C21.6669 0.793551 21.8659 1.03591 21.9996 1.31124C22.1334 1.58656 22.1981 1.88741 22.189 2.19035C22.1956 2.49292 22.1297 2.79299 21.9962 3.06794C21.8626 3.3429 21.665 3.58556 21.418 3.77765C20.838 4.19682 20.1185 4.40519 19.3902 4.36495C18.6512 4.40723 17.9205 4.19904 17.3288 3.77765C17.0868 3.58251 16.8936 3.33887 16.7632 3.06436C16.6328 2.78985 16.5684 2.49131 16.5747 2.19035C16.566 1.88905 16.6293 1.58978 16.7599 1.31491C16.8905 1.04005 17.085 0.796696 17.3288 0.603044C17.9182 0.175998 18.6492 -0.0378792 19.3902 -0.000131005C20.1204 -0.0344395 20.8396 0.179474 21.418 0.603044Z" fill="#4D4C4C"/>
<path d="M31.8422 8.38058C31.6027 8.13622 31.308 7.94643 30.98 7.82546C30.652 7.7045 30.2993 7.6555 29.9484 7.68216C29.5071 7.70361 29.0718 7.78927 28.658 7.93613C28.2902 8.04438 27.9525 8.22872 27.6692 8.47581C28.1947 8.62336 28.6616 8.91632 29.0099 9.31708C29.3383 9.73334 29.5095 10.2421 29.4959 10.7615C29.4978 11.1424 29.3875 11.5162 29.1775 11.8409C28.9643 12.1642 28.6633 12.4274 28.306 12.6028C27.8973 12.7848 27.4504 12.877 26.9988 12.8726C26.7003 12.8855 26.4025 12.8352 26.1271 12.7253C25.8517 12.6155 25.6056 12.4489 25.4067 12.2377C25.0082 11.7968 24.7989 11.2304 24.8201 10.6504C24.8318 10.1336 24.9946 9.63002 25.2905 9.19566C25.5864 8.76129 26.0037 8.4132 26.496 8.1901C27.9479 7.49325 29.5619 7.15476 31.1886 7.20597C31.9921 7.13235 32.803 7.21093 33.5741 7.43711C34.3452 7.6633 35.0611 8.03258 35.68 8.52343C36.1252 8.96246 36.4277 9.51345 36.5515 10.1107C36.743 10.892 36.8497 11.6898 36.8699 12.4917V20.4282C36.8461 20.7678 36.8975 21.1084 37.0208 21.4282C37.0644 21.5182 37.1358 21.5937 37.2255 21.6446C37.3152 21.6956 37.4191 21.7198 37.5235 21.7139C37.9513 21.6771 38.3532 21.5035 38.6631 21.2218L38.9816 21.7139C38.5293 22.0815 38.0055 22.3619 37.4397 22.5393C36.7976 22.7169 36.131 22.8025 35.4622 22.7933C35.0598 22.8294 34.6539 22.7891 34.2683 22.6746C33.8826 22.5601 33.525 22.3738 33.2164 22.1266C32.9806 21.9056 32.7962 21.6404 32.6749 21.3479C32.5537 21.0554 32.4984 20.7421 32.5126 20.4282C32.0276 21.1944 31.3249 21.8159 30.4847 22.2218C29.6786 22.6058 28.7893 22.8069 27.887 22.8091C26.8883 22.8327 25.9135 22.5174 25.1386 21.9203C24.7772 21.6154 24.4931 21.2373 24.3074 20.8141C24.1217 20.3909 24.0392 19.9334 24.066 19.4758C24.0535 19.0081 24.1422 18.5429 24.3266 18.1088C24.5111 17.6748 24.7874 17.2811 25.1386 16.952C26.0587 16.1609 27.1433 15.5608 28.3228 15.1901L29.8814 14.6187C30.59 14.4076 31.2538 14.0798 31.8422 13.6504C32.0172 13.5184 32.1602 13.3523 32.2614 13.1633C32.3626 12.9743 32.4197 12.7669 32.4288 12.5552V10.2853C32.4813 9.60429 32.273 8.92811 31.8422 8.38058ZM31.8422 14.3964C31.5405 14.6187 31.1215 14.8885 30.5685 15.2218C29.9635 15.6075 29.4404 16.0975 29.0267 16.6663C28.6363 17.266 28.4437 17.9624 28.4736 18.6663C28.4297 19.2752 28.6202 19.8786 29.0099 20.3647C29.1826 20.5463 29.395 20.69 29.6324 20.786C29.8697 20.8819 30.1262 20.9277 30.3841 20.9203C30.8114 20.9069 31.228 20.7906 31.5945 20.5823C31.9611 20.3739 32.2655 20.0805 32.479 19.7298V13.7457C32.2745 14.001 32.025 14.2212 31.7416 14.3964H31.8422Z" fill="#4D4C4C"/>
<path d="M51.7523 7.9363C52.6797 7.38285 53.7567 7.09613 54.8527 7.11091C55.4614 7.05873 56.0749 7.12937 56.6526 7.31816C57.2304 7.50694 57.7593 7.80959 58.2046 8.20615C58.6013 8.6274 58.8833 9.1342 59.0258 9.68234C59.2148 10.4521 59.2992 11.2415 59.2771 12.0315V19.8252C59.2516 20.2599 59.3319 20.6944 59.5118 21.095C59.6609 21.3896 59.9254 21.6174 60.2492 21.73C60.6908 21.8735 61.1568 21.9381 61.6234 21.9204V22.5236C59.7296 22.4442 58.5062 22.4125 57.9197 22.4125C57.3331 22.4125 56.2437 22.4125 54.5678 22.5236V21.9204C54.9743 21.9377 55.3799 21.8727 55.7577 21.73C56.0475 21.6026 56.2752 21.3756 56.3946 21.095C56.5451 20.6874 56.6133 20.2567 56.5957 19.8252V11.4601C56.6038 10.8681 56.542 10.2772 56.4113 9.69821C56.3182 9.24523 56.0639 8.83621 55.6907 8.53948C55.2099 8.19907 54.6123 8.04061 54.0148 8.09503C53.2056 8.08811 52.4164 8.33353 51.7691 8.79345C51.0854 9.29003 50.558 9.95417 50.244 10.7141C49.8723 11.5693 49.6897 12.4878 49.7077 13.4125V19.8887C49.6901 20.3202 49.7583 20.7509 49.9088 21.1585C49.9649 21.2993 50.0501 21.4279 50.1595 21.537C50.2688 21.646 50.4001 21.7332 50.5457 21.7934C50.9235 21.9362 51.3291 22.0011 51.7356 21.9839V22.5871C50.0596 22.5077 48.8698 22.476 48.2832 22.476C47.6966 22.476 46.4732 22.476 44.5962 22.5871V21.9839C45.0627 22.0001 45.5284 21.9356 45.9704 21.7934C46.2915 21.6766 46.5546 21.4501 46.7078 21.1585C46.8769 20.7549 46.9568 20.3227 46.9425 19.8887V10.7617C47.0013 10.0695 46.8188 9.37805 46.4229 8.79345C46.1845 8.57125 45.8969 8.40191 45.5811 8.29761C45.2652 8.19331 44.9288 8.15665 44.5962 8.19027V7.57123C45.2256 7.62899 45.8577 7.65548 46.49 7.65059C47.578 7.68196 48.6644 7.54798 49.7077 7.25377V10.6823C50.0655 9.58522 50.7813 8.62381 51.7523 7.9363Z" fill="#4D4C4C"/>
<path d="M70.4886 8.38065C69.8882 7.93692 69.137 7.71672 68.3769 7.76161C67.8246 7.70846 67.2668 7.77358 66.7446 7.95217C66.2224 8.13076 65.7493 8.41824 65.3603 8.79335C65.764 8.88681 66.1236 9.10454 66.3826 9.4124C66.6654 9.73806 66.8142 10.1496 66.8016 10.5711C66.8136 10.786 66.7764 11.0009 66.6925 11.2009C66.6086 11.4009 66.48 11.5813 66.3156 11.7299C65.9482 12.0275 65.4745 12.1809 64.9916 12.1584C64.7466 12.1799 64.4998 12.1449 64.2721 12.0565C64.0445 11.968 63.8429 11.8288 63.6844 11.6505C63.3729 11.2833 63.2175 10.8191 63.2487 10.3489C63.282 9.91474 63.4319 9.49584 63.6842 9.13194C63.9364 8.76803 64.2826 8.47118 64.6899 8.26954C65.2595 7.92366 65.881 7.66143 66.5334 7.49177C67.3343 7.27432 68.164 7.1674 68.997 7.17431C69.751 7.16251 70.5025 7.25884 71.226 7.46002C71.7814 7.61957 72.2914 7.89635 72.7176 8.26954C73.1871 8.70566 73.5231 9.25423 73.6896 9.85684C73.8964 10.6724 73.9866 11.5106 73.9577 12.3489V20.46C73.9288 20.8215 74.0041 21.1836 74.1756 21.5076C74.2532 21.6192 74.361 21.709 74.4878 21.7677C74.6145 21.8263 74.7556 21.8516 74.8962 21.841C75.1403 21.8372 75.3805 21.7831 75.6001 21.6822C75.8441 21.5498 76.0742 21.3957 76.2872 21.2219L76.6392 21.714C76.2705 21.9838 75.9688 22.1743 75.7342 22.3172C75.4706 22.4648 75.1893 22.582 74.8962 22.6664C74.5463 22.7536 74.1856 22.7963 73.8237 22.7934C73.4451 22.8346 73.0615 22.7914 72.7037 22.6674C72.3458 22.5434 72.0234 22.3419 71.7623 22.0791C71.348 21.5359 71.1412 20.8753 71.1757 20.206C70.6863 21.0529 69.9543 21.7517 69.0641 22.2219C68.2673 22.599 67.3906 22.7998 66.4999 22.8092C65.8288 22.8127 65.1631 22.6942 64.5391 22.46C63.968 22.2319 63.4749 21.8583 63.1146 21.3807C62.748 20.8205 62.5537 20.1746 62.5537 19.5156C62.5537 18.8566 62.748 18.2106 63.1146 17.6505C63.5528 17.0776 64.1269 16.6101 64.7905 16.2854C65.6889 15.7982 66.618 15.3635 67.5725 14.9838L69.0473 14.4283C69.6556 14.2107 70.2218 13.8997 70.7232 13.5076C70.8817 13.387 71.0104 13.235 71.1001 13.0622C71.1899 12.8895 71.2386 12.7002 71.2428 12.5076V10.6822C71.2908 10.2701 71.2487 9.85301 71.1189 9.457C70.9892 9.06099 70.7746 8.69458 70.4886 8.38065ZM70.4886 14.3013C70.1367 14.4918 69.416 14.841 68.2932 15.3648C67.7705 15.5902 67.2712 15.8612 66.8016 16.1743C66.3701 16.4756 66.0103 16.8596 65.7458 17.3013C65.4613 17.8424 65.3286 18.4436 65.3603 19.0473C65.3324 19.3911 65.3773 19.7367 65.4925 20.0638C65.6076 20.3909 65.7906 20.6929 66.0307 20.9521C66.2654 21.1726 66.5462 21.3443 66.8549 21.4564C67.1636 21.5684 67.4937 21.6183 67.8239 21.6029C68.5582 21.5645 69.268 21.3394 69.8785 20.9511C70.489 20.5628 70.9777 20.0258 71.293 19.3965V13.6981C71.0702 13.9506 70.7893 14.1515 70.4718 14.2854L70.4886 14.3013Z" fill="#4D4C4C"/>
<path d="M84.6664 7.60299V8.19029H80.1079V19.476C80.0464 20.1413 80.2235 20.8068 80.6107 21.3649C80.79 21.5662 81.0172 21.7244 81.2736 21.8265C81.5299 21.9286 81.8082 21.9716 82.0855 21.9522C82.4057 21.9634 82.7242 21.9031 83.0153 21.7763C83.3064 21.6495 83.562 21.4596 83.7614 21.222C84.3282 20.5133 84.723 19.6949 84.9178 18.8252L85.4708 19.0474C84.9848 21.7458 83.6441 23.0792 81.4822 23.0792C80.9133 23.0902 80.3466 23.0097 79.8063 22.8411C79.3494 22.6902 78.9362 22.4402 78.5996 22.1109C78.1509 21.6649 77.8282 21.119 77.6611 20.5236C77.4648 19.701 77.3748 18.8589 77.3929 18.0157V8.19029H74.3931V7.60299H77.3427V3.17442C78.2822 3.18231 79.2165 3.04285 80.1079 2.76172V7.60299H84.6664Z" fill="#4D4C4C"/>
<path d="M99.9179 21.3968C100.153 21.6228 100.441 21.7946 100.757 21.8992C101.074 22.0038 101.412 22.0382 101.745 21.9999V22.619C101.11 22.5616 100.472 22.5351 99.8341 22.5396C98.7499 22.5009 97.6669 22.6405 96.6331 22.9523V19.5079C96.2466 20.5954 95.5149 21.5433 94.5382 22.2222C93.6632 22.7845 92.6292 23.0833 91.5718 23.0793C90.9861 23.115 90.3989 23.0346 89.8477 22.8433C89.2966 22.6519 88.7936 22.3539 88.3709 21.9682C87.9845 21.5447 87.714 21.0378 87.5832 20.492C87.4121 19.7251 87.3334 18.9423 87.3486 18.1587V10.7618C87.4123 10.0714 87.2357 9.3801 86.8458 8.79359C86.6087 8.56952 86.3214 8.39894 86.0051 8.29451C85.6889 8.19009 85.3518 8.15451 85.019 8.19041V7.57137C85.654 7.6288 86.2917 7.65529 86.9296 7.65073C88.0122 7.6826 89.0931 7.5486 90.1306 7.25391V18.7142C90.1215 19.3146 90.1663 19.9147 90.2646 20.5079C90.3513 20.9395 90.5801 21.334 90.9182 21.6349C91.3595 21.9516 91.9081 22.1041 92.4601 22.0634C93.2391 22.0738 93.9976 21.8269 94.6052 21.365C95.2641 20.8594 95.7772 20.2042 96.0968 19.4603C96.4606 18.6083 96.6428 17.6966 96.6331 16.7777V10.7618C96.6919 10.0696 96.5094 9.37819 96.1136 8.79359C95.8751 8.5714 95.5876 8.40205 95.2717 8.29775C94.9558 8.19345 94.6194 8.15679 94.2868 8.19041V7.57137C94.9218 7.62948 95.5595 7.65598 96.1974 7.65073C97.2799 7.68095 98.3605 7.54698 99.3983 7.25391V19.4444C99.3316 20.1322 99.5149 20.821 99.9179 21.3968Z" fill="#4D4C4C"/>
<path d="M108.8 9.14265C109.22 8.58256 109.749 8.10317 110.358 7.72995C110.925 7.36196 111.598 7.16801 112.286 7.17439C112.79 7.16162 113.291 7.26512 113.744 7.47598C114.148 7.67231 114.494 7.96157 114.749 8.31725C114.981 8.65796 115.103 9.05494 115.101 9.46011C115.123 9.93725 114.949 10.404 114.615 10.7617C114.462 10.9392 114.267 11.0804 114.046 11.1741C113.824 11.2678 113.583 11.3113 113.341 11.3014C112.915 11.3083 112.501 11.1607 112.185 10.8887C112.024 10.7512 111.897 10.5817 111.813 10.3924C111.729 10.2031 111.69 9.99861 111.699 9.79344C111.71 9.46391 111.814 9.1432 112 8.86424C112.185 8.58528 112.446 8.35813 112.755 8.20614C112.68 8.10753 112.578 8.03027 112.459 7.9827C112.341 7.93514 112.212 7.91909 112.084 7.9363C111.676 7.93673 111.271 8.01414 110.894 8.16401C110.517 8.31389 110.176 8.53324 109.889 8.80931C109.217 9.4214 108.691 10.163 108.347 10.9839C108.001 11.7528 107.814 12.577 107.794 13.4125V19.5871C107.751 19.9397 107.804 20.297 107.947 20.6248C108.091 20.9527 108.321 21.2403 108.615 21.4601C109.359 21.8572 110.21 22.0393 111.062 21.9839V22.5871C108.532 22.5077 106.956 22.476 106.319 22.476C105.682 22.476 104.643 22.476 102.683 22.5871V21.9839C103.149 22.0016 103.615 21.937 104.057 21.7934C104.381 21.6808 104.645 21.453 104.794 21.1585C104.963 20.7549 105.043 20.3227 105.029 19.8887V10.7617C105.088 10.0694 104.905 9.37804 104.509 8.79344C104.272 8.57032 103.984 8.40036 103.668 8.296C103.352 8.19164 103.015 8.15551 102.683 8.19027V7.57122C103.318 7.62934 103.955 7.65583 104.593 7.65058C105.676 7.68245 106.757 7.54845 107.794 7.25376V10.9046C108.043 10.2765 108.381 9.68374 108.8 9.14265Z" fill="#4D4C4C"/>
<path d="M127.369 20.9999C126.805 21.6359 126.1 22.1453 125.302 22.4912C124.505 22.8371 123.637 23.0108 122.76 22.9999C121.436 23.026 120.13 22.7016 118.99 22.0634C117.916 21.4206 117.065 20.4934 116.543 19.3968C115.942 18.1571 115.633 16.8084 115.638 15.4444C115.621 13.9579 115.923 12.4837 116.526 11.111C117.027 9.92538 117.883 8.90455 118.99 8.17453C120.078 7.49622 121.358 7.14744 122.66 7.17453C123.449 7.12655 124.24 7.24391 124.975 7.51826C125.711 7.79262 126.374 8.21721 126.917 8.76183C128.015 10.1222 128.551 11.8154 128.425 13.5237H118.772C118.698 14.1402 118.664 14.7605 118.671 15.3809C118.646 16.533 118.868 17.6779 119.325 18.746C119.684 19.6005 120.259 20.3583 121.001 20.9523C121.651 21.4373 122.452 21.7052 123.28 21.7142C124.261 21.7325 125.224 21.4612 126.035 20.9378C126.845 20.4145 127.464 19.6651 127.805 18.7936L128.425 19.0317C128.217 19.7485 127.858 20.4181 127.369 20.9999ZM125.191 10.365C125.031 9.65816 124.691 8.9989 124.202 8.44437C123.995 8.21602 123.738 8.03363 123.448 7.91017C123.158 7.78672 122.843 7.72523 122.526 7.73009C121.917 7.74377 121.329 7.94429 120.85 8.30152C120.254 8.77339 119.794 9.37917 119.509 10.0634C119.103 11.0091 118.865 12.0122 118.805 13.0317H125.509C125.522 12.1327 125.409 11.236 125.174 10.365H125.191Z" fill="#4D4C4C"/>
<path d="M135.28 19.0477C135.508 19.2631 135.689 19.5191 135.813 19.801C135.937 20.0829 136.001 20.3853 136.001 20.6906C136.001 20.9959 135.937 21.2982 135.813 21.5802C135.689 21.8621 135.508 22.1181 135.28 22.3334C134.728 22.725 134.058 22.9366 133.369 22.9366C132.68 22.9366 132.01 22.725 131.459 22.3334C131.23 22.1306 131.049 21.8843 130.928 21.6108C130.807 21.3373 130.748 21.0427 130.755 20.7461C130.747 20.4494 130.805 20.1545 130.926 19.8809C131.048 19.6072 131.229 19.3611 131.459 19.1588C132.01 18.7673 132.68 18.5557 133.369 18.5557C134.058 18.5557 134.728 18.7673 135.28 19.1588V19.0477Z" fill="#1FA773"/>
</g>
<defs>
<clipPath id="clip0_29_40">
<rect width="136" height="23" fill="white"/>
</clipPath>
</defs>
</svg>
