<svg width="65" height="66" viewBox="0 0 65 66" fill="none" xmlns="http://www.w3.org/2000/svg">
<path d="M31.9397 40.6832C31.7061 40.2125 31.5231 39.7184 31.3938 39.2091C31.441 39.9584 31.6068 40.6955 31.8851 41.3929C31.7348 42.5882 31.263 43.7203 30.5202 44.6687C30.4829 43.1913 30.2628 41.7243 29.8651 40.301C30.1514 39.4024 30.2626 38.4571 30.1926 37.5166C30.1196 38.1858 29.9731 38.8449 29.7559 39.482C29.9561 38.2143 30.2854 36.9703 30.7386 35.7695C31.5585 37.2755 31.9724 38.9688 31.9397 40.6832Z" fill="#231F20"/>
<path d="M32.4282 48.3801C31.2468 47.2551 30.3713 45.8478 29.8842 44.2909C29.3971 42.734 29.3143 41.0787 29.6438 39.481C29.8637 38.8259 30.0102 38.1484 30.0806 37.4609C30.1576 38.4196 30.0464 39.384 29.753 40.2999C30.1508 41.7232 30.3708 43.1902 30.4082 44.6676C31.151 43.7192 31.6227 42.5871 31.773 41.3918C31.9255 41.8403 32.1079 42.2781 32.319 42.7021C32.1197 44.5165 32.1197 46.3473 32.319 48.1617" fill="#231F20"/>
<path d="M32.4272 12.4577C28.348 12.4363 24.3539 13.6242 20.9495 15.8716C17.545 18.1189 14.883 21.3247 13.2996 25.0842C11.7161 28.8436 11.2824 32.988 12.0531 36.9939C12.8239 40.9997 14.7645 44.6872 17.6299 47.5907C20.4953 50.4942 24.1569 52.4834 28.1521 53.3069C32.1474 54.1305 36.2972 53.7516 40.0772 52.218C43.8573 50.6844 47.098 48.0649 49.3901 44.6904C51.6822 41.316 52.9228 37.3379 52.9552 33.2588C52.9843 27.7803 50.8396 22.5139 46.9914 18.6145C43.1431 14.7151 37.9056 12.501 32.4272 12.4577ZM32.4272 55.0971C28.108 55.0971 23.8858 53.8163 20.2945 51.4167C16.7032 49.017 13.9041 45.6064 12.2512 41.6159C10.5983 37.6255 10.1659 33.2345 11.0085 28.9983C11.8511 24.7621 13.931 20.8709 16.9852 17.8167C20.0393 14.7626 23.9305 12.6827 28.1668 11.84C32.403 10.9974 36.794 11.4299 40.7844 13.0828C44.7748 14.7357 48.1855 17.5347 50.5851 21.126C52.9848 24.7173 54.2656 28.9395 54.2656 33.2588C54.2656 39.0506 51.9647 44.6053 47.8692 48.7008C43.7738 52.7963 38.2191 55.0971 32.4272 55.0971Z" fill="#231F20"/>
<path d="M12.666 20.1016L12.1201 20.9205L8.89892 18.955L8.73514 19.9378L8.02539 19.501L8.35297 17.5901L8.40756 17.481L12.666 20.1016Z" fill="#231F20"/>
<path d="M12.7201 15.0761L11.9558 14.5847C11.8957 14.531 11.818 14.5013 11.7374 14.5013C11.6568 14.5013 11.5791 14.531 11.519 14.5847C11.519 14.5847 11.519 15.1307 12.0104 15.622L12.9385 16.441C13.138 16.6527 13.3799 16.8201 13.6483 16.9323C13.7171 16.9901 13.8041 17.0218 13.8939 17.0218C13.9838 17.0218 14.0708 16.9901 14.1396 16.9323C14.178 16.8659 14.1981 16.7906 14.1981 16.7139C14.1981 16.6373 14.178 16.562 14.1396 16.4956C13.9982 16.2464 13.8133 16.0245 13.5937 15.8404L12.7201 15.0761ZM14.085 15.0761C14.5118 15.4165 14.8336 15.8708 15.0132 16.3864C15.065 16.594 15.0673 16.8108 15.0199 17.0195C14.9725 17.2281 14.8766 17.4227 14.7402 17.5875C14.6048 17.7403 14.4356 17.8594 14.246 17.9352C14.0564 18.0111 13.8517 18.0415 13.6483 18.0242C13.1225 17.912 12.634 17.6677 12.2288 17.3145L11.519 16.8777C11.0396 16.47 10.7125 15.9119 10.5909 15.2944C10.5351 15.0917 10.5361 14.8775 10.5939 14.6753C10.6517 14.473 10.764 14.2906 10.9185 14.1479C11.0398 13.9785 11.2071 13.8474 11.4006 13.77C11.5941 13.6926 11.8057 13.6722 12.0104 13.7112C12.5444 13.7987 13.0394 14.0462 13.4299 14.4209L14.085 15.0761Z" fill="#231F20"/>
<path d="M16.0489 12.0188C15.886 11.7846 15.6827 11.5812 15.4484 11.4183C15.3796 11.3605 15.2926 11.3288 15.2027 11.3288C15.1129 11.3288 15.0259 11.3605 14.957 11.4183C14.957 11.4183 14.957 12.0188 15.2846 12.5648L16.0489 13.5475C16.2239 13.7905 16.4468 13.9949 16.7041 14.1481C16.7641 14.2018 16.8419 14.2315 16.9225 14.2315C17.0031 14.2315 17.0808 14.2018 17.1409 14.1481C17.1409 14.1481 17.1409 14.1481 17.1409 13.7113C17.0547 13.4429 16.9048 13.1994 16.7041 13.0015L16.0489 12.0188ZM17.4684 12.0188C17.8465 12.4224 18.0773 12.9418 18.1236 13.4929C18.1455 13.6967 18.1171 13.9028 18.0409 14.0932C17.9648 14.2835 17.8432 14.4523 17.6868 14.5848C17.4999 14.6764 17.2944 14.7241 17.0863 14.7241C16.8781 14.7241 16.6727 14.6764 16.4857 14.5848C15.9913 14.3939 15.5575 14.0733 15.23 13.6567L14.684 12.8924C14.3093 12.5019 14.0619 12.0069 13.9743 11.4729C13.9678 11.2655 14.0087 11.0594 14.0939 10.8702C14.179 10.6809 14.3062 10.5136 14.4657 10.3809C14.6499 10.2806 14.8564 10.228 15.0662 10.228C15.276 10.228 15.4825 10.2806 15.6668 10.3809C16.1538 10.5854 16.571 10.9268 16.8679 11.3637L17.4684 12.0188Z" fill="#231F20"/>
<path d="M20.8564 10.2718C20.7502 10.5345 20.7502 10.8281 20.8564 11.0908L20.9656 11.4184C21.0985 11.5023 21.2471 11.5581 21.4024 11.5821C21.5141 11.6318 21.635 11.6575 21.7573 11.6575C21.8795 11.6575 22.0004 11.6318 22.1121 11.5821C22.2361 11.5446 22.3473 11.4739 22.4339 11.3777C22.5205 11.2814 22.5792 11.1634 22.6035 11.0362C22.7008 10.7907 22.7008 10.5173 22.6035 10.2718C22.5604 10.1451 22.4888 10.0299 22.3941 9.93527C22.2995 9.84061 22.1843 9.76897 22.0575 9.72589C21.9374 9.67162 21.8072 9.64355 21.6754 9.64355C21.5436 9.64355 21.4133 9.67162 21.2932 9.72589C21.1867 9.78191 21.093 9.85932 21.0178 9.95326C20.9426 10.0472 20.8877 10.1557 20.8564 10.2718Z" fill="#231F20"/>
<path d="M19.9829 12.2373H20.4743L20.5289 7.86963H19.9829V12.2373Z" fill="#231F20"/>
<path d="M29.5885 9.61733L28.6057 9.83571L26.5857 6.88754L27.1863 10.0541L26.2035 10.2725L25.2754 5.41345L26.2581 5.19507L28.3328 8.14324L27.6776 4.92209L28.6603 4.7583L29.5885 9.61733Z" fill="#231F20"/>
<path d="M32.4324 7.70864H33.3605L32.76 5.96158L32.4324 7.70864ZM33.5789 8.52758H32.214V9.5103H31.1221L32.76 4.59668H33.6881L35.1622 9.5649H34.0703L33.5789 8.52758Z" fill="#231F20"/>
<path d="M39.1447 6.23239L37.9436 5.95941L37.1792 10.0541L36.1965 9.83571L36.9609 5.79562L35.7598 5.57724L35.9235 4.7583L39.3085 5.41345L39.1447 6.23239Z" fill="#231F20"/>
<path d="M44.2783 7.16253L43.0226 10.3291C42.9554 10.5309 42.8483 10.717 42.7076 10.8765C42.5669 11.036 42.3955 11.1654 42.2036 11.2572C41.7823 11.4217 41.3146 11.4217 40.8933 11.2572C40.4645 11.1051 40.1119 10.7917 39.9106 10.3837C39.7772 9.97575 39.7772 9.53592 39.9106 9.12798L41.2209 5.96143L42.149 6.289L40.8933 9.51016C40.8425 9.70711 40.8425 9.91375 40.8933 10.1107C40.8933 10.1107 40.8933 10.3837 41.2755 10.4383C41.3611 10.4775 41.4542 10.4979 41.5485 10.4979C41.6427 10.4979 41.7358 10.4775 41.8215 10.4383C41.9665 10.2804 42.0779 10.0946 42.149 9.89233L43.3501 6.78036L44.2783 7.16253Z" fill="#231F20"/>
<path d="M45.8629 10.6541L46.3543 10.9817C46.5136 11.0357 46.6863 11.0357 46.8457 10.9817C46.8457 10.9817 46.8457 10.9817 47.2824 10.5995C47.7192 10.2173 47.2824 9.88974 47.2824 9.67135L46.7911 9.34378L45.8629 10.6541ZM45.8629 11.6368L45.4262 11.4184L44.4435 12.9471L43.6245 12.4011L46.2451 8.19727L47.61 9.0708C47.7935 9.16581 47.9559 9.29704 48.0873 9.45656C48.2186 9.61609 48.3163 9.80059 48.3743 9.99893C48.4621 10.187 48.5077 10.392 48.5077 10.5995C48.5077 10.807 48.4621 11.012 48.3743 11.2C48.2415 11.4427 48.043 11.643 47.8017 11.7782C47.5603 11.9134 47.2858 11.9779 47.0094 11.9644L46.6819 14.1482L45.8084 13.5477L45.8629 11.6368Z" fill="#231F20"/>
<path d="M49.4083 14.2589L50.0634 14.9141L50.9369 13.3308L49.4083 14.2589ZM49.4083 15.6784L48.8077 14.7503L47.8796 15.2963L47.1152 14.5865L51.6467 12.0205L52.3018 12.6211L50.0634 17.3163L49.1899 16.8795L49.4083 15.6784Z" fill="#231F20"/>
<path d="M51.8104 18.4077L52.8477 19.8272L52.1926 20.3185L50.5547 18.0801L54.5402 15.1865L55.1407 15.9509L51.8104 18.4077Z" fill="#231F20"/>
<path d="M45.3671 31.8936C45.8071 33.7277 45.8714 35.6319 45.5559 37.4915C45.2405 39.3511 44.5519 41.1276 43.5317 42.714C42.5115 44.3004 41.1808 45.6639 39.6197 46.7224C38.0585 47.7808 36.2993 48.5124 34.448 48.8729C33.9749 47.4969 33.6813 46.0656 33.5744 44.6145C35.3179 41.3741 37.8773 38.6453 40.9995 36.6981C37.9506 38.1517 35.3624 40.4188 33.5198 43.2496C33.5225 41.9843 33.6506 40.7225 33.902 39.4824C35.6333 36.8407 38.023 34.6956 40.8357 33.2585C38.4316 34.2321 36.2835 35.7451 34.5571 37.6808C34.9276 36.4687 35.4215 35.2978 36.0312 34.1867C37.3043 32.7005 38.9141 31.5399 40.7265 30.8017C39.3744 31.1583 38.1105 31.7902 37.014 32.658C37.9402 31.2667 39.0207 29.9846 40.2351 28.8363C38.2802 30.3275 36.6305 32.1811 35.3761 34.2958C35.3366 33.4496 35.4287 32.6024 35.6491 31.7844C35.1456 32.7396 34.9366 33.8225 35.0485 34.8964C34.5831 35.6819 34.1815 36.5035 33.8474 37.3532C33.4989 36.5802 33.2247 35.7759 33.0285 34.951C33.0161 36.0132 33.2012 37.0684 33.5744 38.063C33.0936 39.3151 32.7459 40.6143 32.5371 41.9393C32.2922 41.5823 32.0906 41.1974 31.9365 40.7928C31.9646 39.0855 31.5708 37.3977 30.79 35.8791C31.2469 34.7973 31.7949 33.7563 32.4279 32.7672C36.0184 27.4801 41.4821 23.7531 47.7147 22.3394C46.6322 23.6865 45.8604 25.2561 45.4546 26.936C45.0488 28.6159 45.0189 30.3646 45.3671 32.0574" fill="#231F20"/>
<path d="M28.7169 32.7114C29.5001 33.6652 30.1946 34.6886 30.7915 35.7688C30.2974 36.96 29.949 38.2065 29.7542 39.4813C29.4457 38.4726 29.0245 37.502 28.4985 36.5877C28.636 35.7929 28.636 34.9803 28.4985 34.1855C28.4462 34.8309 28.3365 35.4704 28.1709 36.0964C27.8054 35.5776 27.4041 35.085 26.9698 34.6223C26.9234 33.7858 26.6181 32.9845 26.0963 32.3292C26.3873 32.9106 26.5722 33.5392 26.6422 34.1855C25.3892 32.78 23.8907 31.6144 22.22 30.746C23.2976 31.4868 24.303 32.3277 25.2227 33.2574C24.2675 32.7672 23.2319 32.4528 22.1654 32.3292C23.6408 32.6616 25.0105 33.3558 26.1508 34.3493C26.7733 35.1032 27.3047 35.9278 27.7341 36.8061C26.1355 35.5429 24.2673 34.6648 22.2745 34.2401C24.5455 34.9658 26.5812 36.2852 28.1709 38.0618C28.5547 38.9726 28.8295 39.9255 28.9898 40.9008C27.1958 38.9789 24.912 37.5821 22.3837 36.8607C25.0263 37.9392 27.3412 39.6894 29.099 41.9381C29.275 43.0596 29.275 44.2016 29.099 45.3231C27.6548 45.2535 26.2387 44.8977 24.9331 44.2765C23.6274 43.6552 22.4582 42.7809 21.4932 41.7041C20.5281 40.6274 19.7866 39.3696 19.3115 38.004C18.8365 36.6383 18.6374 35.1919 18.7258 33.7487C18.7603 32.4069 18.5051 31.0734 17.9774 29.8391C17.4498 28.6049 16.6623 27.4989 15.6685 26.5967C20.6325 26.9201 25.2919 29.1037 28.7169 32.7114Z" fill="#231F20"/>
<path d="M32.4295 2.02897C26.2724 1.99661 20.2441 3.79144 15.1074 7.18634C9.97074 10.5812 5.95658 15.4236 3.57292 21.1007C1.18925 26.7777 0.543239 33.0343 1.71661 39.0786C2.88999 45.123 5.83001 50.6834 10.1646 55.0563C14.4993 59.4291 20.0337 62.4179 26.0675 63.6442C32.1013 64.8706 38.3633 64.2796 44.0611 61.9459C49.7588 59.6121 54.6363 55.6406 58.0761 50.5339C61.516 45.4273 63.3637 39.4149 63.3854 33.2578C63.4144 25.0138 60.171 17.0951 54.3672 11.2401C48.5634 5.3851 40.6735 2.07231 32.4295 2.02897ZM32.4295 65.4147C26.0255 65.4363 19.7595 63.5549 14.4265 60.0093C9.09353 56.4638 4.93404 51.4138 2.47587 45.5004C0.0177066 39.5869 -0.628319 33.0765 0.619757 26.7952C1.86783 20.514 4.95374 14.7451 9.48592 10.2206C14.0181 5.69611 19.7922 2.61997 26.0756 1.38255C32.3589 0.145134 38.8683 0.802211 44.7775 3.2704C50.6868 5.7386 55.7297 9.90664 59.2662 15.2456C62.8027 20.5846 64.6735 26.8538 64.6411 33.2578C64.5837 41.7781 61.1699 49.9323 55.1399 55.9521C49.1099 61.9718 40.9499 65.3718 32.4295 65.4147Z" fill="#231F20"/>
<path d="M8.46367 34.6218C8.47445 35.0906 8.34461 35.5518 8.09085 35.9462C7.8371 36.3405 7.47107 36.6498 7.03994 36.8342C6.60881 37.0186 6.13234 37.0697 5.67192 36.9809C5.2115 36.892 4.78822 36.6673 4.45664 36.3358C4.12507 36.0042 3.90039 35.5809 3.81156 35.1205C3.72272 34.6601 3.77381 34.1836 3.95822 33.7525C4.14263 33.3213 4.45193 32.9553 4.84625 32.7016C5.24057 32.4478 5.70185 32.318 6.17064 32.3287C6.77878 32.3287 7.36203 32.5703 7.79205 33.0004C8.22208 33.4304 8.46367 34.0136 8.46367 34.6218Z" fill="#231F20"/>
<path d="M61.2573 34.3495C61.3088 34.6841 61.2873 35.0258 61.1943 35.3513C61.1014 35.6767 60.9391 35.9782 60.7187 36.2351C60.4983 36.492 60.225 36.6982 59.9175 36.8396C59.6099 36.9809 59.2754 37.0541 58.937 37.0541C58.5985 37.0541 58.264 36.9809 57.9565 36.8396C57.6489 36.6982 57.3756 36.492 57.1552 36.2351C56.9348 35.9782 56.7726 35.6767 56.6796 35.3513C56.5867 35.0258 56.5652 34.6841 56.6167 34.3495C56.7019 33.7953 56.9828 33.2899 57.4084 32.9247C57.834 32.5596 58.3762 32.3589 58.937 32.3589C59.4977 32.3589 60.04 32.5596 60.4656 32.9247C60.8912 33.2899 61.172 33.7953 61.2573 34.3495Z" fill="#231F20"/>
<path d="M52.3018 45.6495L52.7931 44.8306L56.0689 46.7414L56.2327 45.7587L56.8878 46.1955L56.6148 48.1063L56.5602 48.1609L52.3018 45.6495Z" fill="#231F20"/>
<path d="M52.3584 50.6744C52.5579 50.8861 52.7997 51.0535 53.0681 51.1658C53.0681 51.1658 53.4503 51.1658 53.5595 51.1658C53.6687 51.1658 53.5595 50.5652 53.0136 50.0738L52.0854 49.3095C51.8679 49.0939 51.6075 48.9265 51.3211 48.8181C51.261 48.7644 51.1833 48.7347 51.1027 48.7347C51.0221 48.7347 50.9444 48.7644 50.8843 48.8181C50.846 48.8845 50.8258 48.9599 50.8258 49.0365C50.8258 49.1132 50.846 49.1885 50.8843 49.2549C51.0203 49.5245 51.2281 49.7512 51.4849 49.9101L52.3584 50.6744ZM50.9389 50.6744C50.5467 50.4128 50.2274 50.0559 50.0108 49.6371C49.9346 49.4408 49.9199 49.2261 49.9686 49.0213C50.0174 48.8165 50.1273 48.6314 50.2838 48.4906C50.4165 48.3311 50.5838 48.2039 50.773 48.1188C50.9622 48.0336 51.1683 47.9927 51.3757 47.9992C51.8893 48.1 52.3631 48.3464 52.7406 48.7089L53.4503 49.3095C53.9122 49.6272 54.2574 50.0874 54.433 50.6198C54.4848 50.8187 54.487 51.0272 54.4394 51.2271C54.3918 51.427 54.2959 51.6121 54.1601 51.7663C54.0302 51.9291 53.8634 52.0586 53.6735 52.144C53.4836 52.2295 53.2761 52.2684 53.0681 52.2577C52.5341 52.1701 52.0391 51.9227 51.6487 51.5479L50.9389 50.6744Z" fill="#231F20"/>
<path d="M49.0827 53.8419C49.2576 54.0849 49.4806 54.2893 49.7378 54.4425C49.7979 54.4962 49.8756 54.5259 49.9562 54.5259C50.0368 54.5259 50.1146 54.4962 50.1746 54.4425C50.1746 54.4425 50.1746 53.8419 49.847 53.296L49.0827 52.3678C48.913 52.1202 48.6889 51.9148 48.4275 51.7673C48.4275 51.7673 48.0454 51.7673 47.9362 51.7673C47.8916 51.8314 47.8676 51.9076 47.8676 51.9857C47.8676 52.0637 47.8916 52.14 47.9362 52.204C48.0662 52.4499 48.2121 52.687 48.3729 52.9138L49.0827 53.8419ZM47.6632 53.8419C47.2885 53.4514 47.041 52.9565 46.9535 52.4224C46.9201 52.2123 46.9488 51.9971 47.0361 51.8031C47.1234 51.6091 47.2655 51.4449 47.4448 51.3305C47.6148 51.2178 47.8142 51.1577 48.0181 51.1577C48.222 51.1577 48.4214 51.2178 48.5913 51.3305C49.0832 51.4987 49.5182 51.8013 49.847 52.204L50.4476 52.9138C50.816 53.33 51.0618 53.8403 51.1573 54.3879C51.1843 54.5921 51.1582 54.7997 51.0817 54.9909C51.0052 55.1822 50.8809 55.3505 50.7206 55.4798C50.5336 55.5714 50.3282 55.619 50.12 55.619C49.9118 55.619 49.7064 55.5714 49.5195 55.4798C49.0251 55.2889 48.5913 54.9683 48.2638 54.5517L47.6632 53.8419Z" fill="#231F20"/>
<path d="M35.5938 56.5164L36.5765 56.298L38.7057 59.1916L37.996 56.025L38.9787 55.8066L40.016 60.6657L39.0333 60.8841L36.904 57.9905L37.6138 61.157L36.6311 61.3754L35.5938 56.5164Z" fill="#231F20"/>
<path d="M32.9772 58.5345H32.0491L32.4313 60.5545L32.9772 58.5345ZM31.8307 57.7155H33.1956V56.6782H34.233L32.7043 61.6464H31.8307L30.1929 56.7328H31.2848L31.8307 57.7155Z" fill="#231F20"/>
<path d="M26.0979 60.1737L27.299 60.3375L27.9541 56.2974L28.9914 56.4611L28.2817 60.5012L29.4828 60.7196L29.3736 61.5386L25.9341 60.9926L26.0979 60.1737Z" fill="#231F20"/>
<path d="M20.9648 59.355L22.1659 56.1339C22.2814 55.7185 22.5561 55.3654 22.9303 55.1512C23.3516 54.9867 23.8193 54.9867 24.2406 55.1512C24.4538 55.2086 24.6521 55.3115 24.8217 55.4529C24.9914 55.5943 25.1284 55.7707 25.2233 55.9701C25.3059 56.1691 25.3484 56.3825 25.3484 56.598C25.3484 56.8134 25.3059 57.0268 25.2233 57.2258L24.0222 60.447L23.0941 60.0648L24.2406 56.8982C24.3114 56.6856 24.3114 56.4557 24.2406 56.2431C24.1538 56.0939 24.0191 55.9784 23.8584 55.9155H23.3125C23.1785 56.0613 23.068 56.2271 22.9849 56.4069L21.7838 59.628L20.9648 59.355Z" fill="#231F20"/>
<path d="M19.2696 55.8616L18.7782 55.5887C18.702 55.5503 18.6179 55.5302 18.5326 55.5302C18.4472 55.5302 18.3631 55.5503 18.2869 55.5887C18.1223 55.6724 17.9885 55.8062 17.9047 55.9708C17.6317 56.4076 17.9047 56.7352 17.9047 56.899L18.3961 57.2265L19.2696 55.8616ZM19.2696 54.9335H19.7064L20.6345 53.4048L21.508 53.8962L18.942 58.1547L17.5771 57.3357C17.3823 57.2573 17.2102 57.1312 17.0767 56.9691C16.9431 56.8069 16.8524 56.6139 16.8128 56.4076C16.7331 56.227 16.6919 56.0317 16.6919 55.8343C16.6919 55.6369 16.7331 55.4417 16.8128 55.2611C16.9431 55.0124 17.1395 54.8044 17.3803 54.6599C17.621 54.5155 17.8969 54.4401 18.1777 54.4421V52.2583L19.1058 52.8043L19.2696 54.9335Z" fill="#231F20"/>
<path d="M15.6678 52.3665L15.0126 51.7659L14.1391 53.3492L15.6678 52.3665ZM15.6678 50.947L16.6505 51.8751L17.524 51.3291L18.3429 51.9843L13.8661 54.6595L13.2109 54.0589L15.3402 49.3091L16.1591 50.0188L15.6678 50.947Z" fill="#231F20"/>
<path d="M13.1566 48.2176L12.0647 46.8527L12.7198 46.3613L14.4123 48.5452L10.4814 51.5479L9.88086 50.7836L13.1566 48.2176Z" fill="#231F20"/>
</svg>
