<svg width="40" height="40" viewBox="0 0 40 40" fill="none" xmlns="http://www.w3.org/2000/svg">
<path d="M6.60639 12.5706C6.41202 12.5798 6.22041 12.5211 6.06339 12.4043C5.90637 12.2875 5.79339 12.1197 5.7432 11.9287C5.69302 11.7376 5.70864 11.5349 5.78749 11.3542C5.86634 11.1734 6.00367 11.0255 6.17667 10.935L11.1628 7.98939L6.17667 5.04381C6.07993 4.98647 5.99525 4.91033 5.92747 4.81973C5.85969 4.72914 5.81013 4.62587 5.78163 4.51582C5.75313 4.40576 5.74624 4.29108 5.76135 4.17833C5.77647 4.06557 5.81329 3.95694 5.86973 3.85864C5.92616 3.76034 6.00109 3.6743 6.09025 3.60543C6.17941 3.53656 6.28104 3.4862 6.38935 3.45724C6.49766 3.42828 6.61052 3.42128 6.72149 3.43664C6.83247 3.452 6.93937 3.48942 7.03611 3.54676L13.2841 7.24086C13.4147 7.3157 13.5233 7.42445 13.5989 7.55598C13.6745 7.6875 13.7144 7.83708 13.7144 7.98939C13.7144 8.1417 13.6745 8.29128 13.5989 8.42281C13.5233 8.55433 13.4147 8.66308 13.2841 8.73792L7.03611 12.432C6.90815 12.5175 6.75946 12.5655 6.60639 12.5706Z" fill="black"/>
<path d="M34.5715 12.5715C34.4196 12.5726 34.2703 12.5318 34.1397 12.4534L27.861 8.75055C27.7298 8.67553 27.6207 8.56652 27.5447 8.43469C27.4687 8.30285 27.4287 8.15291 27.4287 8.00024C27.4287 7.84756 27.4687 7.69763 27.5447 7.5658C27.6207 7.43396 27.7298 7.32495 27.861 7.24994L34.1397 3.54704C34.2369 3.48956 34.3443 3.45205 34.4558 3.43666C34.5673 3.42126 34.6807 3.42828 34.7896 3.45731C34.8984 3.48634 35.0006 3.53682 35.0901 3.60585C35.1797 3.67489 35.255 3.76113 35.3118 3.85966C35.3685 3.9582 35.4055 4.06708 35.4207 4.18011C35.4358 4.29314 35.4289 4.40809 35.4003 4.5184C35.3716 4.62872 35.3218 4.73223 35.2537 4.82304C35.1856 4.91385 35.1005 4.99017 35.0033 5.04765L29.9928 8.00024L35.0033 10.932C35.166 11.0281 35.293 11.1759 35.3645 11.3525C35.4361 11.5291 35.4482 11.7247 35.399 11.909C35.3498 12.0932 35.2421 12.256 35.0926 12.372C34.943 12.488 34.7598 12.5508 34.5715 12.5507V12.5715Z" fill="black"/>
<path d="M20.7693 28.5714C20.048 28.5705 19.3364 28.4154 18.6878 28.1179C18.0391 27.8204 17.4704 27.3882 17.0241 26.8536C16.5778 26.3191 16.2657 25.6962 16.1111 25.0316C15.9564 24.367 15.9634 23.678 16.1313 23.0163L19.7661 8.65517C19.8229 8.43417 19.9705 8.24354 20.1764 8.12521C20.3823 8.00688 20.6295 7.97055 20.8638 8.02421C21.098 8.07787 21.3001 8.21712 21.4255 8.41133C21.5509 8.60554 21.5894 8.8388 21.5325 9.0598L17.8978 23.4141C17.7953 23.8258 17.7934 24.2542 17.8922 24.6668C17.9909 25.0794 18.1878 25.4654 18.4678 25.7957C18.7479 26.126 19.1039 26.3919 19.5089 26.5734C19.9139 26.7548 20.3573 26.8471 20.8056 26.8432C21.0466 26.8432 21.2777 26.9335 21.4481 27.0942C21.6186 27.255 21.7143 27.4731 21.7143 27.7004C21.7143 27.9278 21.6186 28.1459 21.4481 28.3066C21.2777 28.4674 21.0466 28.5577 20.8056 28.5577L20.7693 28.5714Z" fill="black"/>
<path d="M25.7144 37.7144C24.9232 37.7144 24.1499 37.4798 23.4921 37.0402C22.8343 36.6007 22.3216 35.976 22.0188 35.2451C21.7161 34.5142 21.6369 33.7099 21.7912 32.934C21.9456 32.1581 22.3265 31.4453 22.8859 30.8859C23.4453 30.3265 24.1581 29.9456 24.934 29.7912C25.7099 29.6369 26.5142 29.7161 27.2451 30.0188C27.976 30.3216 28.6007 30.8343 29.0402 31.4921C29.4798 32.1499 29.7144 32.9232 29.7144 33.7144C29.7124 34.7746 29.2904 35.7909 28.5406 36.5406C27.7909 37.2904 26.7746 37.7124 25.7144 37.7144V37.7144ZM25.7144 31.5526C25.2868 31.5526 24.8688 31.6794 24.5133 31.9169C24.1578 32.1545 23.8808 32.4921 23.7171 32.8871C23.5535 33.2821 23.5107 33.7168 23.5941 34.1361C23.6775 34.5554 23.8834 34.9406 24.1858 35.243C24.4881 35.5453 24.8733 35.7512 25.2926 35.8346C25.712 35.918 26.1466 35.8752 26.5416 35.7116C26.9366 35.5479 27.2743 35.2709 27.5118 34.9154C27.7493 34.5599 27.8761 34.1419 27.8761 33.7144C27.881 33.4274 27.8287 33.1423 27.7222 32.8758C27.6158 32.6093 27.4573 32.3666 27.2561 32.1619C27.0549 31.9573 26.8149 31.7948 26.5502 31.6838C26.2855 31.5729 26.0014 31.5158 25.7144 31.5158V31.5526Z" fill="black"/>
</svg>
