<svg width="40" height="40" viewBox="0 0 40 40" fill="none" xmlns="http://www.w3.org/2000/svg">
<path fill-rule="evenodd" clip-rule="evenodd" d="M20.0771 29.0144C19.9522 29.0144 19.8273 28.9787 19.7195 28.9082C16.3392 26.6881 14.3213 23.014 14.3213 19.0792C14.3213 15.1443 16.3392 11.4695 19.7195 9.24937C19.9352 9.10763 20.2196 9.10763 20.4353 9.24937C23.8148 11.4695 25.8327 15.1436 25.8327 19.0792C25.8327 23.0135 23.8148 26.6881 20.4353 28.9082C20.3273 28.9789 20.2028 29.0144 20.0771 29.0144ZM20.0771 10.5069C17.2607 12.517 15.5923 15.6907 15.5923 19.0792C15.5923 22.4671 17.2602 25.6408 20.0771 27.651C22.8935 25.6408 24.5627 22.4671 24.5627 19.0792C24.5627 15.69 22.8943 12.5171 20.0771 10.5069V10.5069Z" fill="black"/>
<path fill-rule="evenodd" clip-rule="evenodd" d="M29.6867 30.8486C27.2177 30.8486 24.8336 30.1469 22.7933 28.8197C22.5022 28.6304 22.4258 28.2501 22.6218 27.9696C22.818 27.6892 23.2127 27.6147 23.5043 27.8044C25.3342 28.9943 27.4718 29.6237 29.6867 29.6237C33.2039 29.6237 36.498 28.0169 38.5845 25.3029C37.0146 23.2597 34.7608 21.8295 32.1912 21.2567C31.8492 21.1808 31.6368 20.8519 31.7156 20.5225C31.7947 20.193 32.1369 19.9879 32.4783 20.0643C35.5009 20.7381 38.1332 22.4765 39.889 24.9581C40.036 25.1659 40.036 25.4399 39.889 25.6477C37.5846 28.9051 33.771 30.8486 29.6867 30.8486H29.6867Z" fill="black"/>
<path fill-rule="evenodd" clip-rule="evenodd" d="M10.3127 30.8568C6.22884 30.8568 2.41476 28.9127 0.110337 25.6561C-0.0367791 25.4483 -0.0367791 25.1743 0.110337 24.9665C1.76202 22.6319 4.22304 20.9357 7.0393 20.1906C7.37804 20.1006 7.72736 20.2929 7.82001 20.6186C7.91355 20.945 7.71463 21.2815 7.37577 21.3715C4.9909 22.0028 2.88943 23.3942 1.41509 25.3118C3.50157 28.0252 6.79572 29.6325 10.3124 29.6325C12.4743 29.6325 14.5688 29.0311 16.3704 27.8936C16.664 27.7083 17.0572 27.7873 17.2499 28.0697C17.4422 28.3533 17.3601 28.7321 17.067 28.9178C15.0583 30.1861 12.7224 30.8568 10.3127 30.8568L10.3127 30.8568Z" fill="black"/>
<path fill-rule="evenodd" clip-rule="evenodd" d="M18.4234 29.1245C15.138 29.1245 11.9412 27.8802 9.61745 25.6409C6.7292 22.8582 5.45925 18.8851 6.21992 15.0136C6.26896 14.7657 6.4699 14.5721 6.72669 14.5254C10.8158 13.7803 15.138 15.0343 18.0076 17.7987C18.7939 18.5562 19.4624 19.3997 20.0055 20.317C20.5537 19.3777 21.234 18.5154 22.0355 17.7423C24.9414 14.9436 28.871 13.7504 32.8172 14.4696C33.074 14.5163 33.2748 14.7099 33.3231 14.9571C34.0838 18.8293 32.8135 22.8024 29.9256 25.5843C27.3142 28.1007 23.741 29.3484 20.1124 29.0144C19.5495 29.0888 18.9851 29.1245 18.4234 29.1245L18.4234 29.1245ZM7.39583 15.6581C6.87897 18.9989 8.02829 22.3795 10.516 24.7756C12.9749 27.1437 16.5238 28.2718 20.01 27.7919C20.0611 27.7848 20.1129 27.7841 20.1647 27.7887C23.4849 28.1164 26.6339 27.0255 29.027 24.7193C31.5139 22.3233 32.6633 18.9424 32.1477 15.6022C28.7252 15.1078 25.4694 16.1655 22.9339 18.6088C21.9353 19.5709 21.1471 20.689 20.5934 21.9307C20.4933 22.1547 20.2648 22.2998 20.0115 22.3006C20.0108 22.3006 20.0103 22.3006 20.0095 22.3006C19.7575 22.3006 19.5284 22.1561 19.4276 21.934C18.8752 20.7141 18.095 19.6143 17.1093 18.6647C14.6326 16.2791 10.9465 15.1474 7.39585 15.6581L7.39583 15.6581Z" fill="black"/>
</svg>
