<svg width="40" height="40" viewBox="0 0 40 40" fill="none" xmlns="http://www.w3.org/2000/svg">
<path d="M34.1584 5.88056C34.1624 5.86938 34.1624 5.85719 34.1584 5.84601C34.1453 5.84232 34.1313 5.84232 34.1182 5.84601C30.7859 2.51398 26.3835 0.468439 21.6895 0.0711176C16.9955 -0.326204 12.3124 0.950289 8.46813 3.67487C8.33763 3.76727 8.24916 3.90777 8.22217 4.06546C8.19519 4.22314 8.23191 4.38509 8.32425 4.51568C8.4166 4.64627 8.557 4.73481 8.71457 4.76181C8.87215 4.78881 9.03398 4.75206 9.16448 4.65966C12.6995 2.16438 16.9867 0.966162 21.3022 1.26728C25.6178 1.56841 29.6973 3.35042 32.8521 6.31249L21.7219 17.4101H8.79041C8.71184 17.4099 8.63407 17.4259 8.5619 17.457C8.48972 17.4881 8.42467 17.5336 8.37076 17.5908C8.31684 17.648 8.2752 17.7156 8.24839 17.7895C8.22159 17.8634 8.2102 17.9421 8.21491 18.0205V21.9597C8.21491 22.1124 8.27554 22.2589 8.38347 22.3669C8.4914 22.4749 8.63778 22.5356 8.79041 22.5356H16.5424L6.31576 32.8269C3.50723 29.8302 1.75752 25.9949 1.33449 21.9083C0.911461 17.8217 1.83843 13.709 3.97348 10.1998C4.05303 10.0615 4.07468 9.89722 4.03372 9.74295C3.99275 9.58867 3.89248 9.45687 3.75479 9.37628C3.68885 9.33189 3.61444 9.30165 3.53625 9.28747C3.45805 9.27328 3.37777 9.27545 3.30046 9.29385C3.22314 9.31224 3.15048 9.34646 3.08703 9.39435C3.02359 9.44223 2.97074 9.50275 2.93182 9.57208C0.599036 13.3898 -0.385369 17.8807 0.13639 22.325C0.65815 26.7693 2.65586 30.9096 5.80932 34.0824C5.81931 34.1021 5.83299 34.1197 5.84961 34.1342H5.88414C9.6282 37.8862 14.7084 39.9962 20.007 40C25.3057 40.0038 30.3889 37.901 34.1383 34.1544C37.8877 30.4077 39.9962 25.324 40 20.0216C40.0038 14.7193 37.9025 9.63258 34.1584 5.88056ZM9.41195 21.355V18.6252H20.5191L17.797 21.355H9.41195ZM26.6769 18.6252H33.0305V21.355H26.6712L26.6769 18.6252ZM25.4741 21.355H19.5062L22.2283 18.6252H25.4684L25.4741 21.355ZM19.9954 38.776C15.2263 38.7825 10.6358 36.9607 7.1675 33.685L18.2689 22.5529H33.6232C33.7796 22.5545 33.9306 22.4955 34.0443 22.3881C34.1581 22.2807 34.2258 22.1333 34.2333 21.977V18.0205C34.234 17.9402 34.2188 17.8604 34.1884 17.786C34.158 17.7116 34.1131 17.644 34.0563 17.5872C33.9995 17.5303 33.9319 17.4854 33.8576 17.455C33.7832 17.4246 33.7035 17.4093 33.6232 17.4101H23.4484L33.6923 7.1533C36.2007 9.82398 37.8729 13.1712 38.5023 16.7818C39.1318 20.3925 38.691 24.1086 37.2344 27.4714C35.7779 30.8343 33.3692 33.6968 30.3057 35.7057C27.2422 37.7146 23.658 38.7819 19.9954 38.776V38.776Z" fill="black"/>
<path d="M5.7627 18.0206V21.9598C5.7627 22.1217 5.82701 22.2769 5.94149 22.3914C6.05598 22.5059 6.21125 22.5702 6.37315 22.5702C6.53505 22.5702 6.69032 22.5059 6.8048 22.3914C6.91929 22.2769 6.9836 22.1217 6.9836 21.9598V18.0206C6.9836 17.8587 6.91929 17.7034 6.8048 17.589C6.69032 17.4745 6.53505 17.4102 6.37315 17.4102C6.21125 17.4102 6.05598 17.4745 5.94149 17.589C5.82701 17.7034 5.7627 17.8587 5.7627 18.0206V18.0206Z" fill="black"/>
<path d="M5.97576 9.19793C6.34412 9.51241 6.64062 9.90246 6.84517 10.3416C7.04971 10.7808 7.15752 11.2589 7.16129 11.7434C7.15732 12.2254 7.04933 12.7008 6.84471 13.1372C6.64009 13.5736 6.34368 13.9605 5.97576 14.2716C5.85673 14.3807 5.78478 14.5318 5.77511 14.693C5.76544 14.8543 5.81883 15.0129 5.92396 15.1355C6.04365 15.2541 6.20439 15.3222 6.37285 15.3255C6.52259 15.3326 6.66919 15.2809 6.78146 15.1815C7.28127 14.7577 7.68244 14.2296 7.95687 13.6343C8.2313 13.0389 8.37235 12.3908 8.37016 11.7352C8.36797 11.0796 8.22258 10.4324 7.94417 9.8389C7.66576 9.24543 7.26107 8.72004 6.75844 8.29953C6.38432 7.98934 6.08319 7.6004 5.87649 7.16041C5.66979 6.72042 5.56262 6.24023 5.56262 5.75405C5.56262 5.26787 5.66979 4.78767 5.87649 4.34769C6.08319 3.9077 6.38432 3.51876 6.75844 3.20857C6.81979 3.15876 6.87024 3.09684 6.90664 3.02667C6.94304 2.95649 6.96462 2.87957 6.97001 2.80069C6.97541 2.72182 6.96452 2.64267 6.93802 2.56819C6.91153 2.4937 6.86998 2.42548 6.81599 2.36776C6.70777 2.24733 6.55653 2.17438 6.39499 2.16468C6.23344 2.15498 6.07457 2.20931 5.95274 2.31593C5.4483 2.73917 5.04266 3.26788 4.76434 3.86485C4.48603 4.46183 4.3418 5.11258 4.3418 5.77133C4.3418 6.43007 4.48603 7.08082 4.76434 7.6778C5.04266 8.27477 5.4483 8.80348 5.95274 9.22673L5.97576 9.19793Z" fill="black"/>
</svg>
