<svg width="40" height="40" viewBox="0 0 40 40" fill="none" xmlns="http://www.w3.org/2000/svg">
<path d="M36.3957 28.0363V21.3699C36.3991 18.8008 35.8936 16.2566 34.9087 13.885L33.8214 14.3385C34.7469 16.5663 35.2217 18.9564 35.2183 21.3699V21.792C34.5878 21.6194 33.9287 21.5777 33.2816 21.6696C32.6344 21.7615 32.0128 21.985 31.4548 22.3264C31.1877 22.1017 30.8974 21.9063 30.5888 21.7436L30.3121 21.6013L29.7752 22.6524L30.0513 22.7941C30.6596 23.1043 31.1689 23.5794 31.5216 24.1653C31.8742 24.7513 32.0561 25.4246 32.0464 26.109L33.2238 26.1214C33.2342 25.0714 32.9036 24.0464 32.2819 23.2015C32.732 22.9689 33.2255 22.833 33.7309 22.8025C34.2363 22.772 34.7425 22.8476 35.2172 23.0244V28.0363C35.2155 28.9202 35.0752 29.7983 34.8015 30.6385L34.6026 30.7649C34.0279 31.1337 33.3616 31.3335 32.6795 31.3418C31.9973 31.35 31.3264 31.1663 30.7431 30.8115L30.1361 31.8236C30.7194 32.1801 31.3721 32.4068 32.0503 32.4883C32.7285 32.5698 33.4161 32.5042 34.0668 32.296C33.858 32.6608 33.6218 33.0092 33.3604 33.3382C32.5677 34.3358 31.5609 35.1412 30.4148 35.6944C29.2687 36.2476 28.013 36.5344 26.7411 36.5332H23.4444C22.6648 36.5325 21.9173 36.2218 21.3656 35.6693C20.8139 35.1168 20.5029 34.3676 20.5009 33.5856V29.3171C21.1816 29.5835 21.9144 29.6885 22.6422 29.624C23.37 29.5595 24.0731 29.3271 24.6966 28.9451L24.9632 28.785L24.3575 27.7724L24.0914 27.9324C23.5524 28.2585 22.9383 28.439 22.309 28.4562C21.6798 28.4734 21.0568 28.3267 20.5009 28.0304V20.2952L21.6901 20.5615C21.9613 20.6535 22.2069 20.8086 22.4068 21.0141C22.6068 21.2197 22.7553 21.4698 22.8403 21.744C22.9253 22.0182 22.9443 22.3087 22.8959 22.5917C22.8474 22.8747 22.7327 23.1421 22.5614 23.3722L22.1393 23.9372L22.1269 23.9278L21.2309 25.1335L22.1728 25.8421L22.9823 24.7527C22.997 24.7367 23.0182 24.7297 23.0317 24.7119L23.4962 24.0902L23.5021 24.0825L23.747 23.7548C23.9174 23.5271 24.1383 23.3423 24.3922 23.215C24.6461 23.0877 24.926 23.0214 25.2099 23.0214C25.4938 23.0214 25.7737 23.0877 26.0276 23.215C26.2815 23.3423 26.5024 23.5271 26.6728 23.7548L26.9006 24.0595L26.9236 24.0902L27.3881 24.7119C27.3881 24.7119 27.3946 24.7167 27.3969 24.7196L28.549 26.1958L29.4762 25.4683L28.3306 24.0004L27.8473 23.3544C27.6759 23.118 27.5638 22.8438 27.5201 22.5548C27.4765 22.2658 27.5028 21.9706 27.5966 21.6939C27.6905 21.4172 27.8493 21.1672 28.0596 20.9649C28.2699 20.7626 28.5255 20.6139 28.8051 20.5314L30.5264 20.108L30.2456 18.9607L28.6561 19.3522C28.6379 19.3552 28.6196 19.3522 28.6014 19.3522L28.0716 19.4845C27.802 19.5521 27.5206 19.5573 27.2488 19.4995C26.977 19.4418 26.7219 19.3227 26.5028 19.1512C26.2838 18.9798 26.1065 18.7605 25.9846 18.5101C25.8627 18.2597 25.7993 17.9847 25.7992 17.706V17.269C25.7995 17.2635 25.7995 17.258 25.7992 17.2525L25.7745 14.2133L24.5971 14.2222L24.623 17.706C24.6228 17.9847 24.5594 18.2597 24.4375 18.5101C24.3156 18.7606 24.1384 18.9799 23.9193 19.1513C23.7003 19.3228 23.4452 19.442 23.1734 19.4998C22.9016 19.5577 22.6202 19.5526 22.3506 19.4851L21.8208 19.3528C21.7762 19.3455 21.731 19.3436 21.686 19.3469L20.5009 19.0812V13.8555C21.2955 13.737 22.0478 13.4211 22.6894 12.9363C23.3311 12.4516 23.8416 11.8135 24.1744 11.0803L24.3039 10.7968L23.2342 10.3044L23.1047 10.5878C22.8653 11.115 22.5043 11.5777 22.0516 11.9375C21.5989 12.2973 21.0674 12.5441 20.5009 12.6574V6.40311C20.5051 5.62286 20.8171 4.876 21.3686 4.32576C21.9202 3.77553 22.6665 3.46667 23.4444 3.46668C24.4332 3.46597 25.4106 3.67863 26.3102 4.09022C25.7416 4.50418 25.2704 5.03808 24.9297 5.65435C24.5889 6.27062 24.387 6.9543 24.338 7.65728L24.3157 7.96846L25.4931 8.05289L25.5154 7.74171C25.5589 7.11993 25.7602 6.51963 26.1002 5.9979C26.4403 5.47618 26.9077 5.05038 27.4581 4.761C28.0896 5.20812 28.6413 5.75889 29.09 6.39012L30.0496 5.70576C29.301 4.64797 28.3107 3.78545 27.1615 3.19042C26.0123 2.5954 24.7377 2.28517 23.4444 2.28573C22.9034 2.28325 22.3674 2.38897 21.8677 2.59671C21.3679 2.80445 20.9145 3.11004 20.5339 3.49561C20.2949 3.73496 20.0861 4.00288 19.9122 4.29334C19.546 3.67743 19.0257 3.16818 18.4028 2.81604C17.7799 2.46391 17.0762 2.2811 16.3612 2.28573H16.2664C14.9383 2.28268 13.631 2.61749 12.4669 3.25887C11.3028 3.90025 10.3199 4.82724 9.61003 5.95317L6.46403 10.9067C4.47995 14.032 3.42689 17.6606 3.42871 21.3657V28.0304C3.43405 30.2351 4.18447 32.3729 5.55744 34.0946L5.61631 34.1666C6.49756 35.2763 7.6175 36.1717 8.8924 36.786C10.1673 37.4004 11.5642 37.7177 12.9786 37.7142H16.38C17.0922 37.7131 17.7919 37.527 18.4109 37.1739C19.03 36.8208 19.5472 36.3128 19.9122 35.6995C20.2772 36.3128 20.7945 36.8208 21.4135 37.1739C22.0326 37.527 22.7323 37.7131 23.4444 37.7142H26.7411C29.3006 37.7142 31.7554 36.6948 33.5659 34.88C35.3763 33.0652 36.3942 30.6036 36.3957 28.0363ZM24.6442 20.0826C24.8581 19.9149 25.0486 19.7191 25.2105 19.5004C25.6107 20.0395 26.1774 20.4306 26.8223 20.6129C26.5394 21.0429 26.3702 21.5381 26.3308 22.0519C25.6101 21.7714 24.8109 21.7714 24.0902 22.0519C24.0508 21.5381 23.8816 21.0429 23.5986 20.6129C23.9784 20.5065 24.3336 20.3263 24.6442 20.0826ZM16.38 36.5332H12.9809C12.2578 36.5301 11.5382 36.432 10.8404 36.2415C11.3359 35.7725 11.7265 35.2033 11.9865 34.5716C12.2465 33.9399 12.3699 33.2601 12.3486 32.5771L12.3398 32.2653L11.1624 32.2995L11.1713 32.6107C11.1898 33.2347 11.0488 33.8531 10.7616 34.4069C10.4744 34.9607 10.0506 35.4315 9.53055 35.7745C8.36267 35.2371 7.33631 34.4331 6.5335 33.4268L6.47463 33.3547C5.8209 32.5313 5.32399 31.5941 5.00878 30.5901C5.1742 30.6067 5.33962 30.6297 5.50446 30.6297C6.38973 30.6281 7.2573 30.3808 8.01113 29.9152C8.02448 30.446 8.1239 30.9711 8.30548 31.4699L8.4138 31.7616L9.5176 31.3483L9.40928 31.0566C9.17031 30.4159 9.11506 29.7209 9.24981 29.0504C9.38455 28.3798 9.7039 27.7606 10.1716 27.2628L9.31156 26.4562C8.84572 26.9551 8.48953 27.5465 8.26603 28.1922L8.08942 28.3693C7.65548 28.8066 7.11827 29.1265 6.52783 29.2993C5.93739 29.4721 5.31294 29.4923 4.71266 29.3578C4.64239 28.9188 4.60676 28.475 4.60611 28.0304V23.7459C5.23469 23.527 5.91101 23.4849 6.56178 23.624C7.21254 23.7632 7.81292 24.0784 8.29782 24.5354L9.10198 23.6727C8.51049 23.1156 7.78811 22.7175 7.00206 22.5156C6.216 22.3136 5.3918 22.3144 4.60611 22.5177V21.3657C4.60476 17.8859 5.59387 14.478 7.45717 11.5426L8.0753 10.5671C8.57616 10.5945 9.06595 10.7256 9.51378 10.9522C9.96162 11.1788 10.3578 11.4961 10.6773 11.8839C10.1469 12.1231 9.66357 12.4559 9.25033 12.8664L9.03016 13.0867L9.86199 13.9228L10.0822 13.702C10.5629 13.2163 11.1698 12.8756 11.8339 12.7184C12.498 12.5612 13.1927 12.5939 13.8392 12.8127L14.2113 11.6908C13.4596 11.4408 12.6583 11.38 11.8777 11.5137C11.522 10.9823 11.0641 10.5275 10.531 10.1758C9.99791 9.82406 9.40021 9.58253 8.7729 9.46531L10.5979 6.58497C11.3001 5.47926 12.3102 4.60431 13.5031 4.06837L13.5366 4.10203C14.0209 4.58419 14.3608 5.19286 14.5176 5.85896C14.6744 6.52506 14.6419 7.22192 14.4238 7.87044L15.5423 8.24421C15.8009 7.47082 15.8598 6.64434 15.7136 5.84192C15.5674 5.0395 15.2209 4.28733 14.7064 3.65563C15.2173 3.53206 15.7409 3.46865 16.2664 3.46668H16.3612C16.751 3.46496 17.1372 3.54049 17.4978 3.68894C17.8583 3.8374 18.1861 4.05584 18.4623 4.33172C18.7349 4.60299 18.9513 4.92565 19.0991 5.28114C19.247 5.63663 19.3232 6.01794 19.3235 6.40311V15.1091C18.7186 15.0935 18.1271 14.9272 17.6023 14.625C17.0776 14.3229 16.6361 13.8945 16.3176 13.3784C16.2352 13.2453 16.1034 13.1505 15.9513 13.1148C15.7992 13.0791 15.6391 13.1056 15.5064 13.1882C15.3737 13.2709 15.2792 13.4031 15.2436 13.5557C15.2081 13.7083 15.2344 13.8688 15.3169 14.0019C15.7406 14.689 16.3294 15.2584 17.0294 15.6581C17.7294 16.0577 18.5182 16.2748 19.3235 16.2894V20.9542C18.6879 20.85 18.038 20.875 17.4123 21.0279C16.7865 21.1808 16.1979 21.4583 15.6813 21.844C15.2376 21.3499 14.6979 20.952 14.0953 20.6749L13.8127 20.545L13.3188 21.619L13.6014 21.7489C14.2225 22.0323 14.7521 22.4846 15.1301 23.0544C15.5081 23.6242 15.7194 24.2888 15.7401 24.9729L16.9175 24.9328C16.8914 24.1934 16.697 23.4697 16.3494 22.8171C16.768 22.4978 17.2507 22.2732 17.7641 22.1591C18.2776 22.0449 18.8096 22.0438 19.3235 22.1558V30.4401C18.463 29.8303 17.4265 29.5211 16.3736 29.5603C16.3893 28.9479 16.2895 28.3381 16.0792 27.7629L15.9715 27.4706L14.8677 27.884L14.9754 28.1792C15.215 28.8199 15.2709 29.5151 15.1365 30.186C15.0022 30.8569 14.6831 31.4766 14.2154 31.9748L15.0755 32.7814C15.6064 32.2092 15.9916 31.5168 16.1981 30.7631C16.7825 30.7053 17.372 30.7904 17.9164 31.0112C18.4607 31.232 18.9436 31.5819 19.3235 32.0309V33.5868C19.322 34.3688 19.0112 35.1182 18.4593 35.6706C17.9075 36.223 17.1597 36.5332 16.38 36.5332Z" fill="black"/>
<path d="M13.9365 16.9474C12.9872 16.9766 12.0651 17.2649 11.2743 17.7797C10.5915 17.2541 9.78188 16.9092 8.92345 16.7783C8.06502 16.6474 7.18662 16.7349 6.37273 17.0324L6.06592 17.1434L6.4998 18.2808L6.80661 18.1698C7.38501 17.9579 8.00714 17.8858 8.6201 17.9598C9.23306 18.0337 9.8187 18.2514 10.3272 18.5944C9.97703 18.9711 9.68717 19.3976 9.46753 19.8592L9.33116 20.1504L10.4586 20.6557L10.5944 20.3652C10.8914 19.7249 11.3659 19.1789 11.964 18.7892C12.5621 18.3996 13.2598 18.1818 13.978 18.1607L13.9365 16.9474Z" fill="black"/>
<path d="M27.5733 28.5288C27.0785 29.0218 26.7003 29.6064 26.4631 30.2447L26.2756 30.4199C25.7651 30.9 25.1207 31.237 24.4156 31.3924C23.7104 31.5478 22.9728 31.5155 22.2863 31.2991L21.8906 32.4084C22.4194 32.5735 22.9733 32.6578 23.5309 32.6583C24.4708 32.6567 25.392 32.4122 26.1925 31.9518C26.2066 32.4765 26.3122 32.9955 26.505 33.4885L26.62 33.7775L27.7921 33.3688L27.677 33.0798C27.4225 32.4462 27.3631 31.7587 27.5058 31.0953C27.6484 30.4318 27.9873 29.819 28.484 29.3263L27.5733 28.5288Z" fill="black"/>
<path d="M37.6764 9.07855C37.6339 8.96751 37.5579 8.87185 37.4587 8.80433C37.3595 8.7368 37.2416 8.70063 37.1209 8.70063H33.8886L36.4741 3.10994C36.5302 2.98859 36.5422 2.85203 36.5083 2.723C36.4744 2.59397 36.3966 2.48024 36.2877 2.40075C36.1789 2.32126 36.0456 2.2808 35.9101 2.28611C35.7747 2.29141 35.6451 2.34216 35.543 2.42991L26.0484 10.5949C25.9577 10.6731 25.8934 10.7766 25.864 10.8916C25.8347 11.0067 25.8417 11.1278 25.8842 11.2388C25.9267 11.3498 26.0026 11.4455 26.1018 11.513C26.201 11.5805 26.3188 11.6167 26.4395 11.6167H29.6718L27.0863 17.2074C27.0303 17.3287 27.0182 17.4653 27.0521 17.5943C27.086 17.7234 27.1639 17.8371 27.2727 17.9166C27.3815 17.9961 27.5148 18.0365 27.6503 18.0312C27.7858 18.0259 27.9153 17.9752 28.0174 17.8874L37.512 9.72242C37.6028 9.64425 37.6671 9.54075 37.6965 9.42571C37.7258 9.31067 37.7188 9.18957 37.6764 9.07855V9.07855ZM29.3039 15.2326L31.1334 11.2761C31.1748 11.1872 31.1927 11.0896 31.1857 10.9921C31.1786 10.8946 31.1467 10.8004 31.093 10.7182C31.0392 10.636 30.9653 10.5683 30.878 10.5215C30.7907 10.4747 30.6928 10.4502 30.5934 10.4503H28.0192L34.2565 5.0847L32.427 9.04239C32.3859 9.13122 32.3682 9.22876 32.3754 9.32608C32.3825 9.42341 32.4145 9.51741 32.4682 9.59946C32.5219 9.68152 32.5958 9.74901 32.6829 9.79576C32.7701 9.84252 32.8678 9.86703 32.967 9.86705H35.5413L29.3039 15.2326Z" fill="black"/>
</svg>
