<svg width="64" height="67" viewBox="0 0 64 67" fill="none" xmlns="http://www.w3.org/2000/svg">
<path d="M31.7094 7.74805C36.6972 7.74864 41.5735 9.22332 45.7257 11.9868C49.8779 14.7503 53.1208 18.6793 55.0469 23.2802C56.9729 27.881 57.4963 32.9485 56.5512 37.8459C55.606 42.7433 53.2346 47.2521 49.7348 50.8059C46.235 54.3596 41.763 56.7997 36.8806 57.8197C31.9983 58.8396 26.9234 58.3939 22.2936 56.5384C17.6638 54.683 13.6856 51.5006 10.859 47.3911C8.03228 43.2817 6.48316 38.4285 6.40626 33.4413C6.37677 30.1024 7.00989 26.7908 8.26897 23.6982C9.52806 20.6056 11.3881 17.7935 13.7414 15.4246C16.0947 13.0558 18.8945 11.1772 21.9787 9.89782C25.063 8.6184 28.3704 7.96348 31.7094 7.97098V7.74805ZM31.7094 57.5741C36.5107 57.5631 41.2012 56.13 45.1887 53.4556C49.1763 50.7813 52.2822 46.9856 54.1145 42.5476C55.9468 38.1097 56.4233 33.2284 55.4839 28.5198C54.5445 23.8113 52.2313 19.4866 48.8363 16.0915C45.4412 12.6965 41.1165 10.3833 36.408 9.4439C31.6995 8.5045 26.8182 8.98102 22.3802 10.8133C17.9423 12.6456 14.1466 15.7515 11.4722 19.7391C8.79788 23.7267 7.36476 28.4171 7.35373 33.2184C7.35373 39.6779 9.91977 45.8729 14.4874 50.4405C19.0549 55.0081 25.2499 57.5741 31.7094 57.5741Z" fill="#231F20"/>
<path d="M0.0557298 34.4983C-0.217753 28.1219 1.43233 21.8106 4.79167 16.3839C8.15101 10.9573 13.0644 6.66613 18.8938 4.06766C19.2282 4.06766 19.5626 3.56606 19.8412 4.06766C20.1199 4.56927 19.5626 4.73647 19.2839 4.84794C14.9706 6.71013 11.1521 9.55451 8.13299 13.1542C5.1139 16.7539 2.97776 21.0093 1.89495 25.5809C0.192459 32.2946 0.813809 39.387 3.65775 45.7023C6.50169 52.0177 11.4006 57.1838 17.5562 60.3588C17.8332 60.4401 18.0833 60.5941 18.2807 60.8047C18.2807 60.8047 18.2807 61.2506 18.2807 61.4735C18.2807 61.6965 17.5562 61.3063 17.5562 61.3063C11.9386 58.5131 7.28148 54.1082 4.18004 48.6547C1.63058 44.3166 0.194536 39.4149 0 34.3869" fill="#231F20"/>
<path d="M63.5361 33.0515C63.492 38.8999 61.8483 44.6247 58.7831 49.6056C55.7179 54.5865 51.3481 58.6337 46.1471 61.3086C45.8685 61.3086 45.5898 61.8102 45.2554 61.3086C44.921 60.807 44.921 60.6398 45.2554 60.3611C48.1911 58.9666 50.8675 57.0818 53.1696 54.7877C56.3155 51.7426 58.7508 48.0409 60.3018 43.9465C61.8529 39.8522 62.4815 35.466 62.1428 31.1009C61.8928 25.5239 60.0908 20.1275 56.9399 15.5193C53.7889 10.911 49.4141 7.27388 44.3079 5.01742C44.0293 5.01742 43.5277 5.01742 43.5834 4.40434C43.6391 3.79127 43.9178 3.73554 44.4751 4.01421C49.5246 6.21968 53.9123 9.70275 57.2058 14.1202C60.4993 18.5376 62.5851 23.737 63.2574 29.2059C63.4354 30.4802 63.5285 31.7649 63.5361 33.0515Z" fill="#231F20"/>
<path d="M20.0605 64.707L21.6211 60.0811L25.0209 61.1957L24.7422 62.0875L22.2899 61.2515L21.9555 62.1989L23.8504 62.812L23.5718 63.648L21.6768 63.035L21.008 65.0414L20.0605 64.707Z" fill="#231F20"/>
<path d="M26.5815 66.323L26.9159 61.4741H29.1453C29.3642 61.4741 29.5808 61.5186 29.782 61.6048C29.9832 61.691 30.1648 61.8172 30.3157 61.9757C30.474 62.0975 30.5946 62.2615 30.6636 62.4489C30.7326 62.6363 30.7473 62.8393 30.7058 63.0347C30.7105 63.3393 30.6064 63.6357 30.4124 63.8706C30.2183 64.1055 29.947 64.2636 29.6469 64.3165L30.9845 66.4902H29.8698L28.6994 64.4837H27.8634V66.4344L26.5815 66.323ZM27.7519 63.592H28.9781C29.424 63.592 29.7026 63.592 29.7026 63.0347C29.7026 62.4773 29.7026 62.4216 29.0338 62.4216H27.8634L27.7519 63.592Z" fill="#231F20"/>
<path d="M33.9983 66.4349L33.3853 61.5303L36.9522 61.0845L37.0637 61.9762L34.4999 62.3106L34.6114 63.2581L36.6736 62.9794L36.785 63.8712L34.7229 64.1498L34.8901 65.376L37.5653 65.0416L37.6768 65.9333L33.9983 66.4349Z" fill="#231F20"/>
<path d="M40.4617 65.2645L39.0684 60.5829L42.5239 59.5239L42.7468 60.3599L40.2945 61.1402L40.5732 62.0319L42.5796 61.4189L42.8583 62.3106L40.8518 62.9237L41.1862 64.0941L43.75 63.3138L44.0287 64.2056L40.4617 65.2645Z" fill="#231F20"/>
<path d="M22.5713 0.779716L26.5841 0.0551758L26.7513 0.946917L25.2465 1.22559L25.9711 5.12696L24.9678 5.29416L24.2433 1.39279L22.7385 1.67146L22.5713 0.779716Z" fill="#231F20"/>
<path d="M29.5396 5.01605L29.4839 0.0557338H30.4871V1.89495L32.7164 1.83922V0H33.7197L33.7754 4.96031H32.7722V2.78669L30.5428 2.84243V5.01605H29.5396Z" fill="#231F20"/>
<path d="M36.6732 4.23562C36.4623 3.97345 36.3169 3.66483 36.2491 3.33529C36.1812 3.00576 36.1929 2.6648 36.283 2.34067C36.3367 1.99789 36.4642 1.67087 36.6567 1.38218C36.8491 1.0935 37.1019 0.85005 37.3977 0.66865C37.9792 0.306382 38.6794 0.186337 39.3484 0.334247C39.7965 0.416976 40.2175 0.608345 40.5745 0.891586V1.8948C40.2361 1.57266 39.8091 1.35914 39.3484 1.28172C39.1575 1.18821 38.9478 1.1396 38.7353 1.1396C38.5228 1.1396 38.3131 1.18821 38.1222 1.28172C37.7783 1.51734 37.5386 1.87678 37.4534 2.28493C37.3706 2.47872 37.328 2.68727 37.328 2.898C37.328 3.10874 37.3706 3.31729 37.4534 3.51108C37.5852 3.69133 37.7517 3.84337 37.9431 3.95824C38.1346 4.07311 38.3471 4.14847 38.5681 4.17988C39.0218 4.32132 39.5078 4.32132 39.9615 4.17988V5.12736C39.4854 5.24317 38.9885 5.24317 38.5124 5.12736C37.8336 4.98181 37.2358 4.58324 36.8404 4.01268" fill="#231F20"/>
<path d="M22.4024 30.9878C21.6651 30.4244 21.0801 29.6858 20.7005 28.8391C20.3209 27.9923 20.1588 27.0642 20.2288 26.1389C20.2037 25.18 20.3941 24.2277 20.7861 23.3522C21.1043 22.5006 21.6752 21.7666 22.4223 21.2486C23.1694 20.7306 24.057 20.4534 24.9661 20.4541C25.6267 20.4312 26.2827 20.5719 26.8758 20.8636C27.4689 21.1553 27.9807 21.5889 28.3659 22.1261C29.2495 23.2725 29.7031 24.6925 29.6478 26.1389C29.7031 27.5853 29.2495 29.0053 28.3659 30.1517C27.9807 30.6889 27.4689 31.1226 26.8758 31.4142C26.2827 31.7059 25.6267 31.8466 24.9661 31.8238C24.0427 31.836 23.1412 31.542 22.4024 30.9878ZM24.9661 29.7059C25.3317 29.7086 25.691 29.6114 26.0053 29.4247C26.3197 29.2381 26.577 28.9692 26.7496 28.6469C27.2195 27.8971 27.4526 27.0231 27.4184 26.1389C27.4439 25.2381 27.2119 24.3487 26.7496 23.5752C26.5683 23.2628 26.3081 23.0035 25.9952 22.8233C25.6822 22.6431 25.3273 22.5482 24.9661 22.5482C24.605 22.5482 24.2501 22.6431 23.9371 22.8233C23.6241 23.0035 23.364 23.2628 23.1827 23.5752C22.7204 24.3487 22.4884 25.2381 22.5138 26.1389C22.4797 27.0231 22.7128 27.8971 23.1827 28.6469C23.3553 28.9692 23.6126 29.2381 23.9269 29.4247C24.2413 29.6114 24.6006 29.7086 24.9661 29.7059Z" fill="#231F20"/>
<path d="M33.6097 20.5666C33.9719 20.5479 34.3339 20.6079 34.6706 20.7427C35.0074 20.8774 35.311 21.0835 35.5603 21.3469C35.8097 21.5954 36.0076 21.8908 36.1427 22.2159C36.2777 22.5411 36.3472 22.8897 36.3472 23.2418C36.3472 23.5939 36.2777 23.9426 36.1427 24.2677C36.0076 24.5929 35.8097 24.8883 35.5603 25.1368C35.3047 25.3918 35.0001 25.5923 34.6648 25.7264C34.3296 25.8605 33.9706 25.9254 33.6097 25.9171C33.2398 25.9297 32.8712 25.8671 32.5263 25.733C32.1814 25.5988 31.8674 25.396 31.6032 25.1368C31.3538 24.8883 31.156 24.5929 31.0209 24.2677C30.8859 23.9426 30.8164 23.5939 30.8164 23.2418C30.8164 22.8897 30.8859 22.5411 31.0209 22.2159C31.156 21.8908 31.3538 21.5954 31.6032 21.3469C31.8588 21.076 32.1714 20.8655 32.5185 20.7305C32.8655 20.5956 33.2383 20.5396 33.6097 20.5666ZM33.6097 24.5237C33.8704 24.4733 34.1063 24.3357 34.2785 24.1336C34.4089 24.0185 34.5134 23.877 34.585 23.7185C34.6566 23.5599 34.6936 23.3879 34.6936 23.214C34.6936 23.04 34.6566 22.868 34.585 22.7095C34.5134 22.5509 34.4089 22.4094 34.2785 22.2944C34.1805 22.1672 34.0534 22.0654 33.908 21.9975C33.7625 21.9296 33.6029 21.8976 33.4425 21.9042C33.2653 21.8931 33.0879 21.9225 32.9238 21.9901C32.7596 22.0577 32.613 22.1617 32.495 22.2944C32.3182 22.4768 32.1996 22.7078 32.1543 22.9578C32.1089 23.2078 32.139 23.4657 32.2405 23.6986C32.342 23.9315 32.5105 24.129 32.7245 24.266C32.9385 24.403 33.1884 24.4733 33.4425 24.468L33.6097 24.5237ZM32.6065 31.5462L39.1273 20.3994H40.7436L34.2785 31.6019L32.6065 31.5462ZM39.9076 25.9728C40.2686 25.9645 40.6275 26.0293 40.9627 26.1634C41.298 26.2975 41.6026 26.4981 41.8583 26.7531C42.3629 27.2766 42.6429 27.9766 42.6385 28.7038C42.6343 29.4127 42.3545 30.0923 41.8583 30.5987C41.598 30.8437 41.2913 31.034 40.9563 31.1584C40.6212 31.2829 40.2646 31.3389 39.9076 31.3232C39.5413 31.3466 39.1742 31.2943 38.829 31.1696C38.4839 31.045 38.168 30.8506 37.9012 30.5987C37.405 30.0923 37.1251 29.4127 37.1209 28.7038C37.1165 27.9766 37.3965 27.2766 37.9012 26.7531C38.4716 26.363 39.1686 26.2037 39.8519 26.3072L39.9076 25.9728ZM39.8519 30.2643C40.1792 30.261 40.4949 30.1426 40.7436 29.9299C40.9564 29.6707 41.0728 29.3457 41.0728 29.0103C41.0728 28.6749 40.9564 28.3499 40.7436 28.0907C40.4801 27.9176 40.1658 27.8391 39.8519 27.8677C39.5054 27.8575 39.1676 27.9767 38.9044 28.2022C38.6915 28.4614 38.5752 28.7864 38.5752 29.1218C38.5752 29.4572 38.6915 29.7822 38.9044 30.0414C39.1676 30.2668 39.5054 30.386 39.8519 30.3758" fill="#231F20"/>
<path d="M15.5493 34.333H24.7454V36.3394H21.2342V45.2568H19.0048V36.3394H15.5493V34.333Z" fill="#231F20"/>
<path d="M26.3643 45.2568V34.333H28.6493V38.4016H33.5539V34.333H35.7833V45.2568H33.5539V40.4637H28.6493V45.2568H26.3643Z" fill="#231F20"/>
<path d="M39.518 43.8625C38.9678 43.338 38.5307 42.7065 38.2335 42.0068C37.9364 41.3071 37.7855 40.5541 37.7902 39.7939C37.7783 39.0378 37.9204 38.2872 38.2079 37.5877C38.4953 36.8882 38.9221 36.2546 39.4623 35.7253C40.6298 34.6517 42.168 34.0724 43.7538 34.1091C44.7489 34.0924 45.7304 34.3426 46.5962 34.8336V37.063C45.7545 36.5044 44.7638 36.2131 43.7538 36.2269C42.7824 36.2022 41.8407 36.5629 41.1343 37.2302C40.8003 37.5659 40.5389 37.9668 40.3663 38.4078C40.1937 38.8488 40.1137 39.3206 40.1311 39.7939C40.1101 40.2726 40.1941 40.7501 40.377 41.1929C40.5599 41.6358 40.8374 42.0333 41.19 42.3577C41.5362 42.6932 41.9468 42.9551 42.397 43.1276C42.8472 43.3 43.3277 43.3794 43.8095 43.3609C44.8947 43.4224 45.9649 43.0855 46.8191 42.4134V44.587C45.8832 45.1108 44.8262 45.3798 43.7538 45.3673C42.9761 45.3901 42.2016 45.259 41.4747 44.9816C40.7478 44.7043 40.0828 44.2861 39.518 43.751" fill="#231F20"/>
</svg>
