<svg width="211" height="51" viewBox="0 0 211 51" fill="none" xmlns="http://www.w3.org/2000/svg">
<g clip-path="url(#clip0_4_189)">
<path d="M23.0109 49.0918C22.5297 49.3279 22.1344 49.5143 21.8511 49.6454C21.5678 49.5143 21.1725 49.3279 20.6913 49.0918C19.6617 48.5865 18.2437 47.856 16.6917 46.9563C13.5495 45.1346 10.0047 42.7014 7.94735 40.1179C5.73768 37.3434 4.30915 34.8967 3.33149 32.2786C2.35027 29.6509 1.80236 26.7956 1.41312 23.1694C1.2102 21.2789 1.20748 18.3837 1.26062 15.9086C1.28695 14.6823 1.32645 13.5779 1.3594 12.78C1.36697 12.5965 1.3742 12.4294 1.38083 12.2808C1.53811 12.2171 1.71769 12.1441 1.91679 12.0628C2.70545 11.741 3.80127 11.2883 5.03034 10.7655C7.47793 9.72423 10.4919 8.38828 12.6556 7.24648C14.8242 6.10213 17.3063 4.53707 19.2289 3.27135C20.1941 2.63594 21.0258 2.07101 21.6165 1.66469C21.6995 1.60756 21.7778 1.55356 21.8511 1.50293C21.9243 1.55356 22.0027 1.60756 22.0857 1.66469C22.6765 2.07101 23.5081 2.63594 24.4733 3.27135C26.3959 4.53707 28.8779 6.10213 31.0465 7.24648C33.2103 8.38828 36.2242 9.72423 38.6718 10.7655C39.9009 11.2883 40.9967 11.741 41.7854 12.0628C41.968 12.1374 42.1343 12.205 42.282 12.2649V23.3013C42.282 26.8642 41.7418 29.671 40.6809 32.2591C39.6138 34.862 37.9957 37.3041 35.7548 40.1179C33.6974 42.7014 30.1527 45.1346 27.0104 46.9563C25.4585 47.856 24.0405 48.5865 23.0109 49.0918Z" stroke="#152B6F" stroke-width="3"/>
<path d="M56.8022 9.62391H59.1175L61.2603 23.9862L63.945 9.69795H65.9155L68.6248 24.0602L70.7184 9.62391H72.9844L69.7824 29.6126H67.7627L64.9795 14.8062L62.1717 29.6126H60.0535L56.8022 9.62391ZM75.4108 9.62391H83.1448V11.6968H78.194V18.3104H82.2089V20.2846H78.194V27.6137H83.1941V29.6126H75.4108V9.62391ZM85.4412 9.62391H90.0224C91.8287 9.62391 93.1669 10.0352 94.0372 10.8578C94.9074 11.6639 95.3426 12.9225 95.3426 14.6334C95.3426 17.1834 94.3902 18.59 92.4855 18.8533C93.6677 19.1329 94.5298 19.6923 95.0716 20.5313C95.6135 21.3539 95.8844 22.4808 95.8844 23.9121C95.8844 25.7054 95.4575 27.1037 94.6037 28.1073C93.7662 29.1108 92.4855 29.6126 90.7613 29.6126H85.4412V9.62391ZM89.8746 17.9649C91.0241 17.9649 91.8204 17.7181 92.2638 17.2246C92.7071 16.7146 92.9288 15.8508 92.9288 14.6334C92.9288 13.745 92.7892 13.0952 92.5101 12.6839C92.2474 12.2562 91.8451 11.9847 91.3032 11.8696C90.7613 11.7544 89.9567 11.6968 88.8894 11.6968H88.2244V17.9649H89.8746ZM90.0963 27.6137C90.9173 27.6137 91.5495 27.4904 91.9928 27.2436C92.4526 26.9804 92.7728 26.5855 92.9534 26.0591C93.1341 25.5326 93.2244 24.817 93.2244 23.9121C93.2244 22.6289 92.9616 21.6747 92.4362 21.0496C91.9107 20.4079 91.0569 20.0871 89.8746 20.0871H88.2244V27.6137H90.0963ZM103.062 29.8347C101.387 29.8347 100.106 29.3165 99.2194 28.28C98.3491 27.2436 97.8647 25.8205 97.7662 24.0108L100.229 23.3446C100.311 24.6278 100.558 25.6642 100.968 26.4539C101.395 27.2436 102.093 27.6384 103.062 27.6384C103.784 27.6384 104.326 27.441 104.687 27.0462C105.065 26.6349 105.254 26.0508 105.254 25.2941C105.254 24.4715 105.081 23.7887 104.737 23.2458C104.392 22.7029 103.842 22.1025 103.086 21.4444L99.7366 18.4831C99.0634 17.8908 98.5708 17.2575 98.2588 16.5829C97.9632 15.892 97.8155 15.0529 97.8155 14.0658C97.8155 12.6017 98.2342 11.4665 99.0716 10.6604C99.909 9.85424 101.05 9.45117 102.495 9.45117C104.072 9.45117 105.262 9.87069 106.067 10.7097C106.871 11.5488 107.356 12.8484 107.52 14.6088L105.155 15.2504C105.073 14.0823 104.843 13.1857 104.466 12.5605C104.104 11.9189 103.448 11.5981 102.495 11.5981C101.789 11.5981 101.247 11.7873 100.87 12.1657C100.492 12.5276 100.303 13.0705 100.303 13.7944C100.303 14.3867 100.402 14.8884 100.599 15.2997C100.796 15.6946 101.132 16.0976 101.609 16.5089L104.983 19.4702C105.853 20.2434 106.543 21.0825 107.052 21.9873C107.577 22.8921 107.84 23.9204 107.84 25.072C107.84 26.5362 107.397 27.696 106.51 28.5515C105.623 29.407 104.474 29.8347 103.062 29.8347ZM110.147 9.62391H112.881V29.6126H110.147V9.62391ZM118.301 11.6968H114.926V9.62391H124.36V11.6968H121.084V29.6126H118.301V11.6968ZM126.283 9.62391H134.017V11.6968H129.066V18.3104H133.081V20.2846H129.066V27.6137H134.066V29.6126H126.283V9.62391ZM146.646 29.8347C144.971 29.8347 143.69 29.3165 142.804 28.28C141.933 27.2436 141.449 25.8205 141.35 24.0108L143.813 23.3446C143.896 24.6278 144.142 25.6642 144.552 26.4539C144.979 27.2436 145.677 27.6384 146.646 27.6384C147.368 27.6384 147.91 27.441 148.272 27.0462C148.649 26.6349 148.838 26.0508 148.838 25.2941C148.838 24.4715 148.666 23.7887 148.321 23.2458C147.976 22.7029 147.426 22.1025 146.671 21.4444L143.321 18.4831C142.648 17.8908 142.155 17.2575 141.843 16.5829C141.547 15.892 141.4 15.0529 141.4 14.0658C141.4 12.6017 141.818 11.4665 142.656 10.6604C143.493 9.85424 144.634 9.45117 146.079 9.45117C147.656 9.45117 148.846 9.87069 149.651 10.7097C150.455 11.5488 150.94 12.8484 151.104 14.6088L148.74 15.2504C148.657 14.0823 148.428 13.1857 148.05 12.5605C147.689 11.9189 147.032 11.5981 146.079 11.5981C145.373 11.5981 144.832 11.7873 144.454 12.1657C144.076 12.5276 143.887 13.0705 143.887 13.7944C143.887 14.3867 143.986 14.8884 144.183 15.2997C144.38 15.6946 144.717 16.0976 145.193 16.5089L148.567 19.4702C149.437 20.2434 150.127 21.0825 150.636 21.9873C151.162 22.8921 151.424 23.9204 151.424 25.072C151.424 26.5362 150.981 27.696 150.094 28.5515C149.208 29.407 148.058 29.8347 146.646 29.8347ZM153.583 9.62391H161.317V11.6968H156.367V18.3104H160.381V20.2846H156.367V27.6137H161.367V29.6126H153.583V9.62391ZM168.614 29.8347C166.643 29.8347 165.256 29.2507 164.451 28.0826C163.647 26.8981 163.244 25.2694 163.244 23.1965V16.1388C163.244 13.9507 163.638 12.2891 164.427 11.1539C165.215 10.0188 166.61 9.45117 168.614 9.45117C170.404 9.45117 171.684 9.93649 172.456 10.9071C173.244 11.8778 173.638 13.3091 173.638 15.201V16.7804H171.003V15.3738C171.003 14.4525 170.962 13.745 170.88 13.2515C170.798 12.7579 170.584 12.3631 170.239 12.067C169.911 11.7708 169.377 11.6228 168.638 11.6228C167.883 11.6228 167.317 11.7873 166.939 12.1163C166.578 12.4289 166.34 12.8731 166.225 13.4489C166.11 14.0083 166.052 14.765 166.052 15.7192V23.6407C166.052 24.6607 166.134 25.4586 166.298 26.0344C166.463 26.6102 166.725 27.0215 167.087 27.2683C167.464 27.515 167.982 27.6384 168.638 27.6384C169.344 27.6384 169.87 27.4821 170.215 27.1696C170.56 26.857 170.773 26.4292 170.855 25.8863C170.954 25.3434 171.003 24.6031 171.003 23.6654V22.1847H173.638V23.6654C173.638 25.656 173.261 27.186 172.505 28.2554C171.766 29.3083 170.469 29.8347 168.614 29.8347ZM181.437 29.8347C180.041 29.8347 178.949 29.555 178.161 28.9957C177.39 28.4363 176.856 27.6549 176.56 26.6513C176.265 25.6478 176.117 24.3892 176.117 22.8757V9.62391H178.777V22.9991C178.777 24.5126 178.949 25.6642 179.294 26.4539C179.656 27.2436 180.37 27.6384 181.437 27.6384C182.504 27.6384 183.211 27.2436 183.555 26.4539C183.917 25.6642 184.097 24.5126 184.097 22.9991V9.62391H186.733V22.8757C186.733 24.3892 186.585 25.6478 186.289 26.6513C185.994 27.6549 185.46 28.4363 184.688 28.9957C183.917 29.555 182.833 29.8347 181.437 29.8347ZM189.663 9.62391H193.678C195.697 9.62391 197.175 10.0434 198.111 10.8825C199.063 11.705 199.54 13.0541 199.54 14.9296C199.54 17.496 198.719 19.0507 197.077 19.5936L199.909 29.6126H197.224L194.614 20.2352H192.446V29.6126H189.663V9.62391ZM193.505 18.2363C194.704 18.2363 195.558 17.9978 196.067 17.5207C196.592 17.0436 196.855 16.1799 196.855 14.9296C196.855 14.107 196.765 13.4654 196.584 13.0047C196.403 12.5276 196.083 12.1821 195.623 11.9683C195.164 11.7379 194.515 11.6228 193.678 11.6228H192.446V18.2363H193.505ZM202.435 9.62391H210.169V11.6968H205.219V18.3104H209.233V20.2846H205.219V27.6137H210.219V29.6126H202.435V9.62391Z" fill="#152B6F"/>
<path d="M59.4198 47.0351C58.4838 47.0351 57.7695 46.7489 57.2769 46.1764C56.7843 45.594 56.5035 44.7944 56.4346 43.7777L57.4247 43.4816C57.5134 44.3305 57.7006 44.982 57.9863 45.436C58.2818 45.8901 58.7646 46.1171 59.4345 46.1171C60.5577 46.1171 61.1193 45.5397 61.1193 44.3848C61.1193 43.8912 61.001 43.4569 60.7646 43.0818C60.538 42.7067 60.1685 42.2773 59.6562 41.7936L57.5429 39.7652C57.1587 39.4098 56.8779 39.0396 56.7006 38.6547C56.5331 38.2598 56.4493 37.8255 56.4493 37.3517C56.4493 36.5324 56.6907 35.9007 57.1735 35.4565C57.6661 35.0024 58.3262 34.7754 59.1538 34.7754C60.0405 34.7754 60.7202 35.0123 61.1932 35.4861C61.6661 35.9599 61.9419 36.7348 62.0207 37.8107L61.0602 38.0624C61.001 37.253 60.8286 36.6509 60.5429 36.256C60.2671 35.8612 59.804 35.6638 59.1538 35.6638C58.6415 35.6638 58.2326 35.797 57.9272 36.0635C57.6218 36.3301 57.469 36.7249 57.469 37.2481C57.469 37.5837 57.5331 37.8847 57.6612 38.1513C57.7892 38.4178 58.006 38.6991 58.3114 38.9952L60.4247 40.9941C60.9666 41.5074 61.3902 42.0355 61.6956 42.5784C62.0109 43.1114 62.1685 43.6889 62.1685 44.3107C62.1685 45.1794 61.9173 45.8506 61.4148 46.3244C60.9124 46.7982 60.2474 47.0351 59.4198 47.0351ZM65.5965 47.0203C65.0448 47.0203 64.6014 46.9117 64.2664 46.6946C63.9315 46.4774 63.6852 46.127 63.5275 45.6433C63.3699 45.1596 63.2911 44.5032 63.2911 43.6741V41.5123C63.2911 40.6733 63.3699 40.0169 63.5275 39.5431C63.695 39.0594 63.9463 38.7139 64.2812 38.5066C64.6261 38.2993 65.0694 38.1957 65.6113 38.1957C66.2024 38.1957 66.6556 38.324 66.9709 38.5806C67.296 38.8274 67.5177 39.2025 67.6359 39.7059C67.764 40.2094 67.828 40.8855 67.828 41.7344V42.5044H64.3699V43.9998C64.3699 44.8191 64.4635 45.3916 64.6507 45.7174C64.8379 46.0431 65.1531 46.206 65.5965 46.206C65.9709 46.206 66.2566 46.0875 66.4536 45.8506C66.6605 45.6137 66.764 45.1843 66.764 44.5625V43.9702H67.8132V44.444C67.8132 45.2732 67.6408 45.9098 67.296 46.354C66.9512 46.7982 66.3847 47.0203 65.5965 47.0203ZM66.764 41.8825V41.1718C66.764 40.6585 66.7344 40.2538 66.6753 39.9576C66.626 39.6615 66.5177 39.4295 66.3502 39.2617C66.1827 39.0939 65.9315 39.01 65.5965 39.01C65.2911 39.01 65.0497 39.0791 64.8724 39.2173C64.695 39.3456 64.5669 39.5776 64.4881 39.9132C64.4093 40.239 64.3699 40.7029 64.3699 41.305V41.8825H66.764ZM71.4122 47.0203C70.7817 47.0203 70.2989 46.8821 69.9639 46.6057C69.629 46.3195 69.4024 45.9395 69.2841 45.4656C69.1758 44.982 69.1216 44.3749 69.1216 43.6445V41.6456C69.1216 40.8164 69.1856 40.1551 69.3137 39.6615C69.4516 39.168 69.6832 38.8027 70.0083 38.5658C70.3432 38.3191 70.8112 38.1957 71.4122 38.1957C72.2496 38.1957 72.8211 38.4276 73.1265 38.8916C73.4319 39.3456 73.5846 40.0267 73.5846 40.9349V41.3495H72.5797V40.9349C72.5797 40.4315 72.5403 40.0415 72.4615 39.7652C72.3925 39.4888 72.2743 39.2963 72.1068 39.1877C71.9393 39.0693 71.7078 39.01 71.4122 39.01C71.0772 39.01 70.8211 39.089 70.6437 39.2469C70.4763 39.4049 70.358 39.6566 70.2891 40.0021C70.2299 40.3377 70.2004 40.8263 70.2004 41.4679V43.8665C70.2004 44.4588 70.2349 44.9227 70.3038 45.2584C70.3728 45.594 70.496 45.8358 70.6733 45.9839C70.8506 46.1319 71.1019 46.206 71.427 46.206C71.762 46.206 72.0083 46.1369 72.1659 45.9987C72.3334 45.8506 72.4418 45.6334 72.491 45.3472C72.5501 45.0609 72.5797 44.6612 72.5797 44.1479V43.6741H73.5846V44.0886C73.5846 44.7303 73.5255 45.2633 73.4073 45.6877C73.2989 46.1023 73.0871 46.4281 72.7718 46.665C72.4565 46.9019 72.0033 47.0203 71.4122 47.0203ZM76.2842 47.0203C75.8507 47.0203 75.5206 46.8624 75.294 46.5465C75.0674 46.2306 74.9541 45.7815 74.9541 45.1991V38.3289H76.0477V44.9622C76.0477 45.3965 76.1118 45.7075 76.2398 45.895C76.3778 46.0727 76.5847 46.1615 76.8605 46.1615C77.1068 46.1615 77.3581 46.0875 77.6142 45.9395C77.8802 45.7815 78.1315 45.5742 78.3679 45.3176V38.3289H79.4467V46.8871H78.3679V45.9395C78.0822 46.2751 77.762 46.5416 77.4073 46.739C77.0526 46.9265 76.6783 47.0203 76.2842 47.0203ZM81.1921 38.3289H82.2858V39.4986C82.5419 39.0742 82.8424 38.7583 83.1872 38.551C83.5419 38.3437 83.8966 38.2401 84.2513 38.2401C84.3202 38.2401 84.3843 38.245 84.4434 38.2549V39.4098C84.266 39.3506 84.0887 39.321 83.9114 39.321C83.2316 39.321 82.6897 39.6516 82.2858 40.313V46.8871H81.1921V38.3289ZM87.6051 47.0203C87.0534 47.0203 86.61 46.9117 86.2751 46.6946C85.9401 46.4774 85.6938 46.127 85.5362 45.6433C85.3785 45.1596 85.2997 44.5032 85.2997 43.6741V41.5123C85.2997 40.6733 85.3785 40.0169 85.5362 39.5431C85.7036 39.0594 85.9549 38.7139 86.2898 38.5066C86.6347 38.2993 87.078 38.1957 87.6199 38.1957C88.211 38.1957 88.6642 38.324 88.9795 38.5806C89.3046 38.8274 89.5263 39.2025 89.6445 39.7059C89.7726 40.2094 89.8366 40.8855 89.8366 41.7344V42.5044H86.3785V43.9998C86.3785 44.8191 86.4721 45.3916 86.6593 45.7174C86.8465 46.0431 87.1618 46.206 87.6051 46.206C87.9795 46.206 88.2652 46.0875 88.4622 45.8506C88.6691 45.6137 88.7726 45.1843 88.7726 44.5625V43.9702H89.8218V44.444C89.8218 45.2732 89.6494 45.9098 89.3046 46.354C88.9598 46.7982 88.3933 47.0203 87.6051 47.0203ZM88.7726 41.8825V41.1718C88.7726 40.6585 88.743 40.2538 88.6839 39.9576C88.6346 39.6615 88.5263 39.4295 88.3588 39.2617C88.1913 39.0939 87.9401 39.01 87.6051 39.01C87.2997 39.01 87.0583 39.0791 86.881 39.2173C86.7036 39.3456 86.5756 39.5776 86.4967 39.9132C86.4179 40.239 86.3785 40.7029 86.3785 41.305V41.8825H88.7726ZM94.2052 46.0875L97.4269 41.1422C97.4663 41.0829 97.5008 41.0286 97.5303 40.9793C97.5697 40.9299 97.5993 40.8905 97.619 40.8608C98.0229 40.2291 98.3185 39.6961 98.5057 39.2617C98.7027 38.8274 98.8012 38.3191 98.8012 37.7367C98.8012 37.0852 98.6682 36.5818 98.4022 36.2264C98.1362 35.8612 97.7372 35.6786 97.2052 35.6786C96.5155 35.6786 96.0377 35.9007 95.7717 36.3449C95.5057 36.7792 95.3727 37.3912 95.3727 38.1809V38.4474H94.2939V38.1513C94.2939 37.026 94.5205 36.182 94.9737 35.6194C95.4367 35.0567 96.1658 34.7754 97.1609 34.7754C98.0476 34.7754 98.7224 35.0419 99.1855 35.5749C99.6485 36.0981 99.88 36.8483 99.88 37.8255C99.88 38.2796 99.816 38.709 99.6879 39.1137C99.5599 39.5184 99.4022 39.8836 99.215 40.2094C99.0377 40.5252 98.7865 40.9349 98.4613 41.4383L95.4761 45.9691H99.6288V46.8871H94.2052V46.0875ZM104.216 47.0203C103.28 47.0203 102.6 46.7538 102.176 46.2208C101.763 45.6779 101.556 44.8685 101.556 43.7925H102.635C102.635 44.5723 102.753 45.1596 102.989 45.5545C103.236 45.9493 103.659 46.1467 104.26 46.1467C104.91 46.1467 105.349 45.9098 105.575 45.436C105.802 44.9524 105.915 44.1725 105.915 43.0966C105.915 42.3563 105.861 41.7739 105.753 41.3495C105.654 40.9151 105.482 40.6042 105.236 40.4166C104.999 40.2192 104.679 40.1205 104.275 40.1205C103.635 40.1205 103.117 40.4512 102.723 41.1125H101.822V34.8938H106.477L106.462 35.9155H102.782L102.723 40.0761C103.147 39.5431 103.758 39.2766 104.556 39.2766C105.413 39.2766 106.034 39.5924 106.418 40.2242C106.802 40.846 106.994 41.7591 106.994 42.9634C106.994 44.3058 106.777 45.3176 106.344 45.9987C105.91 46.6798 105.201 47.0203 104.216 47.0203ZM111.436 47.0351C109.593 47.0351 108.672 45.7815 108.672 43.2743V38.4918C108.672 36.0142 109.589 34.7754 111.421 34.7754C113.194 34.7754 114.091 35.6983 114.111 37.5442L114.125 37.7959H113.047C113.047 37.026 112.923 36.4781 112.677 36.1524C112.441 35.8266 112.037 35.6638 111.465 35.6638C110.323 35.6638 109.751 36.5225 109.751 38.2401V40.5055C109.958 40.3179 110.229 40.1551 110.564 40.0169C110.909 39.8787 111.278 39.8096 111.672 39.8096C112.322 39.8096 112.835 39.933 113.209 40.1797C113.584 40.4265 113.85 40.8115 114.007 41.3346C114.175 41.8479 114.258 42.529 114.258 43.3779C114.258 45.8161 113.318 47.0351 111.436 47.0351ZM111.436 46.1319C112.027 46.1319 112.46 45.9296 112.736 45.5249C113.022 45.1202 113.165 44.4736 113.165 43.5852C113.165 42.8548 113.125 42.2872 113.047 41.8825C112.968 41.4778 112.805 41.1718 112.559 40.9645C112.313 40.7572 111.938 40.6536 111.436 40.6536C111.121 40.6536 110.805 40.7276 110.49 40.8756C110.175 41.0138 109.928 41.1668 109.751 41.3346V43.4075C109.751 44.365 109.884 45.0609 110.15 45.4953C110.426 45.9197 110.855 46.1319 111.436 46.1319ZM115.707 41.6308H118.84V42.4895H115.707V41.6308ZM122.902 47.0203C122.35 47.0203 121.843 46.7489 121.38 46.206V46.8871H120.301V34.8938H121.38V39.0396C121.567 38.7929 121.799 38.5905 122.074 38.4326C122.35 38.2746 122.661 38.1957 123.005 38.1957C123.754 38.1957 124.267 38.5066 124.542 39.1285C124.818 39.7504 124.956 40.5746 124.956 41.6012V43.4075C124.956 44.5822 124.804 45.4805 124.498 46.1023C124.193 46.7143 123.661 47.0203 122.902 47.0203ZM122.71 46.1615C123.173 46.1615 123.478 45.9493 123.626 45.5249C123.784 45.1004 123.863 44.4045 123.863 43.4372V41.6012C123.863 40.6832 123.784 40.0267 123.626 39.6319C123.478 39.2371 123.168 39.0396 122.695 39.0396C122.262 39.0396 121.823 39.2617 121.38 39.7059V45.5397C121.754 45.9543 122.198 46.1615 122.71 46.1615ZM126.552 35.6786H127.631V37.1444H126.552V35.6786ZM126.552 38.3289H127.631V46.8871H126.552V38.3289ZM131.475 46.9907C130.894 46.9907 130.49 46.8328 130.263 46.5169C130.046 46.1912 129.938 45.7223 129.938 45.1103V39.0396H128.889V38.3289H129.938V35.6786H131.017V38.3289H132.436V39.0396H131.017V45.0066C131.017 45.441 131.066 45.742 131.165 45.9098C131.263 46.0678 131.465 46.1467 131.771 46.1467C131.958 46.1467 132.165 46.1221 132.391 46.0727V46.9019C132.086 46.9611 131.78 46.9907 131.475 46.9907ZM139.372 47.0351C138.436 47.0351 137.722 46.7489 137.23 46.1764C136.737 45.594 136.456 44.7944 136.387 43.7777L137.377 43.4816C137.466 44.3305 137.653 44.982 137.939 45.436C138.234 45.8901 138.717 46.1171 139.387 46.1171C140.51 46.1171 141.072 45.5397 141.072 44.3848C141.072 43.8912 140.954 43.4569 140.717 43.0818C140.491 42.7067 140.121 42.2773 139.609 41.7936L137.496 39.7652C137.111 39.4098 136.831 39.0396 136.653 38.6547C136.486 38.2598 136.402 37.8255 136.402 37.3517C136.402 36.5324 136.643 35.9007 137.126 35.4565C137.619 35.0024 138.279 34.7754 139.106 34.7754C139.993 34.7754 140.673 35.0123 141.146 35.4861C141.619 35.9599 141.895 36.7348 141.973 37.8107L141.013 38.0624C140.954 37.253 140.781 36.6509 140.495 36.256C140.22 35.8612 139.757 35.6638 139.106 35.6638C138.594 35.6638 138.185 35.797 137.88 36.0635C137.574 36.3301 137.422 36.7249 137.422 37.2481C137.422 37.5837 137.486 37.8847 137.614 38.1513C137.742 38.4178 137.959 38.6991 138.264 38.9952L140.377 40.9941C140.919 41.5074 141.343 42.0355 141.648 42.5784C141.963 43.1114 142.121 43.6889 142.121 44.3107C142.121 45.1794 141.87 45.8506 141.367 46.3244C140.865 46.7982 140.2 47.0351 139.372 47.0351ZM146.17 47.0351C145.234 47.0351 144.519 46.7489 144.027 46.1764C143.534 45.594 143.253 44.7944 143.184 43.7777L144.174 43.4816C144.263 44.3305 144.45 44.982 144.736 45.436C145.032 45.8901 145.514 46.1171 146.184 46.1171C147.307 46.1171 147.869 45.5397 147.869 44.3848C147.869 43.8912 147.751 43.4569 147.514 43.0818C147.288 42.7067 146.918 42.2773 146.406 41.7936L144.293 39.7652C143.908 39.4098 143.628 39.0396 143.45 38.6547C143.283 38.2598 143.199 37.8255 143.199 37.3517C143.199 36.5324 143.44 35.9007 143.923 35.4565C144.416 35.0024 145.076 34.7754 145.904 34.7754C146.79 34.7754 147.47 35.0123 147.943 35.4861C148.416 35.9599 148.692 36.7348 148.77 37.8107L147.81 38.0624C147.751 37.253 147.578 36.6509 147.293 36.256C147.017 35.8612 146.554 35.6638 145.904 35.6638C145.391 35.6638 144.982 35.797 144.677 36.0635C144.371 36.3301 144.219 36.7249 144.219 37.2481C144.219 37.5837 144.283 37.8847 144.411 38.1513C144.539 38.4178 144.756 38.6991 145.061 38.9952L147.174 40.9941C147.716 41.5074 148.14 42.0355 148.445 42.5784C148.761 43.1114 148.918 43.6889 148.918 44.3107C148.918 45.1794 148.667 45.8506 148.165 46.3244C147.662 46.7982 146.997 47.0351 146.17 47.0351ZM150.425 34.8938H151.548V46.0431H154.947V46.8871H150.425V34.8938ZM159.069 34.8938H163.399V35.7674H160.207V40.2686H162.808V41.0977H160.207V46.0431H163.429V46.8871H159.069V34.8938ZM164.751 38.3289H165.829V39.2173C166.115 38.9015 166.43 38.6547 166.775 38.477C167.13 38.2895 167.499 38.1957 167.884 38.1957C168.307 38.1957 168.632 38.3536 168.859 38.6695C169.086 38.9854 169.199 39.4345 169.199 40.0169V46.8871H168.12V40.2538C168.12 39.8195 168.051 39.5085 167.913 39.321C167.785 39.1334 167.583 39.0396 167.307 39.0396C167.071 39.0396 166.825 39.1137 166.568 39.2617C166.312 39.3999 166.066 39.5924 165.829 39.8392V46.8871H164.751V38.3289ZM172.925 47.0203C172.295 47.0203 171.812 46.8821 171.477 46.6057C171.142 46.3195 170.916 45.9395 170.797 45.4656C170.689 44.982 170.635 44.3749 170.635 43.6445V41.6456C170.635 40.8164 170.699 40.1551 170.827 39.6615C170.965 39.168 171.196 38.8027 171.522 38.5658C171.857 38.3191 172.324 38.1957 172.925 38.1957C173.763 38.1957 174.334 38.4276 174.64 38.8916C174.945 39.3456 175.098 40.0267 175.098 40.9349V41.3495H174.093V40.9349C174.093 40.4315 174.054 40.0415 173.975 39.7652C173.906 39.4888 173.788 39.2963 173.62 39.1877C173.453 39.0693 173.221 39.01 172.925 39.01C172.59 39.01 172.334 39.089 172.157 39.2469C171.989 39.4049 171.871 39.6566 171.802 40.0021C171.743 40.3377 171.714 40.8263 171.714 41.4679V43.8665C171.714 44.4588 171.748 44.9227 171.817 45.2584C171.886 45.594 172.009 45.8358 172.187 45.9839C172.364 46.1319 172.615 46.206 172.94 46.206C173.275 46.206 173.522 46.1369 173.679 45.9987C173.847 45.8506 173.955 45.6334 174.004 45.3472C174.063 45.0609 174.093 44.6612 174.093 44.1479V43.6741H175.098V44.0886C175.098 44.7303 175.039 45.2633 174.921 45.6877C174.812 46.1023 174.6 46.4281 174.285 46.665C173.97 46.9019 173.517 47.0203 172.925 47.0203ZM176.615 38.3289H177.709V39.4986C177.965 39.0742 178.265 38.7583 178.61 38.551C178.965 38.3437 179.319 38.2401 179.674 38.2401C179.743 38.2401 179.807 38.245 179.866 38.2549V39.4098C179.689 39.3506 179.512 39.321 179.334 39.321C178.654 39.321 178.113 39.6516 177.709 40.313V46.8871H176.615V38.3289ZM180.692 48.1752C181.382 48.1752 181.845 48.1012 182.081 47.9531C182.318 47.8051 182.436 47.583 182.436 47.2868C182.436 47.0993 182.392 46.8328 182.303 46.4873C182.224 46.1319 182.175 45.9246 182.155 45.8654L180.397 38.3289H181.475L182.953 45.6137L184.387 38.3289H185.48L183.411 47.4941C183.283 48.037 183.027 48.4269 182.643 48.6638C182.259 48.9007 181.702 49.0192 180.973 49.0192H180.692V48.1752ZM186.558 38.3289H187.636V39.0396C188.08 38.477 188.626 38.1957 189.277 38.1957C190.026 38.1957 190.533 38.5066 190.799 39.1285C191.075 39.7405 191.213 40.5647 191.213 41.6012V43.4075C191.213 44.5822 191.06 45.4805 190.755 46.1023C190.449 46.7143 189.917 47.0203 189.159 47.0203C188.626 47.0203 188.119 46.7489 187.636 46.206V49.7003H186.558V38.3289ZM188.996 46.1615C189.449 46.1615 189.75 45.9493 189.897 45.5249C190.055 45.1004 190.134 44.4045 190.134 43.4372V41.6012C190.134 40.6832 190.055 40.0267 189.897 39.6319C189.75 39.2371 189.439 39.0396 188.966 39.0396C188.523 39.0396 188.08 39.2617 187.636 39.7059V45.5397C188.03 45.9543 188.484 46.1615 188.996 46.1615ZM194.745 46.9907C194.163 46.9907 193.759 46.8328 193.533 46.5169C193.316 46.1912 193.208 45.7223 193.208 45.1103V39.0396H192.158V38.3289H193.208V35.6786H194.287V38.3289H195.705V39.0396H194.287V45.0066C194.287 45.441 194.336 45.742 194.434 45.9098C194.533 46.0678 194.735 46.1467 195.04 46.1467C195.227 46.1467 195.434 46.1221 195.661 46.0727V46.9019C195.356 46.9611 195.05 46.9907 194.745 46.9907ZM196.979 35.6786H198.058V37.1444H196.979V35.6786ZM196.979 38.3289H198.058V46.8871H196.979V38.3289ZM201.991 47.0203C201.144 47.0203 200.553 46.7587 200.218 46.2356C199.883 45.7025 199.715 44.8882 199.715 43.7925V41.4235C199.715 40.3278 199.883 39.5184 200.218 38.9952C200.553 38.4622 201.144 38.1957 201.991 38.1957C202.848 38.1957 203.444 38.4622 203.779 38.9952C204.114 39.5184 204.282 40.3278 204.282 41.4235V43.7925C204.282 44.8882 204.114 45.7025 203.779 46.2356C203.444 46.7587 202.848 47.0203 201.991 47.0203ZM201.991 46.206C202.346 46.206 202.607 46.1122 202.774 45.9246C202.952 45.7371 203.065 45.4854 203.114 45.1695C203.163 44.8438 203.188 44.4045 203.188 43.8517V41.3643C203.188 40.8115 203.163 40.3772 203.114 40.0613C203.065 39.7355 202.952 39.4789 202.774 39.2914C202.607 39.1038 202.346 39.01 201.991 39.01C201.636 39.01 201.375 39.1038 201.208 39.2914C201.04 39.4789 200.932 39.7355 200.883 40.0613C200.833 40.3772 200.809 40.8115 200.809 41.3643V43.8517C200.809 44.4045 200.833 44.8438 200.883 45.1695C200.932 45.4854 201.04 45.7371 201.208 45.9246C201.375 46.1122 201.636 46.206 201.991 46.206ZM205.781 38.3289H206.86V39.2173C207.145 38.9015 207.46 38.6547 207.805 38.477C208.16 38.2895 208.529 38.1957 208.914 38.1957C209.337 38.1957 209.662 38.3536 209.889 38.6695C210.116 38.9854 210.229 39.4345 210.229 40.0169V46.8871H209.15V40.2538C209.15 39.8195 209.081 39.5085 208.943 39.321C208.815 39.1334 208.613 39.0396 208.337 39.0396C208.101 39.0396 207.855 39.1137 207.598 39.2617C207.342 39.3999 207.096 39.5924 206.86 39.8392V46.8871H205.781V38.3289Z" fill="#152B6F"/>
<path fill-rule="evenodd" clip-rule="evenodd" d="M18.062 15.6289H25.4511C25.9046 15.6289 26.2721 15.9971 26.2721 16.4515V22.2095H17.241V16.4515C17.241 15.9971 17.6086 15.6289 18.062 15.6289ZM14.778 22.3132V16.4515C14.778 14.6343 16.2483 13.1611 18.062 13.1611H25.4511C27.2648 13.1611 28.7352 14.6343 28.7352 16.4515V22.3132C30.1516 22.6785 31.1982 23.9667 31.1982 25.4998V27.145H27.9142V27.9676H31.1982V29.6127H27.9142V30.4353H31.1982V32.0805H27.9142V32.9031H31.1982V33.7257C31.1982 35.5428 29.7279 37.016 27.9142 37.016H15.599C13.7853 37.016 12.3149 35.5428 12.3149 33.7257V25.4998C12.3149 23.9667 13.3616 22.6785 14.778 22.3132ZM22.1671 31.2168C23.1039 31.0263 23.8091 30.1964 23.8091 29.2015C23.8091 28.0657 22.8901 27.145 21.7566 27.145C20.623 27.145 19.704 28.0657 19.704 29.2015C19.704 30.1964 20.4092 31.0263 21.3461 31.2168V32.9031H22.1671V31.2168Z" fill="#152B6F"/>
</g>
<defs>
<clipPath id="clip0_4_189">
<rect width="211" height="51" fill="white"/>
</clipPath>
</defs>
</svg>
